VelekaWorld-Medium.ufo
<glyph name="quotedbl" format="2">
  <advance width="353"/>
  <unicode hex="0022"/>
  <outline>
    <contour>
      <point x="42" y="660.333" type="line"/>
      <point x="42" y="692"/>
      <point x="57" y="714"/>
      <point x="89.6667" y="714" type="curve" smooth="yes"/>
      <point x="122.333" y="714"/>
      <point x="137" y="692"/>
      <point x="137" y="660.333" type="curve"/>
      <point x="101.333" y="419.667" type="line"/>
      <point x="78.3333" y="419.667" type="line"/>
    </contour>
    <contour>
      <point x="215.333" y="660.333" type="line"/>
      <point x="215.333" y="692"/>
      <point x="230.333" y="714"/>
      <point x="262.333" y="714" type="curve" smooth="yes"/>
      <point x="295.333" y="714"/>
      <point x="310.667" y="692"/>
      <point x="310.667" y="660.333" type="curve"/>
      <point x="274" y="419.667" type="line"/>
      <point x="251" y="419.667" type="line"/>
    </contour>
  </outline>
</glyph>
<glyph name="numbersign" format="2">
  <advance width="742"/>
  <unicode hex="0023"/>
  <outline>
    <contour>
      <point x="62" y="225" type="line"/>
      <point x="62" y="279.333" type="line"/>
      <point x="218.667" y="279.333" type="line"/>
      <point x="265.667" y="418.667" type="line"/>
      <point x="108.333" y="418.667" type="line"/>
      <point x="108.333" y="474.667" type="line"/>
      <point x="284" y="474.667" type="line"/>
      <point x="363" y="708.667" type="line"/>
      <point x="419.333" y="692" type="line"/>
      <point x="343.333" y="474.667" type="line"/>
      <point x="484" y="474.667" type="line"/>
      <point x="561.333" y="708.667" type="line"/>
      <point x="619.667" y="691.667" type="line"/>
      <point x="544" y="474.667" type="line"/>
      <point x="681" y="474.667" type="line"/>
      <point x="681" y="418.667" type="line"/>
      <point x="525" y="418.667" type="line"/>
      <point x="479.333" y="279.333" type="line"/>
      <point x="638.333" y="279.333" type="line"/>
      <point x="638.333" y="225" type="line"/>
      <point x="460" y="225" type="line"/>
      <point x="378.667" y="-23.3333" type="line"/>
      <point x="322.333" y="-7" type="line"/>
      <point x="399" y="225" type="line"/>
      <point x="260.667" y="225" type="line"/>
      <point x="178" y="-23.3333" type="line"/>
      <point x="123" y="-6" type="line"/>
      <point x="201.333" y="225" type="line"/>
    </contour>
    <contour>
      <point x="279" y="279.333" type="line"/>
      <point x="417" y="279.333" type="line"/>
      <point x="465" y="418.667" type="line"/>
      <point x="326.333" y="418.667" type="line"/>
    </contour>
  </outline>
</glyph>
<glyph name="comma" format="2">
  <advance width="292"/>
  <unicode hex="002C"/>
  <outline>
    <contour>
      <point x="33.6667" y="-131.667" type="line"/>
      <point x="97.3333" y="-118.333"/>
      <point x="147" y="-67.6667"/>
      <point x="147" y="7" type="curve"/>
      <point x="84.6667" y="7" type="line"/>
      <point x="70" y="20"/>
      <point x="62.3333" y="39"/>
      <point x="62.3333" y="59" type="curve" smooth="yes"/>
      <point x="62.3333" y="99.6667"/>
      <point x="90.5793" y="133"/>
      <point x="137.667" y="133" type="curve" smooth="yes"/>
      <point x="194.263" y="133"/>
      <point x="219.333" y="93.6847"/>
      <point x="219.333" y="43" type="curve" smooth="yes"/>
      <point x="219.333" y="-75.8566"/>
      <point x="129" y="-163.429"/>
      <point x="33.6667" y="-172" type="curve"/>
    </contour>
  </outline>
</glyph>
<glyph name="five" format="2">
  <advance width="570"/>
  <unicode hex="0035"/>
  <outline>
    <contour>
      <point x="44.3333" y="106.333" type="curve" smooth="yes"/>
      <point x="44.3333" y="140.333"/>
      <point x="70.6667" y="165.333"/>
      <point x="110.667" y="165.333" type="curve" smooth="yes"/>
      <point x="122.179" y="165.333"/>
      <point x="138.513" y="163"/>
      <point x="149" y="159.667" type="curve"/>
      <point x="179" y="50" type="line"/>
      <point x="192.507" y="43.0191"/>
      <point x="225.057" y="36.6667"/>
      <point x="247.667" y="36.6667" type="curve" smooth="yes"/>
      <point x="349.025" y="36.6667"/>
      <point x="411.333" y="117.087"/>
      <point x="411.333" y="193.667" type="curve" smooth="yes"/>
      <point x="411.333" y="294.667"/>
      <point x="341.333" y="351.667"/>
      <point x="238" y="351.667" type="curve" smooth="yes"/>
      <point x="176.017" y="351.667"/>
      <point x="112.544" y="334.489"/>
      <point x="83" y="323" type="curve"/>
      <point x="83" y="671" type="line"/>
      <point x="483.667" y="671" type="line"/>
      <point x="483.667" y="577.333" type="line"/>
      <point x="158.667" y="577.333" type="line"/>
      <point x="158.667" y="397" type="line"/>
      <point x="180" y="404.333"/>
      <point x="238.951" y="422.333"/>
      <point x="295.333" y="422.333" type="curve" smooth="yes"/>
      <point x="433.279" y="422.333"/>
      <point x="527.667" y="348.503"/>
      <point x="527.667" y="220.333" type="curve" smooth="yes"/>
      <point x="527.667" y="64.7357"/>
      <point x="397.174" y="-16"/>
      <point x="240" y="-16" type="curve" smooth="yes"/>
      <point x="152.711" y="-16"/>
      <point x="44.3333" y="27.5149"/>
    </contour>
  </outline>
</glyph>
<glyph name="eight" format="2">
  <advance width="570"/>
  <unicode hex="0038"/>
  <outline>
    <contour>
      <point x="38.6667" y="178.333" type="curve" smooth="yes"/>
      <point x="38.6667" y="253.413"/>
      <point x="84.6035" y="306.308"/>
      <point x="180.333" y="341.667" type="curve"/>
      <point x="110.881" y="368.223"/>
      <point x="65.6667" y="427.733"/>
      <point x="65.6667" y="493" type="curve" smooth="yes"/>
      <point x="65.6667" y="611.513"/>
      <point x="152.611" y="686.333"/>
      <point x="290" y="686.333" type="curve" smooth="yes"/>
      <point x="414.73" y="686.333"/>
      <point x="505" y="613.493"/>
      <point x="505" y="513" type="curve" smooth="yes"/>
      <point x="505" y="446.142"/>
      <point x="462.419" y="390.091"/>
      <point x="383" y="353.667" type="curve"/>
      <point x="479.989" y="321.162"/>
      <point x="531.667" y="261.231"/>
      <point x="531.667" y="181.333" type="curve" smooth="yes"/>
      <point x="531.667" y="63.1369"/>
      <point x="430.437" y="-18"/>
      <point x="283" y="-18" type="curve" smooth="yes"/>
      <point x="136.899" y="-18"/>
      <point x="38.6667" y="60.8835"/>
    </contour>
    <contour>
      <point x="143.333" y="189" type="curve" smooth="yes"/>
      <point x="143.333" y="100.581"/>
      <point x="200.08" y="41.3333"/>
      <point x="285.667" y="41.3333" type="curve" smooth="yes"/>
      <point x="363.095" y="41.3333"/>
      <point x="419" y="90.0869"/>
      <point x="419" y="157.667" type="curve" smooth="yes"/>
      <point x="419" y="221.873"/>
      <point x="355.551" y="274.327"/>
      <point x="222.667" y="320" type="curve"/>
      <point x="169.125" y="287.801"/>
      <point x="143.333" y="244.863"/>
    </contour>
    <contour>
      <point x="178" y="523.333" type="curve" smooth="yes"/>
      <point x="178" y="459.767"/>
      <point x="223.671" y="417.495"/>
      <point x="338.333" y="374.333" type="curve"/>
      <point x="381.022" y="409.087"/>
      <point x="403.333" y="453.749"/>
      <point x="403.333" y="504.333" type="curve" smooth="yes"/>
      <point x="403.333" y="578.973"/>
      <point x="355.108" y="631.333"/>
      <point x="286.667" y="631.333" type="curve" smooth="yes"/>
      <point x="225.417" y="631.333"/>
      <point x="178" y="584.204"/>
    </contour>
  </outline>
</glyph>
<glyph name="greater" format="2">
  <advance width="1000"/>
  <unicode hex="003E"/>
  <outline>
    <contour>
      <point x="200" y="39" type="line"/>
      <point x="200" y="101" type="line"/>
      <point x="736" y="300" type="line"/>
      <point x="200" y="499" type="line"/>
      <point x="200" y="561" type="line"/>
      <point x="800" y="331" type="line"/>
      <point x="800" y="269" type="line"/>
    </contour>
  </outline>
</glyph>
<glyph name="j" format="2">
  <advance width="302"/>
  <unicode hex="006A"/>
  <outline>
    <contour>
      <point x="89.3333" y="652.333" type="curve" smooth="yes"/>
      <point x="89.3333" y="689.483"/>
      <point x="119.517" y="719.333"/>
      <point x="156.667" y="719.333" type="curve" smooth="yes"/>
      <point x="193.816" y="719.333"/>
      <point x="223.667" y="689.483"/>
      <point x="223.667" y="652.333" type="curve" smooth="yes"/>
      <point x="223.667" y="615.184"/>
      <point x="193.816" y="585"/>
      <point x="156.667" y="585" type="curve" smooth="yes"/>
      <point x="119.517" y="585"/>
      <point x="89.3333" y="615.184"/>
    </contour>
    <contour>
      <point x="-82.6667" y="-167.667" type="curve" smooth="yes"/>
      <point x="-82.6667" y="-133.667"/>
      <point x="-59.3333" y="-114.333"/>
      <point x="-32.6667" y="-106.667" type="curve"/>
      <point x="64.6667" y="-184.333" type="line"/>
      <point x="102" y="-151"/>
      <point x="106" y="-65.6667"/>
      <point x="106" y="-15.6667" type="curve" smooth="yes"/>
      <point x="106" y="418.333" type="line"/>
      <point x="35" y="418.333" type="line"/>
      <point x="35" y="454" type="line"/>
      <point x="168" y="496" type="line"/>
      <point x="212.333" y="496" type="line"/>
      <point x="212.333" y="58.3333" type="line" smooth="yes"/>
      <point x="212.333" y="-98.9109"/>
      <point x="156.171" y="-229.667"/>
      <point x="1.33333" y="-229.667" type="curve" smooth="yes"/>
      <point x="-44" y="-229.667"/>
      <point x="-82.6667" y="-210.667"/>
    </contour>
  </outline>
</glyph>
<glyph name="s" format="2">
  <advance width="413"/>
  <unicode hex="0073"/>
  <outline>
    <contour>
      <point x="32.6667" y="12.3333" type="curve"/>
      <point x="32.6667" y="151.667" type="line"/>
      <point x="87.6667" y="151.667" type="line"/>
      <point x="99.6667" y="64.3333" type="line"/>
      <point x="118.667" y="51"/>
      <point x="157" y="35.6667"/>
      <point x="190" y="35.6667" type="curve" smooth="yes"/>
      <point x="239.667" y="35.6667"/>
      <point x="278.667" y="64"/>
      <point x="278.667" y="109.667" type="curve" smooth="yes"/>
      <point x="278.667" y="153"/>
      <point x="245.372" y="174.376"/>
      <point x="195.667" y="197.667" type="curve" smooth="yes"/>
      <point x="129" y="229.333" type="line" smooth="yes"/>
      <point x="74.1419" y="255.01"/>
      <point x="39.3333" y="290.133"/>
      <point x="39.3333" y="346.667" type="curve" smooth="yes"/>
      <point x="39.3333" y="445.262"/>
      <point x="118.333" y="495.333"/>
      <point x="226.333" y="495.333" type="curve" smooth="yes"/>
      <point x="276.667" y="495.333"/>
      <point x="334" y="483.667"/>
      <point x="365.333" y="471.667" type="curve"/>
      <point x="365.333" y="347" type="line"/>
      <point x="310" y="347" type="line"/>
      <point x="301" y="420.333" type="line"/>
      <point x="286" y="433.333"/>
      <point x="254.667" y="446"/>
      <point x="224.333" y="446" type="curve" smooth="yes"/>
      <point x="188" y="446"/>
      <point x="144.667" y="428"/>
      <point x="144.667" y="379.667" type="curve" smooth="yes"/>
      <point x="144.667" y="340"/>
      <point x="171.576" y="319.389"/>
      <point x="217" y="297.333" type="curve" smooth="yes"/>
      <point x="277.667" y="268.667" type="line" smooth="yes"/>
      <point x="345.019" y="236.257"/>
      <point x="380" y="210.068"/>
      <point x="380" y="145.333" type="curve" smooth="yes"/>
      <point x="380" y="39.3885"/>
      <point x="299.333" y="-13.3333"/>
      <point x="184.667" y="-13.3333" type="curve" smooth="yes"/>
      <point x="116" y="-13.3333"/>
      <point x="58" y="3"/>
    </contour>
  </outline>
</glyph>
<glyph name="t" format="2">
  <advance width="351"/>
  <unicode hex="0074"/>
  <outline>
    <contour>
      <point x="26" y="429.333" type="line"/>
      <point x="26" y="464.667" type="line"/>
      <point x="97" y="501.333" type="line"/>
      <point x="145" y="607.333" type="line"/>
      <point x="197.333" y="607.333" type="line"/>
      <point x="197.333" y="484" type="line"/>
      <point x="337.667" y="484" type="line"/>
      <point x="337.667" y="429.333" type="line"/>
      <point x="197.333" y="429.333" type="line"/>
      <point x="197.333" y="152.667" type="line" smooth="yes"/>
      <point x="197.333" y="88"/>
      <point x="218.333" y="51"/>
      <point x="278" y="51" type="curve" smooth="yes"/>
      <point x="307.283" y="51"/>
      <point x="333.105" y="57.7579"/>
      <point x="345" y="64.6667" type="curve"/>
      <point x="345" y="21.3333" type="line"/>
      <point x="321" y="10"/>
      <point x="265.333" y="-12"/>
      <point x="202.333" y="-12" type="curve" smooth="yes"/>
      <point x="121.333" y="-12"/>
      <point x="90.6667" y="23.6667"/>
      <point x="90.6667" y="103.667" type="curve" smooth="yes"/>
      <point x="90.6667" y="429.333" type="line"/>
    </contour>
  </outline>
</glyph>
<glyph name="braceleft" format="2">
  <advance width="490"/>
  <unicode hex="007B"/>
  <outline>
    <contour>
      <point x="52.3333" y="266.667" type="line"/>
      <point x="52.3333" y="316.667" type="line"/>
      <point x="71.3333" y="316.667" type="line"/>
      <point x="162.053" y="318.551"/>
      <point x="194" y="353.655"/>
      <point x="194" y="450.667" type="curve" smooth="yes"/>
      <point x="194" y="519.333" type="line" smooth="yes"/>
      <point x="194" y="648.584"/>
      <point x="254.182" y="702.489"/>
      <point x="401" y="704.667" type="curve"/>
      <point x="419.333" y="704.667" type="line"/>
      <point x="419.333" y="659" type="line"/>
      <point x="401" y="659" type="line"/>
      <point x="323.876" y="655.975"/>
      <point x="296.292" y="617.316"/>
      <point x="295.333" y="512" type="curve"/>
      <point x="295.333" y="482.333" type="line" smooth="yes"/>
      <point x="295.333" y="362.443"/>
      <point x="247.265" y="304.499"/>
      <point x="152" y="289.333" type="curve"/>
      <point x="152" y="293.333" type="line"/>
      <point x="252.251" y="276.06"/>
      <point x="295.333" y="212.557"/>
      <point x="295.333" y="96.6667" type="curve" smooth="yes"/>
      <point x="295.333" y="58" type="line" smooth="yes"/>
      <point x="295.333" y="-35.4092"/>
      <point x="328.081" y="-77"/>
      <point x="401" y="-77" type="curve" smooth="yes"/>
      <point x="419.333" y="-77" type="line"/>
      <point x="419.333" y="-122.667" type="line"/>
      <point x="401" y="-122.667" type="line"/>
      <point x="253.719" y="-119.621"/>
      <point x="193.333" y="-65.1812"/>
      <point x="193.333" y="64" type="curve" smooth="yes"/>
      <point x="193.333" y="133.333" type="line" smooth="yes"/>
      <point x="193.333" y="229.323"/>
      <point x="161.182" y="264.627"/>
      <point x="71.3333" y="266.667" type="curve"/>
    </contour>
  </outline>
</glyph>
<glyph name="braceright" format="2">
  <advance width="490"/>
  <unicode hex="007D"/>
  <outline>
    <contour>
      <point x="70.3333" y="-122.667" type="line"/>
      <point x="70.3333" y="-77" type="line"/>
      <point x="88.6667" y="-77" type="line" smooth="yes"/>
      <point x="161.586" y="-77"/>
      <point x="194.333" y="-35.4093"/>
      <point x="194.333" y="58" type="curve" smooth="yes"/>
      <point x="194.333" y="96.6667" type="line" smooth="yes"/>
      <point x="194.333" y="212.557"/>
      <point x="237.416" y="276.06"/>
      <point x="337.667" y="293.333" type="curve"/>
      <point x="337.667" y="289.333" type="line"/>
      <point x="242.402" y="304.499"/>
      <point x="194.333" y="362.443"/>
      <point x="194.333" y="482.333" type="curve" smooth="yes"/>
      <point x="194.333" y="512" type="line"/>
      <point x="193.375" y="617.316"/>
      <point x="165.791" y="655.975"/>
      <point x="88.6667" y="659" type="curve"/>
      <point x="70.3333" y="659" type="line"/>
      <point x="70.3333" y="704.667" type="line"/>
      <point x="88.6667" y="704.667" type="line"/>
      <point x="235.485" y="702.489"/>
      <point x="295.667" y="648.584"/>
      <point x="295.667" y="519.333" type="curve" smooth="yes"/>
      <point x="295.667" y="450.667" type="line" smooth="yes"/>
      <point x="295.667" y="353.655"/>
      <point x="327.613" y="318.551"/>
      <point x="418.333" y="316.667" type="curve"/>
      <point x="437.333" y="316.667" type="line"/>
      <point x="437.333" y="266.667" type="line"/>
      <point x="418.333" y="266.667" type="line"/>
      <point x="328.485" y="264.627"/>
      <point x="296.333" y="229.323"/>
      <point x="296.333" y="133.333" type="curve" smooth="yes"/>
      <point x="296.333" y="64" type="line" smooth="yes"/>
      <point x="296.333" y="-65.1812"/>
      <point x="235.947" y="-119.621"/>
      <point x="88.6667" y="-122.667" type="curve"/>
    </contour>
  </outline>
</glyph>
<glyph name="cent" format="2">
  <advance width="570"/>
  <unicode hex="00A2"/>
  <outline>
    <contour>
      <point x="70.6667" y="251.333" type="curve" smooth="yes"/>
      <point x="70.6667" y="390.221"/>
      <point x="163.063" y="490.838"/>
      <point x="302.667" y="504.667" type="curve"/>
      <point x="302.667" y="607" type="line"/>
      <point x="353.667" y="607" type="line"/>
      <point x="353.667" y="506.667" type="line"/>
      <point x="397.215" y="506.667"/>
      <point x="442.372" y="497.806"/>
      <point x="495.667" y="480" type="curve"/>
      <point x="495.667" y="334" type="line"/>
      <point x="443" y="334" type="line"/>
      <point x="425" y="433.667" type="line"/>
      <point x="410.503" y="446.028"/>
      <point x="380.939" y="454.333"/>
      <point x="352.333" y="454.333" type="curve"/>
      <point x="352.333" y="50" type="line"/>
      <point x="394.583" y="50"/>
      <point x="413.162" y="57.1327"/>
      <point x="425" y="63.3333" type="curve"/>
      <point x="443" y="173.333" type="line"/>
      <point x="496.333" y="173.333" type="line"/>
      <point x="496.333" y="23" type="line"/>
      <point x="471.255" y="10.7694"/>
      <point x="402.587" y="-0.666667"/>
      <point x="353.667" y="-0.666667" type="curve"/>
      <point x="353.667" y="-101" type="line"/>
      <point x="302.667" y="-101" type="line"/>
      <point x="302.667" y="1" type="line"/>
      <point x="163.519" y="11.6325"/>
      <point x="70.6667" y="110.919"/>
    </contour>
    <contour>
      <point x="182" y="254" type="curve" smooth="yes"/>
      <point x="182" y="149.38"/>
      <point x="229.019" y="72.5642"/>
      <point x="304" y="54.6667" type="curve"/>
      <point x="304" y="453.667" type="line"/>
      <point x="232.11" y="448.667"/>
      <point x="182" y="366.855"/>
    </contour>
  </outline>
</glyph>
<glyph name="copyright" format="2">
  <advance width="836"/>
  <unicode hex="00A9"/>
  <outline>
    <contour>
      <point x="34" y="349.333" type="curve" smooth="yes"/>
      <point x="34" y="569.333"/>
      <point x="199.667" y="737"/>
      <point x="419.667" y="737" type="curve" smooth="yes"/>
      <point x="638.333" y="737"/>
      <point x="804.667" y="568.333"/>
      <point x="804.667" y="350" type="curve" smooth="yes"/>
      <point x="804.667" y="130.333"/>
      <point x="638" y="-37.6667"/>
      <point x="418.333" y="-37.6667" type="curve" smooth="yes"/>
      <point x="200.667" y="-37.6667"/>
      <point x="34" y="130.333"/>
    </contour>
    <contour>
      <point x="78.6667" y="349.333" type="curve" smooth="yes"/>
      <point x="78.6667" y="156"/>
      <point x="225.667" y="6"/>
      <point x="418.667" y="6" type="curve" smooth="yes"/>
      <point x="612" y="6"/>
      <point x="760" y="157"/>
      <point x="760" y="350" type="curve" smooth="yes"/>
      <point x="760" y="543.667"/>
      <point x="612.667" y="693.333"/>
      <point x="419.667" y="693.333" type="curve" smooth="yes"/>
      <point x="227.333" y="693.333"/>
      <point x="78.6667" y="545"/>
    </contour>
    <contour>
      <point x="192.667" y="350" type="curve" smooth="yes"/>
      <point x="192.667" y="491"/>
      <point x="291" y="585"/>
      <point x="439.667" y="585" type="curve" smooth="yes"/>
      <point x="505.667" y="585"/>
      <point x="552" y="568"/>
      <point x="580.667" y="559.333" type="curve"/>
      <point x="580.667" y="439.667" type="line"/>
      <point x="532" y="439.667" type="line"/>
      <point x="517.333" y="517" type="line"/>
      <point x="504.667" y="526"/>
      <point x="477" y="537"/>
      <point x="451" y="537" type="curve" smooth="yes"/>
      <point x="347" y="537"/>
      <point x="292.667" y="449.667"/>
      <point x="292.667" y="351.333" type="curve" smooth="yes"/>
      <point x="292.667" y="247.667"/>
      <point x="346.667" y="161.333"/>
      <point x="443.333" y="161.333" type="curve" smooth="yes"/>
      <point x="476.667" y="161.333"/>
      <point x="502" y="169.667"/>
      <point x="518.667" y="178.667" type="curve"/>
      <point x="532.667" y="264" type="line"/>
      <point x="580.667" y="264" type="line"/>
      <point x="580.667" y="138.333" type="line"/>
      <point x="554.1" y="130.159"/>
      <point x="502.199" y="114"/>
      <point x="437" y="114" type="curve" smooth="yes"/>
      <point x="292" y="114"/>
      <point x="192.667" y="204.333"/>
    </contour>
  </outline>
</glyph>
<glyph name="macron" format="2">
  <advance width="336"/>
  <unicode hex="00AF"/>
  <outline>
    <contour>
      <point x="0" y="586" type="line"/>
      <point x="0" y="655" type="line"/>
      <point x="336.667" y="655" type="line"/>
      <point x="336.667" y="586" type="line"/>
    </contour>
  </outline>
</glyph>
<glyph name="questiondown" format="2">
  <advance width="497"/>
  <unicode hex="00BF"/>
  <outline>
    <contour>
      <point x="66.6667" y="-19.6667" type="curve" smooth="yes"/>
      <point x="66.6667" y="121.445"/>
      <point x="207.191" y="170.495"/>
      <point x="265.667" y="196.333" type="curve"/>
      <point x="265.667" y="299.333" type="line"/>
      <point x="325.667" y="299.333" type="line"/>
      <point x="325.667" y="158.333" type="line"/>
      <point x="277.67" y="141.493"/>
      <point x="181.333" y="94.8375"/>
      <point x="181.333" y="-15.6667" type="curve" smooth="yes"/>
      <point x="181.333" y="-101.667"/>
      <point x="229.667" y="-149.333"/>
      <point x="320.333" y="-149.333" type="curve"/>
      <point x="362.333" y="-43" type="line"/>
      <point x="367.765" y="-40.6078"/>
      <point x="376.467" y="-38.6667"/>
      <point x="385.333" y="-38.6667" type="curve" smooth="yes"/>
      <point x="423.497" y="-38.6667"/>
      <point x="448.667" y="-57.6667"/>
      <point x="448.667" y="-96.6667" type="curve" smooth="yes"/>
      <point x="448.667" y="-174.364"/>
      <point x="359.676" y="-202.333"/>
      <point x="281" y="-202.333" type="curve" smooth="yes"/>
      <point x="160.307" y="-202.333"/>
      <point x="66.6667" y="-135.373"/>
    </contour>
    <contour>
      <point x="225.667" y="431" type="curve" smooth="yes"/>
      <point x="225.667" y="469.667"/>
      <point x="255.667" y="497.333"/>
      <point x="294.333" y="497.333" type="curve" smooth="yes"/>
      <point x="332" y="497.333"/>
      <point x="360.333" y="466.667"/>
      <point x="360.333" y="429" type="curve" smooth="yes"/>
      <point x="360.333" y="391"/>
      <point x="331.667" y="361.667"/>
      <point x="294" y="361.667" type="curve" smooth="yes"/>
      <point x="254" y="361.667"/>
      <point x="225.667" y="392"/>
    </contour>
  </outline>
</glyph>
<glyph name="Igrave" format="2">
  <advance width="339"/>
  <unicode hex="00CC"/>
  <outline>
    <contour>
      <point x="-40.6667" y="881" type="curve" smooth="yes"/>
      <point x="-40.6667" y="907.667"/>
      <point x="-24" y="928.667"/>
      <point x="9" y="928.667" type="curve" smooth="yes"/>
      <point x="38" y="928.667"/>
      <point x="49" y="919"/>
      <point x="66" y="900" type="curve" smooth="yes"/>
      <point x="200.333" y="746.333" type="line"/>
      <point x="139" y="746.333" type="line"/>
      <point x="-16.3333" y="840.333" type="line"/>
      <point x="-29.6667" y="849"/>
      <point x="-40.6667" y="862.667"/>
    </contour>
    <contour>
      <point x="29.6667" y="0" type="line"/>
      <point x="29.6667" y="45.6667" type="line"/>
      <point x="90.3333" y="50" type="line" smooth="yes"/>
      <point x="102.333" y="51"/>
      <point x="111.667" y="59.6667"/>
      <point x="111.667" y="72" type="curve" smooth="yes"/>
      <point x="111.667" y="599" type="line" smooth="yes"/>
      <point x="111.667" y="611.333"/>
      <point x="102.333" y="619.333"/>
      <point x="90.3333" y="620.333" type="curve" smooth="yes"/>
      <point x="29.6667" y="624.667" type="line"/>
      <point x="29.6667" y="671" type="line"/>
      <point x="309.667" y="671" type="line"/>
      <point x="309.667" y="624.667" type="line"/>
      <point x="248.333" y="620.333" type="line" smooth="yes"/>
      <point x="237.333" y="619.333"/>
      <point x="226.667" y="610.667"/>
      <point x="226.667" y="599" type="curve" smooth="yes"/>
      <point x="226.667" y="72" type="line" smooth="yes"/>
      <point x="226.667" y="60.3333"/>
      <point x="237.333" y="51"/>
      <point x="248.333" y="50" type="curve" smooth="yes"/>
      <point x="309.667" y="45.6667" type="line"/>
      <point x="309.667" y="0" type="line"/>
    </contour>
  </outline>
</glyph>
<glyph name="egrave" format="2">
  <advance width="503"/>
  <unicode hex="00E8"/>
  <outline>
    <contour>
      <point x="33.3333" y="236" type="curve" smooth="yes"/>
      <point x="33.3333" y="387"/>
      <point x="124" y="496.667"/>
      <point x="274" y="496.667" type="curve" smooth="yes"/>
      <point x="409" y="496.667"/>
      <point x="470" y="404.667"/>
      <point x="470" y="283.333" type="curve" smooth="yes"/>
      <point x="470" y="256.667" type="line"/>
      <point x="144" y="256.667" type="line"/>
      <point x="144" y="139"/>
      <point x="194" y="55.6667"/>
      <point x="306" y="55.6667" type="curve" smooth="yes"/>
      <point x="381" y="55.6667"/>
      <point x="436.667" y="94.3333"/>
      <point x="469.333" y="115.667" type="curve"/>
      <point x="469.333" y="48.3333" type="line"/>
      <point x="435.333" y="27.6667"/>
      <point x="367.333" y="-12.6667"/>
      <point x="272.333" y="-12.6667" type="curve" smooth="yes"/>
      <point x="118.333" y="-12.6667"/>
      <point x="33.3333" y="91.6667"/>
    </contour>
    <contour>
      <point x="90.3333" y="691.333" type="curve" smooth="yes"/>
      <point x="90.3333" y="718"/>
      <point x="107" y="739"/>
      <point x="140" y="739" type="curve" smooth="yes"/>
      <point x="169" y="739"/>
      <point x="180" y="729.333"/>
      <point x="197" y="710.333" type="curve" smooth="yes"/>
      <point x="331.333" y="556.667" type="line"/>
      <point x="270" y="556.667" type="line"/>
      <point x="114.667" y="650.667" type="line"/>
      <point x="101.333" y="659.333"/>
      <point x="90.3333" y="673"/>
    </contour>
    <contour>
      <point x="148.333" y="304.667" type="curve"/>
      <point x="355" y="304.667" type="line"/>
      <point x="355" y="326.667" type="line" smooth="yes"/>
      <point x="355" y="393.333"/>
      <point x="327.333" y="443.667"/>
      <point x="263" y="443.667" type="curve" smooth="yes"/>
      <point x="185.667" y="443.667"/>
      <point x="151.667" y="376.333"/>
    </contour>
  </outline>
</glyph>
<glyph name="iacute" format="2">
  <advance width="313"/>
  <unicode hex="00ED"/>
  <outline>
    <contour>
      <point x="33.3333" y="0" type="line"/>
      <point x="33.3333" y="41.6667" type="line"/>
      <point x="81.3333" y="44.6667" type="line" smooth="yes"/>
      <point x="92.6667" y="45.6667"/>
      <point x="102.667" y="54.3333"/>
      <point x="102.667" y="66.3333" type="curve" smooth="yes"/>
      <point x="102.667" y="410.333" type="line"/>
      <point x="35.3333" y="410.333" type="line"/>
      <point x="35.3333" y="446" type="line"/>
      <point x="165.333" y="488" type="line"/>
      <point x="209" y="488" type="line"/>
      <point x="209" y="66.3333" type="line" smooth="yes"/>
      <point x="209" y="54.3333"/>
      <point x="219.333" y="45.6667"/>
      <point x="230.667" y="44.6667" type="curve"/>
      <point x="280.667" y="41.6667" type="line"/>
      <point x="280.667" y="0" type="line"/>
    </contour>
    <contour>
      <point x="45" y="556.667" type="line"/>
      <point x="178.667" y="710.333" type="line" smooth="yes"/>
      <point x="194.333" y="728.667"/>
      <point x="207.333" y="739"/>
      <point x="235" y="739" type="curve" smooth="yes"/>
      <point x="269.105" y="739"/>
      <point x="285.667" y="718.392"/>
      <point x="285.667" y="691.333" type="curve" smooth="yes"/>
      <point x="285.667" y="674.333"/>
      <point x="273.675" y="657.987"/>
      <point x="261.667" y="650.667" type="curve" smooth="yes"/>
      <point x="105.667" y="556.667" type="line"/>
    </contour>
  </outline>
</glyph>
<glyph name="idieresis" format="2">
  <advance width="313"/>
  <unicode hex="00EF"/>
  <outline>
    <contour>
      <point x="-7.83333" y="616.333" type="curve" smooth="yes"/>
      <point x="-7.83333" y="649.667"/>
      <point x="18.5" y="676.667"/>
      <point x="51.8333" y="676.667" type="curve" smooth="yes"/>
      <point x="85.1667" y="676.667"/>
      <point x="110.833" y="649.667"/>
      <point x="110.833" y="617" type="curve" smooth="yes"/>
      <point x="110.833" y="583.667"/>
      <point x="85.1667" y="556.667"/>
      <point x="51.8333" y="556.667" type="curve" smooth="yes"/>
      <point x="18.5" y="556.667"/>
      <point x="-7.83333" y="583"/>
    </contour>
    <contour>
      <point x="200.167" y="617" type="curve" smooth="yes"/>
      <point x="200.167" y="649.667"/>
      <point x="227.833" y="676.667"/>
      <point x="260.5" y="676.667" type="curve" smooth="yes"/>
      <point x="293.167" y="676.667"/>
      <point x="318.833" y="650.333"/>
      <point x="318.833" y="617" type="curve" smooth="yes"/>
      <point x="318.833" y="583.667"/>
      <point x="293.833" y="556.667"/>
      <point x="260.5" y="556.667" type="curve" smooth="yes"/>
      <point x="226.5" y="556.667"/>
      <point x="200.167" y="583"/>
    </contour>
    <contour>
      <point x="33.3333" y="0" type="line"/>
      <point x="33.3333" y="41.6667" type="line"/>
      <point x="81.3333" y="44.6667" type="line" smooth="yes"/>
      <point x="92.6799" y="45.4498"/>
      <point x="102.667" y="54.3333"/>
      <point x="102.667" y="66.3333" type="curve" smooth="yes"/>
      <point x="102.667" y="410.333" type="line"/>
      <point x="35.3333" y="410.333" type="line"/>
      <point x="35.3333" y="446" type="line"/>
      <point x="165.333" y="488" type="line"/>
      <point x="209" y="488" type="line"/>
      <point x="209" y="66.3333" type="line" smooth="yes"/>
      <point x="209" y="54.3333"/>
      <point x="219.319" y="45.4322"/>
      <point x="230.667" y="44.6667" type="curve" smooth="yes"/>
      <point x="280.667" y="41.6667" type="line"/>
      <point x="280.667" y="0" type="line"/>
    </contour>
  </outline>
</glyph>
<glyph name="ograve" format="2">
  <advance width="556"/>
  <unicode hex="00F2"/>
  <outline>
    <contour>
      <point x="32.6667" y="240.667" type="curve" smooth="yes"/>
      <point x="32.6667" y="389.333"/>
      <point x="135" y="496.667"/>
      <point x="280" y="496.667" type="curve" smooth="yes"/>
      <point x="428.333" y="496.667"/>
      <point x="523.333" y="385"/>
      <point x="523.333" y="240.333" type="curve" smooth="yes"/>
      <point x="523.333" y="97.3333"/>
      <point x="424.333" y="-12.6667"/>
      <point x="275.667" y="-12.6667" type="curve" smooth="yes"/>
      <point x="131.667" y="-12.6667"/>
      <point x="32.6667" y="94.6667"/>
    </contour>
    <contour>
      <point x="126.333" y="691.333" type="curve" smooth="yes"/>
      <point x="126.333" y="718"/>
      <point x="143" y="739"/>
      <point x="176" y="739" type="curve" smooth="yes"/>
      <point x="205" y="739"/>
      <point x="216" y="729.333"/>
      <point x="233" y="710.333" type="curve" smooth="yes"/>
      <point x="367.333" y="556.667" type="line"/>
      <point x="306" y="556.667" type="line"/>
      <point x="150.667" y="650.667" type="line"/>
      <point x="137.333" y="659.333"/>
      <point x="126.333" y="673"/>
    </contour>
    <contour>
      <point x="152" y="242" type="curve" smooth="yes"/>
      <point x="152" y="153.333"/>
      <point x="180.667" y="37.6667"/>
      <point x="278.333" y="37.6667" type="curve" smooth="yes"/>
      <point x="375.333" y="37.6667"/>
      <point x="404.667" y="151"/>
      <point x="404.667" y="240.667" type="curve" smooth="yes"/>
      <point x="404.667" y="329"/>
      <point x="376" y="447.667"/>
      <point x="278.667" y="447.667" type="curve" smooth="yes"/>
      <point x="182" y="447.667"/>
      <point x="152" y="330.667"/>
    </contour>
  </outline>
</glyph>
<glyph name="divide" format="2">
  <advance width="1000"/>
  <unicode hex="00F7"/>
  <outline>
    <contour>
      <point x="200" y="269" type="line"/>
      <point x="200" y="331" type="line"/>
      <point x="800" y="331" type="line"/>
      <point x="800" y="269" type="line"/>
    </contour>
    <contour>
      <point x="440" y="139" type="curve" smooth="yes"/>
      <point x="440" y="173.667"/>
      <point x="465.667" y="199"/>
      <point x="500" y="199" type="curve" smooth="yes"/>
      <point x="534.333" y="199"/>
      <point x="560" y="173.667"/>
      <point x="560" y="139" type="curve" smooth="yes"/>
      <point x="560" y="104.667"/>
      <point x="533.667" y="80"/>
      <point x="500" y="80" type="curve" smooth="yes"/>
      <point x="465.667" y="80"/>
      <point x="440" y="104.667"/>
    </contour>
    <contour>
      <point x="440" y="461" type="curve" smooth="yes"/>
      <point x="440" y="494.667"/>
      <point x="465.667" y="521"/>
      <point x="500" y="521" type="curve" smooth="yes"/>
      <point x="533.667" y="521"/>
      <point x="560" y="494.667"/>
      <point x="560" y="461" type="curve" smooth="yes"/>
      <point x="560" y="426.333"/>
      <point x="534.333" y="401"/>
      <point x="500" y="401" type="curve" smooth="yes"/>
      <point x="465.667" y="401"/>
      <point x="440" y="426.333"/>
    </contour>
  </outline>
</glyph>
<glyph name="Abreve" format="2">
  <advance width="677"/>
  <unicode hex="0102"/>
  <outline>
    <contour>
      <point x="5" y="0" type="line"/>
      <point x="5" y="45.6667" type="line"/>
      <point x="62.3333" y="57" type="line"/>
      <point x="292.333" y="687.667" type="line"/>
      <point x="380.333" y="687.667" type="line"/>
      <point x="609" y="73" type="line" smooth="yes"/>
      <point x="614.154" y="59.7246"/>
      <point x="617.036" y="55.8679"/>
      <point x="630.333" y="53.3333" type="curve" smooth="yes"/>
      <point x="673" y="45.6667" type="line"/>
      <point x="673" y="0" type="line"/>
      <point x="422.333" y="0" type="line"/>
      <point x="422.333" y="45.6667" type="line"/>
      <point x="480.667" y="52" type="line" smooth="yes"/>
      <point x="487.475" y="52.8653"/>
      <point x="491.333" y="57.7617"/>
      <point x="491.333" y="64.3333" type="curve"/>
      <point x="491.333" y="65.778"/>
      <point x="490.931" y="67.9661"/>
      <point x="490.333" y="69" type="curve"/>
      <point x="426.333" y="244" type="line"/>
      <point x="201" y="244" type="line"/>
      <point x="138.667" y="72.3333" type="line"/>
      <point x="138.087" y="71.3281"/>
      <point x="137.667" y="68.6667"/>
      <point x="137.667" y="67" type="curve"/>
      <point x="137.667" y="58.2943"/>
      <point x="144.673" y="52.9427"/>
      <point x="152.667" y="52" type="curve" smooth="yes"/>
      <point x="210.667" y="45.6667" type="line"/>
      <point x="210.667" y="0" type="line"/>
    </contour>
    <contour>
      <point x="184.667" y="901.333" type="curve"/>
      <point x="228" y="901.333" type="line"/>
      <point x="238.458" y="850.684"/>
      <point x="279.345" y="820"/>
      <point x="336.667" y="820" type="curve" smooth="yes"/>
      <point x="393.695" y="820"/>
      <point x="433.593" y="849.988"/>
      <point x="444" y="901.333" type="curve"/>
      <point x="488" y="901.333" type="line"/>
      <point x="488" y="809.198"/>
      <point x="427.197" y="747.667"/>
      <point x="336" y="747.667" type="curve" smooth="yes"/>
      <point x="244.667" y="747.667"/>
      <point x="184.667" y="808.667"/>
    </contour>
    <contour>
      <point x="219.333" y="295" type="line"/>
      <point x="406" y="295" type="line"/>
      <point x="312" y="549.667" type="line"/>
    </contour>
  </outline>
</glyph>
<glyph name="Cacute" format="2">
  <advance width="629"/>
  <unicode hex="0106"/>
  <outline>
    <contour>
      <point x="38.3333" y="336" type="curve" smooth="yes"/>
      <point x="38.3333" y="545.202"/>
      <point x="180.201" y="687"/>
      <point x="389" y="687" type="curve" smooth="yes"/>
      <point x="452.217" y="687"/>
      <point x="503.755" y="676.876"/>
      <point x="594.667" y="646.333" type="curve"/>
      <point x="594.667" y="485" type="line"/>
      <point x="528.667" y="485" type="line"/>
      <point x="511.333" y="583" type="line" smooth="yes"/>
      <point x="507.399" y="608.139"/>
      <point x="460.933" y="627"/>
      <point x="403.333" y="627" type="curve" smooth="yes"/>
      <point x="257.975" y="627"/>
      <point x="168.667" y="516.022"/>
      <point x="168.667" y="336" type="curve" smooth="yes"/>
      <point x="168.667" y="152.703"/>
      <point x="261.065" y="41.6667"/>
      <point x="413.333" y="41.6667" type="curve" smooth="yes"/>
      <point x="464.865" y="41.6667"/>
      <point x="500.244" y="55.4011"/>
      <point x="504.333" y="77" type="curve" smooth="yes"/>
      <point x="527" y="189" type="line"/>
      <point x="592" y="189" type="line"/>
      <point x="592" y="22.6667" type="line"/>
      <point x="543.495" y="-0.516927"/>
      <point x="460.402" y="-16.6667"/>
      <point x="388" y="-16.6667" type="curve" smooth="yes"/>
      <point x="175.179" y="-16.6667"/>
      <point x="38.3333" y="121.19"/>
    </contour>
    <contour>
      <point x="318.667" y="747" type="line"/>
      <point x="452.333" y="900.667" type="line" smooth="yes"/>
      <point x="468" y="919"/>
      <point x="481" y="929.333"/>
      <point x="508.667" y="929.333" type="curve" smooth="yes"/>
      <point x="542.772" y="929.333"/>
      <point x="559.333" y="908.725"/>
      <point x="559.333" y="881.667" type="curve" smooth="yes"/>
      <point x="559.333" y="864.667"/>
      <point x="547.341" y="848.321"/>
      <point x="535.333" y="841" type="curve" smooth="yes"/>
      <point x="379.333" y="747" type="line"/>
    </contour>
  </outline>
</glyph>
<glyph name="gbreve" format="2">
  <advance width="534"/>
  <unicode hex="011F"/>
  <outline>
    <contour>
      <point x="31.3333" y="-86" type="curve" smooth="yes"/>
      <point x="31.3333" y="-10.6667"/>
      <point x="83.3333" y="26.3333"/>
      <point x="136.667" y="33" type="curve"/>
      <point x="124.333" y="49"/>
      <point x="117.667" y="65"/>
      <point x="117.667" y="84.6667" type="curve" smooth="yes"/>
      <point x="117.667" y="118.667"/>
      <point x="144.333" y="151"/>
      <point x="176.333" y="171" type="curve"/>
      <point x="120" y="184.333"/>
      <point x="53.3333" y="231.667"/>
      <point x="53.3333" y="322.333" type="curve" smooth="yes"/>
      <point x="53.3333" y="437.667"/>
      <point x="141" y="494"/>
      <point x="253.667" y="494" type="curve" smooth="yes"/>
      <point x="308.667" y="494"/>
      <point x="355" y="480"/>
      <point x="385.333" y="463.667" type="curve"/>
      <point x="518.667" y="463.667" type="line"/>
      <point x="518.667" y="411.333" type="line"/>
      <point x="422.667" y="411.333" type="line"/>
      <point x="434" y="393.333"/>
      <point x="447.333" y="365.667"/>
      <point x="447.333" y="326" type="curve" smooth="yes"/>
      <point x="447.333" y="213"/>
      <point x="349.667" y="161"/>
      <point x="255.333" y="161" type="curve" smooth="yes"/>
      <point x="247.667" y="161"/>
      <point x="236.333" y="161.667"/>
      <point x="229" y="162.667" type="curve"/>
      <point x="214.333" y="154"/>
      <point x="203.333" y="139"/>
      <point x="203.333" y="123.333" type="curve" smooth="yes"/>
      <point x="203.333" y="115.333"/>
      <point x="205" y="107.667"/>
      <point x="209.333" y="99.3333" type="curve"/>
      <point x="353.667" y="88.6667"/>
      <point x="491.333" y="64"/>
      <point x="491.333" y="-43.3333" type="curve" smooth="yes"/>
      <point x="491.333" y="-162"/>
      <point x="354.333" y="-232.333"/>
      <point x="228" y="-232.333" type="curve" smooth="yes"/>
      <point x="126.333" y="-232.333"/>
      <point x="31.3333" y="-187"/>
    </contour>
    <contour>
      <point x="96.3333" y="710.333" type="curve"/>
      <point x="139.667" y="710.333" type="line"/>
      <point x="150.125" y="659.684"/>
      <point x="191.012" y="629"/>
      <point x="248.333" y="629" type="curve" smooth="yes"/>
      <point x="305.362" y="629"/>
      <point x="345.259" y="658.988"/>
      <point x="355.667" y="710.333" type="curve"/>
      <point x="400.333" y="710.333" type="line"/>
      <point x="400.333" y="618.198"/>
      <point x="338.863" y="556.667"/>
      <point x="247.667" y="556.667" type="curve" smooth="yes"/>
      <point x="156.333" y="556.667"/>
      <point x="96.3333" y="617.667"/>
    </contour>
    <contour>
      <point x="136.667" y="-67.3333" type="curve" smooth="yes"/>
      <point x="136.667" y="-135"/>
      <point x="195" y="-182.667"/>
      <point x="260.667" y="-182.667" type="curve" smooth="yes"/>
      <point x="331.667" y="-182.667"/>
      <point x="393" y="-138.667"/>
      <point x="393" y="-69" type="curve" smooth="yes"/>
      <point x="393" y="11"/>
      <point x="250.667" y="21"/>
      <point x="197.667" y="21.6667" type="curve"/>
      <point x="165.667" y="5"/>
      <point x="136.667" y="-19.3333"/>
    </contour>
    <contour>
      <point x="163.333" y="329.667" type="curve" smooth="yes"/>
      <point x="163.333" y="266.667"/>
      <point x="192" y="209"/>
      <point x="253" y="209" type="curve" smooth="yes"/>
      <point x="313.667" y="209"/>
      <point x="340.667" y="268.333"/>
      <point x="340.667" y="331.333" type="curve" smooth="yes"/>
      <point x="340.667" y="391.667"/>
      <point x="312.333" y="451"/>
      <point x="254.333" y="451" type="curve" smooth="yes"/>
      <point x="189.667" y="451"/>
      <point x="163.333" y="394.667"/>
    </contour>
  </outline>
</glyph>
<glyph name="Itilde" format="2">
  <advance width="339"/>
  <unicode hex="0128"/>
  <outline>
    <contour>
      <point x="-4" y="746.333" type="line"/>
      <point x="11.6667" y="806"/>
      <point x="43.6667" y="861"/>
      <point x="112.667" y="861" type="curve" smooth="yes"/>
      <point x="139.333" y="861"/>
      <point x="157" y="850"/>
      <point x="175.333" y="838.667" type="curve" smooth="yes"/>
      <point x="195.667" y="825.667"/>
      <point x="216.667" y="813.333"/>
      <point x="248.667" y="813.333" type="curve" smooth="yes"/>
      <point x="274.333" y="813.333"/>
      <point x="295.667" y="835"/>
      <point x="298.667" y="861" type="curve"/>
      <point x="343.333" y="861" type="line"/>
      <point x="327.667" y="801.333"/>
      <point x="296" y="746.333"/>
      <point x="226.667" y="746.333" type="curve" smooth="yes"/>
      <point x="200.333" y="746.333"/>
      <point x="181.333" y="757.333"/>
      <point x="162.667" y="769.333" type="curve" smooth="yes"/>
      <point x="142.667" y="781.667"/>
      <point x="120.667" y="794.333"/>
      <point x="90" y="794.333" type="curve" smooth="yes"/>
      <point x="64" y="794.333"/>
      <point x="43.6667" y="772"/>
      <point x="40.6667" y="746.333" type="curve"/>
    </contour>
    <contour>
      <point x="29.6667" y="0" type="line"/>
      <point x="29.6667" y="45.6667" type="line"/>
      <point x="90.3333" y="50" type="line" smooth="yes"/>
      <point x="102.333" y="51"/>
      <point x="111.667" y="59.6667"/>
      <point x="111.667" y="72" type="curve" smooth="yes"/>
      <point x="111.667" y="599" type="line" smooth="yes"/>
      <point x="111.667" y="611.333"/>
      <point x="102.333" y="619.333"/>
      <point x="90.3333" y="620.333" type="curve" smooth="yes"/>
      <point x="29.6667" y="624.667" type="line"/>
      <point x="29.6667" y="671" type="line"/>
      <point x="309.667" y="671" type="line"/>
      <point x="309.667" y="624.667" type="line"/>
      <point x="248.333" y="620.333" type="line" smooth="yes"/>
      <point x="237.333" y="619.333"/>
      <point x="226.667" y="610.667"/>
      <point x="226.667" y="599" type="curve" smooth="yes"/>
      <point x="226.667" y="72" type="line" smooth="yes"/>
      <point x="226.667" y="60.3333"/>
      <point x="237.333" y="51"/>
      <point x="248.333" y="50" type="curve" smooth="yes"/>
      <point x="309.667" y="45.6667" type="line"/>
      <point x="309.667" y="0" type="line"/>
    </contour>
  </outline>
</glyph>
<glyph name="ibreve" format="2">
  <advance width="313"/>
  <unicode hex="012D"/>
  <outline>
    <contour>
      <point x="3.66667" y="710.333" type="curve"/>
      <point x="47" y="710.333" type="line"/>
      <point x="57.4577" y="659.684"/>
      <point x="98.3451" y="629"/>
      <point x="155.667" y="629" type="curve" smooth="yes"/>
      <point x="212.695" y="629"/>
      <point x="252.593" y="658.988"/>
      <point x="263" y="710.333" type="curve"/>
      <point x="307" y="710.333" type="line"/>
      <point x="307" y="618.198"/>
      <point x="246.197" y="556.667"/>
      <point x="155" y="556.667" type="curve" smooth="yes"/>
      <point x="63.6667" y="556.667"/>
      <point x="3.66667" y="617.667"/>
    </contour>
    <contour>
      <point x="33.3333" y="0" type="line"/>
      <point x="33.3333" y="41.6667" type="line"/>
      <point x="81.3333" y="44.6667" type="line" smooth="yes"/>
      <point x="92.6667" y="45.6667"/>
      <point x="102.667" y="54.3333"/>
      <point x="102.667" y="66.3333" type="curve" smooth="yes"/>
      <point x="102.667" y="410.333" type="line"/>
      <point x="35.3333" y="410.333" type="line"/>
      <point x="35.3333" y="446" type="line"/>
      <point x="165.333" y="488" type="line"/>
      <point x="209" y="488" type="line"/>
      <point x="209" y="66.3333" type="line" smooth="yes"/>
      <point x="209" y="54.3333"/>
      <point x="219.333" y="45.6667"/>
      <point x="230.667" y="44.6667" type="curve"/>
      <point x="280.667" y="41.6667" type="line"/>
      <point x="280.667" y="0" type="line"/>
    </contour>
  </outline>
</glyph>
<glyph name="dotlessi" format="2">
  <advance width="313"/>
  <unicode hex="0131"/>
  <outline>
    <contour>
      <point x="33.3333" y="0" type="line"/>
      <point x="33.3333" y="41.6667" type="line"/>
      <point x="81.3333" y="44.6667" type="line" smooth="yes"/>
      <point x="92.6667" y="45.6667"/>
      <point x="102.667" y="54.3333"/>
      <point x="102.667" y="66.3333" type="curve" smooth="yes"/>
      <point x="102.667" y="410.333" type="line"/>
      <point x="35.3333" y="410.333" type="line"/>
      <point x="35.3333" y="446" type="line"/>
      <point x="165.333" y="488" type="line"/>
      <point x="209" y="488" type="line"/>
      <point x="209" y="66.3333" type="line" smooth="yes"/>
      <point x="209" y="54.3333"/>
      <point x="219.333" y="45.6667"/>
      <point x="230.667" y="44.6667" type="curve"/>
      <point x="280.667" y="41.6667" type="line"/>
      <point x="280.667" y="0" type="line"/>
    </contour>
  </outline>
</glyph>
<glyph name="ij" format="2">
  <advance width="615"/>
  <unicode hex="0133"/>
  <outline>
    <contour>
      <point x="33.3333" y="0" type="line"/>
      <point x="33.3333" y="41.6667" type="line"/>
      <point x="81.3333" y="44.6667" type="line" smooth="yes"/>
      <point x="92.6667" y="45.6667"/>
      <point x="102.667" y="54.3333"/>
      <point x="102.667" y="66.3333" type="curve" smooth="yes"/>
      <point x="102.667" y="416.333" type="line"/>
      <point x="35.3333" y="416.333" type="line"/>
      <point x="35.3333" y="453.333" type="line"/>
      <point x="165.333" y="495.333" type="line"/>
      <point x="209" y="495.333" type="line"/>
      <point x="209" y="66.3333" type="line" smooth="yes"/>
      <point x="209" y="54.3333"/>
      <point x="219.333" y="45.6667"/>
      <point x="230.667" y="44.6667" type="curve"/>
      <point x="280.667" y="41.6667" type="line"/>
      <point x="280.667" y="0" type="line"/>
    </contour>
    <contour>
      <point x="94" y="652.333" type="curve" smooth="yes"/>
      <point x="94" y="690"/>
      <point x="123.333" y="718.667"/>
      <point x="161" y="718.667" type="curve" smooth="yes"/>
      <point x="198.667" y="718.667"/>
      <point x="227.667" y="690"/>
      <point x="227.667" y="652.333" type="curve" smooth="yes"/>
      <point x="227.667" y="614.667"/>
      <point x="198.667" y="585"/>
      <point x="161" y="585" type="curve" smooth="yes"/>
      <point x="123.333" y="585"/>
      <point x="94" y="614.667"/>
    </contour>
    <contour>
      <point x="230.333" y="-167.667" type="curve" smooth="yes"/>
      <point x="230.333" y="-133.667"/>
      <point x="253.667" y="-114.333"/>
      <point x="280.333" y="-106.667" type="curve"/>
      <point x="377.667" y="-184.333" type="line"/>
      <point x="415" y="-151"/>
      <point x="419" y="-65.6667"/>
      <point x="419" y="-15.6667" type="curve" smooth="yes"/>
      <point x="419" y="418.333" type="line"/>
      <point x="348" y="418.333" type="line"/>
      <point x="348" y="454" type="line"/>
      <point x="481" y="496" type="line"/>
      <point x="525.333" y="496" type="line"/>
      <point x="525.333" y="58.3333" type="line" smooth="yes"/>
      <point x="525.333" y="-98.9108"/>
      <point x="469.171" y="-229.667"/>
      <point x="314.333" y="-229.667" type="curve" smooth="yes"/>
      <point x="269" y="-229.667"/>
      <point x="230.333" y="-210.667"/>
    </contour>
    <contour>
      <point x="402.333" y="652.333" type="curve" smooth="yes"/>
      <point x="402.333" y="689.483"/>
      <point x="432.517" y="719.333"/>
      <point x="469.667" y="719.333" type="curve" smooth="yes"/>
      <point x="506.816" y="719.333"/>
      <point x="536.667" y="689.483"/>
      <point x="536.667" y="652.333" type="curve" smooth="yes"/>
      <point x="536.667" y="615.184"/>
      <point x="506.816" y="585"/>
      <point x="469.667" y="585" type="curve" smooth="yes"/>
      <point x="432.517" y="585"/>
      <point x="402.333" y="615.184"/>
    </contour>
  </outline>
</glyph>
<glyph name="Kcommaaccent" format="2">
  <advance width="653"/>
  <unicode hex="0136"/>
  <outline>
    <contour>
      <point x="31" y="0.666667" type="line"/>
      <point x="31" y="46.3333" type="line"/>
      <point x="84" y="50.6667" type="line" smooth="yes"/>
      <point x="96" y="51.6667"/>
      <point x="105.333" y="60.3333"/>
      <point x="105.333" y="72.6667" type="curve" smooth="yes"/>
      <point x="105.333" y="599.667" type="line" smooth="yes"/>
      <point x="105.333" y="612"/>
      <point x="96" y="620.667"/>
      <point x="84" y="621.667" type="curve" smooth="yes"/>
      <point x="31" y="626" type="line"/>
      <point x="31" y="671.667" type="line"/>
      <point x="298" y="671.667" type="line"/>
      <point x="298" y="626" type="line"/>
      <point x="242.333" y="621.667" type="line" smooth="yes"/>
      <point x="230.333" y="620.667"/>
      <point x="220.333" y="612"/>
      <point x="220.333" y="599.667" type="curve" smooth="yes"/>
      <point x="220.333" y="341" type="line"/>
      <point x="253.667" y="341" type="line"/>
      <point x="470.667" y="605.667" type="line"/>
      <point x="472.025" y="607.435"/>
      <point x="472.903" y="609.723"/>
      <point x="472.903" y="612" type="curve" smooth="yes"/>
      <point x="472.903" y="616.931"/>
      <point x="469.147" y="620.593"/>
      <point x="463.667" y="621" type="curve" smooth="yes"/>
      <point x="410.667" y="626" type="line"/>
      <point x="410.667" y="671.667" type="line"/>
      <point x="628.333" y="671.667" type="line"/>
      <point x="628.333" y="626" type="line"/>
      <point x="559.667" y="618" type="line"/>
      <point x="361.667" y="381.333" type="line"/>
      <point x="581" y="51" type="line"/>
      <point x="652.667" y="45.6667" type="line"/>
      <point x="652.667" y="0" type="line"/>
      <point x="463.667" y="0" type="line"/>
      <point x="463.667" y="33.6667" type="line"/>
      <point x="285.333" y="297" type="line"/>
      <point x="220.333" y="297" type="line"/>
      <point x="220.333" y="72.6667" type="line" smooth="yes"/>
      <point x="220.333" y="60.3333"/>
      <point x="230.333" y="51.6667"/>
      <point x="242.333" y="50.6667" type="curve" smooth="yes"/>
      <point x="298" y="46.3333" type="line"/>
      <point x="298" y="0.666667" type="line"/>
    </contour>
    <contour>
      <point x="271" y="-110.667" type="curve" smooth="yes"/>
      <point x="271" y="-78.3333"/>
      <point x="298.667" y="-60"/>
      <point x="330.333" y="-60" type="curve" smooth="yes"/>
      <point x="378" y="-60"/>
      <point x="406.333" y="-94.6667"/>
      <point x="406.333" y="-143" type="curve" smooth="yes"/>
      <point x="406.333" y="-216.11"/>
      <point x="346.054" y="-257.769"/>
      <point x="277" y="-270" type="curve"/>
      <point x="277" y="-236.667" type="line"/>
      <point x="320.667" y="-223.667"/>
      <point x="348.333" y="-200.667"/>
      <point x="348.333" y="-150" type="curve"/>
      <point x="287.667" y="-150" type="line"/>
      <point x="278" y="-140.667"/>
      <point x="271" y="-126.667"/>
    </contour>
  </outline>
</glyph>
<glyph name="lslash" format="2">
  <advance width="308"/>
  <unicode hex="0142"/>
  <outline>
    <contour>
      <point x="-8.33333" y="282" type="line"/>
      <point x="101.333" y="358.333" type="line"/>
      <point x="101.333" y="659" type="line"/>
      <point x="26.3333" y="659" type="line"/>
      <point x="26.3333" y="695.333" type="line"/>
      <point x="166.667" y="738" type="line"/>
      <point x="207" y="738" type="line"/>
      <point x="207" y="431.333" type="line"/>
      <point x="290.667" y="488.333" type="line"/>
      <point x="318.333" y="445.333" type="line"/>
      <point x="207" y="370" type="line"/>
      <point x="207" y="67" type="line" smooth="yes"/>
      <point x="207" y="54.6667"/>
      <point x="218.667" y="46.3333"/>
      <point x="230" y="45.3333" type="curve"/>
      <point x="281.333" y="42.3333" type="line"/>
      <point x="281.333" y="0.666667" type="line"/>
      <point x="27" y="0.666667" type="line"/>
      <point x="27" y="42.3333" type="line"/>
      <point x="80" y="45.3333" type="line"/>
      <point x="91.3333" y="46.3333"/>
      <point x="101.333" y="54.6667"/>
      <point x="101.333" y="67" type="curve" smooth="yes"/>
      <point x="101.333" y="297.333" type="line"/>
      <point x="17.6667" y="238.667" type="line"/>
    </contour>
  </outline>
</glyph>
<glyph name="Nacute" format="2">
  <advance width="729"/>
  <unicode hex="0143"/>
  <outline>
    <contour>
      <point x="26" y="625.333" type="line"/>
      <point x="26" y="671" type="line"/>
      <point x="240.333" y="671" type="line"/>
      <point x="240.333" y="645.333" type="line"/>
      <point x="558.333" y="159.667" type="line"/>
      <point x="558.333" y="599" type="line" smooth="yes"/>
      <point x="558.333" y="610.667"/>
      <point x="548" y="620"/>
      <point x="536.667" y="621" type="curve" smooth="yes"/>
      <point x="479.667" y="625.333" type="line"/>
      <point x="479.667" y="671" type="line"/>
      <point x="699.667" y="671" type="line"/>
      <point x="699.667" y="625.333" type="line"/>
      <point x="644.333" y="621" type="line" smooth="yes"/>
      <point x="632.667" y="620"/>
      <point x="623" y="611.333"/>
      <point x="623" y="599" type="curve" smooth="yes"/>
      <point x="623" y="0" type="line"/>
      <point x="530.333" y="0" type="line"/>
      <point x="170" y="549.667" type="line"/>
      <point x="170" y="72" type="line" smooth="yes"/>
      <point x="170" y="59.6667"/>
      <point x="179.667" y="51"/>
      <point x="191.333" y="50" type="curve" smooth="yes"/>
      <point x="248" y="45.6667" type="line"/>
      <point x="248" y="0" type="line"/>
      <point x="27" y="0" type="line"/>
      <point x="27" y="45.6667" type="line"/>
      <point x="83.3333" y="50" type="line" smooth="yes"/>
      <point x="95.3333" y="51"/>
      <point x="105.333" y="59.6667"/>
      <point x="105.333" y="72" type="curve" smooth="yes"/>
      <point x="105.333" y="599" type="line" smooth="yes"/>
      <point x="105.333" y="611.333"/>
      <point x="95.3333" y="620"/>
      <point x="83.3333" y="621" type="curve" smooth="yes"/>
    </contour>
    <contour>
      <point x="305.667" y="746.333" type="line"/>
      <point x="439.667" y="900" type="line" smooth="yes"/>
      <point x="455.333" y="918.333"/>
      <point x="468" y="928.667"/>
      <point x="495.667" y="928.667" type="curve" smooth="yes"/>
      <point x="529.772" y="928.667"/>
      <point x="546.333" y="908.059"/>
      <point x="546.333" y="881" type="curve" smooth="yes"/>
      <point x="546.333" y="864"/>
      <point x="534.341" y="847.654"/>
      <point x="522.333" y="840.333" type="curve" smooth="yes"/>
      <point x="366.333" y="746.333" type="line"/>
    </contour>
  </outline>
</glyph>
<glyph name="eng" format="2">
  <advance width="586"/>
  <unicode hex="014B"/>
  <outline>
    <contour>
      <point x="20.3333" y="410.667" type="line"/>
      <point x="20.3333" y="446.333" type="line"/>
      <point x="152.667" y="488.667" type="line"/>
      <point x="197.333" y="488.667" type="line"/>
      <point x="197.333" y="435" type="line"/>
      <point x="226.857" y="452.407"/>
      <point x="296.535" y="496"/>
      <point x="369.667" y="496" type="curve" smooth="yes"/>
      <point x="469.551" y="496"/>
      <point x="509.667" y="426.74"/>
      <point x="509.667" y="334.667" type="curve" smooth="yes"/>
      <point x="509.667" y="-15" type="line" smooth="yes"/>
      <point x="509.667" y="-143.643"/>
      <point x="428.158" y="-229.667"/>
      <point x="290" y="-229.667" type="curve" smooth="yes"/>
      <point x="245" y="-229.667"/>
      <point x="201.333" y="-206.667"/>
      <point x="201.333" y="-160.333" type="curve" smooth="yes"/>
      <point x="201.333" y="-128.552"/>
      <point x="223.667" y="-97.5553"/>
      <point x="252.333" y="-92.3333" type="curve"/>
      <point x="341" y="-181.667" type="line"/>
      <point x="382.392" y="-181.667"/>
      <point x="405.333" y="-120.941"/>
      <point x="405.333" y="-44.6667" type="curve" smooth="yes"/>
      <point x="405.333" y="318.667" type="line" smooth="yes"/>
      <point x="405.333" y="379.667"/>
      <point x="373.333" y="417.333"/>
      <point x="308" y="417.333" type="curve" smooth="yes"/>
      <point x="261.667" y="417.333"/>
      <point x="216.667" y="403.667"/>
      <point x="197.333" y="393.667" type="curve"/>
      <point x="197.333" y="67" type="line" smooth="yes"/>
      <point x="197.333" y="56.3333"/>
      <point x="209.659" y="46.2528"/>
      <point x="219.667" y="45.3333" type="curve" smooth="yes"/>
      <point x="257" y="41.6667" type="line"/>
      <point x="257" y="0.666667" type="line"/>
      <point x="24.6667" y="0.666667" type="line"/>
      <point x="24.6667" y="41.6667" type="line"/>
      <point x="68.6667" y="45.3333" type="line" smooth="yes"/>
      <point x="78.6805" y="46.1678"/>
      <point x="90.6667" y="56.3333"/>
      <point x="90.6667" y="67" type="curve" smooth="yes"/>
      <point x="90.6667" y="410.667" type="line"/>
    </contour>
  </outline>
</glyph>
<glyph name="obreve" format="2">
  <advance width="556"/>
  <unicode hex="014F"/>
  <outline>
    <contour>
      <point x="32.6667" y="240.667" type="curve" smooth="yes"/>
      <point x="32.6667" y="389.333"/>
      <point x="135" y="496.667"/>
      <point x="280" y="496.667" type="curve" smooth="yes"/>
      <point x="428.333" y="496.667"/>
      <point x="523.333" y="385"/>
      <point x="523.333" y="240.333" type="curve" smooth="yes"/>
      <point x="523.333" y="97.3333"/>
      <point x="424.333" y="-12.6667"/>
      <point x="275.667" y="-12.6667" type="curve" smooth="yes"/>
      <point x="131.667" y="-12.6667"/>
      <point x="32.6667" y="94.6667"/>
    </contour>
    <contour>
      <point x="128.333" y="710.333" type="curve"/>
      <point x="171.667" y="710.333" type="line"/>
      <point x="182.125" y="659.684"/>
      <point x="223.012" y="629"/>
      <point x="280.333" y="629" type="curve" smooth="yes"/>
      <point x="337.362" y="629"/>
      <point x="377.259" y="658.988"/>
      <point x="387.667" y="710.333" type="curve"/>
      <point x="431.667" y="710.333" type="line"/>
      <point x="431.667" y="618.198"/>
      <point x="370.863" y="556.667"/>
      <point x="279.667" y="556.667" type="curve" smooth="yes"/>
      <point x="188.333" y="556.667"/>
      <point x="128.333" y="617.667"/>
    </contour>
    <contour>
      <point x="152" y="242" type="curve" smooth="yes"/>
      <point x="152" y="153.333"/>
      <point x="180.667" y="37.6667"/>
      <point x="278.333" y="37.6667" type="curve" smooth="yes"/>
      <point x="375.333" y="37.6667"/>
      <point x="404.667" y="151"/>
      <point x="404.667" y="240.667" type="curve" smooth="yes"/>
      <point x="404.667" y="329"/>
      <point x="376" y="447.667"/>
      <point x="278.667" y="447.667" type="curve" smooth="yes"/>
      <point x="182" y="447.667"/>
      <point x="152" y="330.667"/>
    </contour>
  </outline>
</glyph>
<glyph name="ohungarumlaut" format="2">
  <advance width="556"/>
  <unicode hex="0151"/>
  <outline>
    <contour>
      <point x="32.6667" y="240.667" type="curve" smooth="yes"/>
      <point x="32.6667" y="389.333"/>
      <point x="135" y="496.667"/>
      <point x="280" y="496.667" type="curve" smooth="yes"/>
      <point x="428.333" y="496.667"/>
      <point x="523.333" y="385"/>
      <point x="523.333" y="240.333" type="curve" smooth="yes"/>
      <point x="523.333" y="97.3333"/>
      <point x="424.333" y="-12.6667"/>
      <point x="275.667" y="-12.6667" type="curve" smooth="yes"/>
      <point x="131.667" y="-12.6667"/>
      <point x="32.6667" y="94.6667"/>
    </contour>
    <contour>
      <point x="82" y="557.333" type="line"/>
      <point x="216" y="711" type="line" smooth="yes"/>
      <point x="231.333" y="728.667"/>
      <point x="244.333" y="739.667"/>
      <point x="272.667" y="739.667" type="curve" smooth="yes"/>
      <point x="306.333" y="739.667"/>
      <point x="322" y="718.667"/>
      <point x="322" y="691.333" type="curve" smooth="yes"/>
      <point x="322" y="673.667"/>
      <point x="311" y="659.333"/>
      <point x="297.333" y="651.333" type="curve" smooth="yes"/>
      <point x="143.333" y="557.333" type="line"/>
    </contour>
    <contour>
      <point x="152" y="242" type="curve" smooth="yes"/>
      <point x="152" y="153.333"/>
      <point x="180.667" y="37.6667"/>
      <point x="278.333" y="37.6667" type="curve" smooth="yes"/>
      <point x="375.333" y="37.6667"/>
      <point x="404.667" y="151"/>
      <point x="404.667" y="240.667" type="curve" smooth="yes"/>
      <point x="404.667" y="329"/>
      <point x="376" y="447.667"/>
      <point x="278.667" y="447.667" type="curve" smooth="yes"/>
      <point x="182" y="447.667"/>
      <point x="152" y="330.667"/>
    </contour>
    <contour>
      <point x="283.333" y="556.667" type="line"/>
      <point x="418.667" y="710.333" type="line" smooth="yes"/>
      <point x="435.333" y="729.333"/>
      <point x="447" y="739.667"/>
      <point x="474" y="739.667" type="curve" smooth="yes"/>
      <point x="507.667" y="739.667"/>
      <point x="524" y="718.667"/>
      <point x="524" y="692" type="curve" smooth="yes"/>
      <point x="524" y="674.333"/>
      <point x="513.667" y="658.667"/>
      <point x="500" y="650.667" type="curve" smooth="yes"/>
      <point x="344.667" y="556.667" type="line"/>
    </contour>
  </outline>
</glyph>
<glyph name="OE" format="2">
  <advance width="1003"/>
  <unicode hex="0152"/>
  <outline>
    <contour>
      <point x="39.6667" y="335" type="curve" smooth="yes"/>
      <point x="39.6667" y="514.357"/>
      <point x="118.611" y="684.667"/>
      <point x="340" y="684.667" type="curve" smooth="yes"/>
      <point x="439.667" y="684.667"/>
      <point x="497" y="635.667"/>
      <point x="527" y="605.333" type="curve"/>
      <point x="527" y="670.333" type="line"/>
      <point x="940" y="670.333" type="line"/>
      <point x="940" y="517.667" type="line"/>
      <point x="875.333" y="517.667" type="line"/>
      <point x="861" y="600" type="line" smooth="yes"/>
      <point x="859.25" y="609.257"/>
      <point x="853" y="619"/>
      <point x="843.333" y="619" type="curve" smooth="yes"/>
      <point x="638.667" y="619" type="line"/>
      <point x="638.667" y="374.667" type="line"/>
      <point x="775.333" y="374.667" type="line" smooth="yes"/>
      <point x="783.667" y="374.667"/>
      <point x="792.243" y="384.443"/>
      <point x="793" y="392" type="curve"/>
      <point x="802.333" y="460.667" type="line"/>
      <point x="857" y="460.667" type="line"/>
      <point x="857" y="233.667" type="line"/>
      <point x="802.667" y="233.667" type="line"/>
      <point x="793.667" y="301.667" type="line"/>
      <point x="792.875" y="309.983"/>
      <point x="783.333" y="319.667"/>
      <point x="775.667" y="319.667" type="curve" smooth="yes"/>
      <point x="639.333" y="319.667" type="line"/>
      <point x="639.333" y="51.3333" type="line"/>
      <point x="877.667" y="51.3333" type="line" smooth="yes"/>
      <point x="885.667" y="51.3333"/>
      <point x="894.536" y="63.3558"/>
      <point x="896" y="70.3333" type="curve"/>
      <point x="912.333" y="171" type="line"/>
      <point x="972.333" y="171" type="line"/>
      <point x="972.333" y="-1.33333" type="line"/>
      <point x="527" y="-1.33333" type="line"/>
      <point x="527" y="66" type="line"/>
      <point x="496.667" y="35.6667"/>
      <point x="435.667" y="-16"/>
      <point x="333.667" y="-16" type="curve" smooth="yes"/>
      <point x="133.905" y="-16"/>
      <point x="39.6667" y="141.843"/>
    </contour>
    <contour>
      <point x="168" y="336.333" type="curve" smooth="yes"/>
      <point x="168" y="191.929"/>
      <point x="202.339" y="45.3333"/>
      <point x="341.667" y="45.3333" type="curve" smooth="yes"/>
      <point x="478.899" y="45.3333"/>
      <point x="518.333" y="179.008"/>
      <point x="518.333" y="332" type="curve" smooth="yes"/>
      <point x="518.333" y="481.365"/>
      <point x="481.495" y="624.667"/>
      <point x="346" y="624.667" type="curve" smooth="yes"/>
      <point x="199" y="624.667"/>
      <point x="168" y="477.667"/>
    </contour>
  </outline>
</glyph>
<glyph name="uni0162" format="2">
  <advance width="602"/>
  <unicode hex="0162"/>
  <outline>
    <contour>
      <point x="16" y="503.333" type="line"/>
      <point x="16" y="671" type="line"/>
      <point x="586.333" y="671" type="line"/>
      <point x="586.333" y="503.333" type="line"/>
      <point x="522.667" y="503.333" type="line"/>
      <point x="507.333" y="603" type="line"/>
      <point x="506.333" y="612.333"/>
      <point x="500.667" y="618.333"/>
      <point x="491.333" y="618.333" type="curve" smooth="yes"/>
      <point x="358.667" y="618.333" type="line"/>
      <point x="358.667" y="72" type="line" smooth="yes"/>
      <point x="358.667" y="59.6667"/>
      <point x="368" y="51"/>
      <point x="380" y="50" type="curve" smooth="yes"/>
      <point x="442.333" y="45.6667" type="line"/>
      <point x="442.333" y="0" type="line"/>
      <point x="160" y="0" type="line"/>
      <point x="160" y="45.6667" type="line"/>
      <point x="222" y="50" type="line" smooth="yes"/>
      <point x="234" y="51"/>
      <point x="243.667" y="59.6667"/>
      <point x="243.667" y="72" type="curve" smooth="yes"/>
      <point x="243.667" y="618.333" type="line"/>
      <point x="110.333" y="618.333" type="line" smooth="yes"/>
      <point x="101" y="618.333"/>
      <point x="95" y="612.333"/>
      <point x="94" y="603" type="curve"/>
      <point x="78.6667" y="503.333" type="line"/>
    </contour>
    <contour>
      <point x="224.333" y="-213.778" type="curve"/>
      <point x="224.333" y="-171.111" type="line"/>
      <point x="236.333" y="-173.778"/>
      <point x="263.667" y="-179.111"/>
      <point x="285.667" y="-179.111" type="curve" smooth="yes"/>
      <point x="315.667" y="-179.111"/>
      <point x="348.333" y="-171.111"/>
      <point x="348.333" y="-140.445" type="curve" smooth="yes"/>
      <point x="348.333" y="-115.111"/>
      <point x="330.667" y="-104.445"/>
      <point x="309" y="-104.445" type="curve" smooth="yes"/>
      <point x="300" y="-104.445"/>
      <point x="286.333" y="-106.445"/>
      <point x="279.667" y="-109.111" type="curve"/>
      <point x="279.667" y="7.88866" type="line"/>
      <point x="323" y="7.88866" type="line"/>
      <point x="323" y="-58.1113" type="line"/>
      <point x="329.333" y="-55.778"/>
      <point x="334.333" y="-54.778"/>
      <point x="343" y="-54.778" type="curve" smooth="yes"/>
      <point x="389" y="-54.778"/>
      <point x="419" y="-79.1113"/>
      <point x="419" y="-127.445" type="curve" smooth="yes"/>
      <point x="419" y="-192.445"/>
      <point x="368" y="-224.111"/>
      <point x="300.333" y="-224.111" type="curve" smooth="yes"/>
      <point x="268.667" y="-224.111"/>
      <point x="238.333" y="-217.778"/>
    </contour>
  </outline>
</glyph>
<glyph name="tcaron" format="2">
  <advance width="351"/>
  <unicode hex="0165"/>
  <outline>
    <contour>
      <point x="26" y="429.333" type="line"/>
      <point x="26" y="464.667" type="line"/>
      <point x="97" y="501.333" type="line"/>
      <point x="145" y="607.333" type="line"/>
      <point x="197.333" y="607.333" type="line"/>
      <point x="197.333" y="484" type="line"/>
      <point x="337.667" y="484" type="line"/>
      <point x="337.667" y="429.333" type="line"/>
      <point x="197.333" y="429.333" type="line"/>
      <point x="197.333" y="139.333" type="line" smooth="yes"/>
      <point x="197.333" y="69.2844"/>
      <point x="215.217" y="51"/>
      <point x="263.333" y="51" type="curve" smooth="yes"/>
      <point x="298.477" y="51"/>
      <point x="329.306" y="57.8854"/>
      <point x="345" y="64.6667" type="curve"/>
      <point x="345" y="21.3333" type="line"/>
      <point x="321" y="10"/>
      <point x="265.333" y="-12"/>
      <point x="202.333" y="-12" type="curve" smooth="yes"/>
      <point x="121.333" y="-12"/>
      <point x="90.6667" y="23.6667"/>
      <point x="90.6667" y="103.667" type="curve" smooth="yes"/>
      <point x="90.6667" y="429.333" type="line"/>
    </contour>
    <contour>
      <point x="239.667" y="704.667" type="curve" smooth="yes"/>
      <point x="239.667" y="738.667"/>
      <point x="266.667" y="755.333"/>
      <point x="299" y="755.333" type="curve" smooth="yes"/>
      <point x="346.667" y="755.333"/>
      <point x="375" y="721.667"/>
      <point x="375" y="673.333" type="curve" smooth="yes"/>
      <point x="375" y="599"/>
      <point x="313.333" y="559"/>
      <point x="244.333" y="546" type="curve"/>
      <point x="244.333" y="578.667" type="line"/>
      <point x="288.667" y="591.667"/>
      <point x="316.667" y="615.333"/>
      <point x="316.667" y="666" type="curve"/>
      <point x="256.333" y="666" type="line"/>
      <point x="245.333" y="676.667"/>
      <point x="239.667" y="692"/>
    </contour>
  </outline>
</glyph>
<glyph name="utilde" format="2">
  <advance width="585"/>
  <unicode hex="0169"/>
  <outline>
    <contour>
      <point x="21.6667" y="404.667" type="line"/>
      <point x="21.6667" y="441" type="line"/>
      <point x="152.667" y="484" type="line"/>
      <point x="196.667" y="484" type="line"/>
      <point x="196.667" y="176" type="line" smooth="yes"/>
      <point x="196.667" y="112.333"/>
      <point x="216.333" y="63.6667"/>
      <point x="292" y="63.6667" type="curve" smooth="yes"/>
      <point x="335.333" y="63.6667"/>
      <point x="370.667" y="78"/>
      <point x="391.333" y="88" type="curve"/>
      <point x="391.333" y="404.667" type="line"/>
      <point x="323.667" y="404.667" type="line"/>
      <point x="323.667" y="441" type="line"/>
      <point x="453.667" y="484" type="line"/>
      <point x="498" y="484" type="line"/>
      <point x="498" y="67" type="line" smooth="yes"/>
      <point x="498" y="55"/>
      <point x="509" y="46.3333"/>
      <point x="520.333" y="45.3333" type="curve" smooth="yes"/>
      <point x="564.333" y="41.6667" type="line"/>
      <point x="564.333" y="0" type="line"/>
      <point x="391.333" y="0" type="line"/>
      <point x="391.333" y="55.6667" type="line"/>
      <point x="366" y="36.3333"/>
      <point x="299.667" y="-12"/>
      <point x="231.333" y="-12" type="curve" smooth="yes"/>
      <point x="128" y="-12"/>
      <point x="90" y="49.6667"/>
      <point x="90" y="150.333" type="curve" smooth="yes"/>
      <point x="90" y="404.667" type="line"/>
    </contour>
    <contour>
      <point x="151.667" y="556.667" type="line"/>
      <point x="167.333" y="616.333"/>
      <point x="199.333" y="671.333"/>
      <point x="268.333" y="671.333" type="curve" smooth="yes"/>
      <point x="295" y="671.333"/>
      <point x="312.667" y="660.333"/>
      <point x="331" y="649" type="curve" smooth="yes"/>
      <point x="351.333" y="636"/>
      <point x="372.333" y="623.667"/>
      <point x="404.333" y="623.667" type="curve" smooth="yes"/>
      <point x="430" y="623.667"/>
      <point x="451.333" y="645.333"/>
      <point x="454.333" y="671.333" type="curve"/>
      <point x="499" y="671.333" type="line"/>
      <point x="483.333" y="611.667"/>
      <point x="451.667" y="556.667"/>
      <point x="382.333" y="556.667" type="curve" smooth="yes"/>
      <point x="356" y="556.667"/>
      <point x="337" y="567.667"/>
      <point x="318.333" y="579.667" type="curve" smooth="yes"/>
      <point x="298.333" y="592"/>
      <point x="276.333" y="604.667"/>
      <point x="245.667" y="604.667" type="curve" smooth="yes"/>
      <point x="219.667" y="604.667"/>
      <point x="199.333" y="582.333"/>
      <point x="196.333" y="556.667" type="curve"/>
    </contour>
  </outline>
</glyph>
<glyph name="ubreve" format="2">
  <advance width="585"/>
  <unicode hex="016D"/>
  <outline>
    <contour>
      <point x="21.6667" y="404.667" type="line"/>
      <point x="21.6667" y="441" type="line"/>
      <point x="152.667" y="484" type="line"/>
      <point x="196.667" y="484" type="line"/>
      <point x="196.667" y="176" type="line" smooth="yes"/>
      <point x="196.667" y="112.333"/>
      <point x="216.333" y="63.6667"/>
      <point x="292" y="63.6667" type="curve" smooth="yes"/>
      <point x="335.333" y="63.6667"/>
      <point x="370.667" y="78"/>
      <point x="391.333" y="88" type="curve"/>
      <point x="391.333" y="404.667" type="line"/>
      <point x="323.667" y="404.667" type="line"/>
      <point x="323.667" y="441" type="line"/>
      <point x="453.667" y="484" type="line"/>
      <point x="498" y="484" type="line"/>
      <point x="498" y="67" type="line" smooth="yes"/>
      <point x="498" y="55"/>
      <point x="509" y="46.3333"/>
      <point x="520.333" y="45.3333" type="curve" smooth="yes"/>
      <point x="564.333" y="41.6667" type="line"/>
      <point x="564.333" y="0" type="line"/>
      <point x="391.333" y="0" type="line"/>
      <point x="391.333" y="55.6667" type="line"/>
      <point x="366" y="36.3333"/>
      <point x="299.667" y="-12"/>
      <point x="231.333" y="-12" type="curve" smooth="yes"/>
      <point x="128" y="-12"/>
      <point x="90" y="49.6667"/>
      <point x="90" y="150.333" type="curve" smooth="yes"/>
      <point x="90" y="404.667" type="line"/>
    </contour>
    <contour>
      <point x="141" y="710.333" type="curve"/>
      <point x="184.333" y="710.333" type="line"/>
      <point x="194.791" y="659.684"/>
      <point x="235.679" y="629"/>
      <point x="293" y="629" type="curve" smooth="yes"/>
      <point x="350.029" y="629"/>
      <point x="389.926" y="658.988"/>
      <point x="400.333" y="710.333" type="curve"/>
      <point x="445" y="710.333" type="line"/>
      <point x="445" y="618.198"/>
      <point x="383.53" y="556.667"/>
      <point x="292.333" y="556.667" type="curve" smooth="yes"/>
      <point x="201" y="556.667"/>
      <point x="141" y="617.667"/>
    </contour>
  </outline>
</glyph>
<glyph name="uhungarumlaut" format="2">
  <advance width="585"/>
  <unicode hex="0171"/>
  <outline>
    <contour>
      <point x="21.6667" y="404.667" type="line"/>
      <point x="21.6667" y="441" type="line"/>
      <point x="152.667" y="484" type="line"/>
      <point x="196.667" y="484" type="line"/>
      <point x="196.667" y="176" type="line" smooth="yes"/>
      <point x="196.667" y="112.333"/>
      <point x="216.333" y="63.6667"/>
      <point x="292" y="63.6667" type="curve" smooth="yes"/>
      <point x="335.333" y="63.6667"/>
      <point x="370.667" y="78"/>
      <point x="391.333" y="88" type="curve"/>
      <point x="391.333" y="404.667" type="line"/>
      <point x="323.667" y="404.667" type="line"/>
      <point x="323.667" y="441" type="line"/>
      <point x="453.667" y="484" type="line"/>
      <point x="498" y="484" type="line"/>
      <point x="498" y="67" type="line" smooth="yes"/>
      <point x="498" y="55"/>
      <point x="509" y="46.3333"/>
      <point x="520.333" y="45.3333" type="curve" smooth="yes"/>
      <point x="564.333" y="41.6667" type="line"/>
      <point x="564.333" y="0" type="line"/>
      <point x="391.333" y="0" type="line"/>
      <point x="391.333" y="55.6667" type="line"/>
      <point x="366" y="36.3333"/>
      <point x="299.667" y="-12"/>
      <point x="231.333" y="-12" type="curve" smooth="yes"/>
      <point x="128" y="-12"/>
      <point x="90" y="49.6667"/>
      <point x="90" y="150.333" type="curve" smooth="yes"/>
      <point x="90" y="404.667" type="line"/>
    </contour>
    <contour>
      <point x="94.6667" y="557.333" type="line"/>
      <point x="229.333" y="711" type="line" smooth="yes"/>
      <point x="244.667" y="728.667"/>
      <point x="257" y="739.667"/>
      <point x="285.333" y="739.667" type="curve" smooth="yes"/>
      <point x="319" y="739.667"/>
      <point x="335.333" y="718.667"/>
      <point x="335.333" y="691.333" type="curve" smooth="yes"/>
      <point x="335.333" y="673.667"/>
      <point x="324.333" y="659.333"/>
      <point x="310.667" y="651.333" type="curve" smooth="yes"/>
      <point x="156" y="557.333" type="line"/>
    </contour>
    <contour>
      <point x="296.667" y="556.667" type="line"/>
      <point x="431.333" y="710.333" type="line" smooth="yes"/>
      <point x="448" y="729.333"/>
      <point x="460.333" y="739.667"/>
      <point x="487.333" y="739.667" type="curve" smooth="yes"/>
      <point x="521" y="739.667"/>
      <point x="536.667" y="718.667"/>
      <point x="536.667" y="692" type="curve" smooth="yes"/>
      <point x="536.667" y="674.333"/>
      <point x="526.333" y="658.667"/>
      <point x="512.667" y="650.667" type="curve" smooth="yes"/>
      <point x="358" y="556.667" type="line"/>
    </contour>
  </outline>
</glyph>
<glyph name="Zacute" format="2">
  <advance width="577"/>
  <unicode hex="0179"/>
  <outline>
    <contour>
      <point x="38.3333" y="0" type="line"/>
      <point x="38.3333" y="49" type="line"/>
      <point x="400.667" y="617.333" type="line"/>
      <point x="153.667" y="617.333" type="line" smooth="yes"/>
      <point x="144.333" y="617.333"/>
      <point x="139.333" y="610"/>
      <point x="137.667" y="602" type="curve"/>
      <point x="121.667" y="503.667" type="line"/>
      <point x="58" y="503.667" type="line"/>
      <point x="58" y="671" type="line"/>
      <point x="533.667" y="671" type="line"/>
      <point x="533.667" y="620.667" type="line"/>
      <point x="171" y="54.6667" type="line"/>
      <point x="440.667" y="54.6667" type="line" smooth="yes"/>
      <point x="450" y="54.6667"/>
      <point x="455" y="62.6667"/>
      <point x="457" y="70.3333" type="curve"/>
      <point x="475" y="189" type="line"/>
      <point x="538.667" y="189" type="line"/>
      <point x="538.667" y="0" type="line"/>
    </contour>
    <contour>
      <point x="265.667" y="746.333" type="line"/>
      <point x="399" y="900" type="line" smooth="yes"/>
      <point x="414.667" y="918.333"/>
      <point x="428" y="928.667"/>
      <point x="455.667" y="928.667" type="curve" smooth="yes"/>
      <point x="489.772" y="928.667"/>
      <point x="506.333" y="908.059"/>
      <point x="506.333" y="881" type="curve" smooth="yes"/>
      <point x="506.333" y="864"/>
      <point x="494.341" y="847.654"/>
      <point x="482.333" y="840.333" type="curve" smooth="yes"/>
      <point x="326.333" y="746.333" type="line"/>
    </contour>
  </outline>
</glyph>
<glyph name="zacute" format="2">
  <advance width="471"/>
  <unicode hex="017A"/>
  <outline>
    <contour>
      <point x="33.3333" y="0" type="line"/>
      <point x="33.3333" y="57" type="line"/>
      <point x="296" y="433.667" type="line"/>
      <point x="129.667" y="433.667" type="line" smooth="yes"/>
      <point x="119.667" y="433.667"/>
      <point x="110.667" y="421.667"/>
      <point x="110" y="412.667" type="curve"/>
      <point x="101" y="337.667" type="line"/>
      <point x="43.3333" y="337.667" type="line"/>
      <point x="43.3333" y="484" type="line"/>
      <point x="425" y="484" type="line"/>
      <point x="425" y="438" type="line"/>
      <point x="155" y="51.6667" type="line"/>
      <point x="347" y="51.6667" type="line" smooth="yes"/>
      <point x="357.333" y="51.6667"/>
      <point x="366.333" y="66.3333"/>
      <point x="368.333" y="75.6667" type="curve"/>
      <point x="379.333" y="156.667" type="line"/>
      <point x="438.333" y="156.667" type="line"/>
      <point x="438.333" y="0" type="line"/>
    </contour>
    <contour>
      <point x="204" y="556.667" type="line"/>
      <point x="337.333" y="710.333" type="line" smooth="yes"/>
      <point x="353" y="728.667"/>
      <point x="366.333" y="739"/>
      <point x="394" y="739" type="curve" smooth="yes"/>
      <point x="428.105" y="739"/>
      <point x="444.667" y="718.392"/>
      <point x="444.667" y="691.333" type="curve" smooth="yes"/>
      <point x="444.667" y="674.333"/>
      <point x="432.675" y="657.987"/>
      <point x="420.667" y="650.667" type="curve" smooth="yes"/>
      <point x="264.667" y="556.667" type="line"/>
    </contour>
  </outline>
</glyph>
<glyph name="uni0180" format="2">
  <advance width="569"/>
  <unicode hex="0180"/>
  <outline>
    <contour>
      <point x="6.33333" y="537" type="line"/>
      <point x="6.33333" y="592" type="line"/>
      <point x="90" y="592" type="line"/>
      <point x="90" y="659.667" type="line"/>
      <point x="16" y="659.667" type="line"/>
      <point x="16" y="695.333" type="line"/>
      <point x="153.667" y="738" type="line"/>
      <point x="196.667" y="738" type="line"/>
      <point x="196.667" y="592" type="line"/>
      <point x="312" y="592" type="line"/>
      <point x="312" y="537" type="line"/>
      <point x="196.667" y="537" type="line"/>
      <point x="196.667" y="455.333" type="line"/>
      <point x="231.485" y="474"/>
      <point x="287.264" y="495.333"/>
      <point x="337" y="495.333" type="curve" smooth="yes"/>
      <point x="460.498" y="495.333"/>
      <point x="535.333" y="401.956"/>
      <point x="535.333" y="266.667" type="curve" smooth="yes"/>
      <point x="535.333" y="98.5939"/>
      <point x="427.433" y="0"/>
      <point x="247" y="0" type="curve" smooth="yes"/>
      <point x="90" y="0" type="line"/>
      <point x="90" y="537" type="line"/>
    </contour>
    <contour>
      <point x="196" y="50.6667" type="line"/>
      <point x="209.799" y="49.6667"/>
      <point x="222.836" y="49.6667"/>
      <point x="235.667" y="49.6667" type="curve" smooth="yes"/>
      <point x="360" y="49.6667"/>
      <point x="419" y="108"/>
      <point x="419" y="243.333" type="curve" smooth="yes"/>
      <point x="419" y="354"/>
      <point x="373" y="428.333"/>
      <point x="268.333" y="428.333" type="curve" smooth="yes"/>
      <point x="241" y="428.333"/>
      <point x="211.333" y="421"/>
      <point x="196" y="416.333" type="curve"/>
    </contour>
  </outline>
</glyph>
<glyph name="uni0181" format="2">
  <advance width="687"/>
  <unicode hex="0181"/>
  <outline>
    <contour>
      <point x="290" y="370.333" type="line"/>
      <point x="294.176" y="370"/>
      <point x="314.745" y="370"/>
      <point x="323" y="370" type="curve" smooth="yes"/>
      <point x="432.333" y="370"/>
      <point x="487.667" y="409.667"/>
      <point x="487.667" y="502.667" type="curve" smooth="yes"/>
      <point x="487.667" y="581"/>
      <point x="438" y="621.667"/>
      <point x="342.333" y="621.667" type="curve" smooth="yes"/>
      <point x="324.108" y="621.667"/>
      <point x="307.689" y="621"/>
      <point x="290" y="619" type="curve"/>
    </contour>
    <contour>
      <point x="290.667" y="54.3333" type="line"/>
      <point x="306.793" y="52.7535"/>
      <point x="330.055" y="51.6667"/>
      <point x="348.333" y="51.6667" type="curve" smooth="yes"/>
      <point x="460.035" y="51.6667"/>
      <point x="526.333" y="99.3073"/>
      <point x="526.333" y="189.333" type="curve" smooth="yes"/>
      <point x="526.333" y="282"/>
      <point x="469.333" y="319.667"/>
      <point x="366.667" y="319.667" type="curve" smooth="yes"/>
      <point x="343.333" y="319.667"/>
      <point x="318" y="317.667"/>
      <point x="290.667" y="315.333" type="curve"/>
    </contour>
    <contour>
      <point x="-17.3333" y="563" type="curve" smooth="yes"/>
      <point x="-17.3333" y="643.667"/>
      <point x="50" y="671"/>
      <point x="146" y="671" type="curve" smooth="yes"/>
      <point x="388.333" y="671" type="line" smooth="yes"/>
      <point x="497" y="671"/>
      <point x="610" y="640.667"/>
      <point x="610" y="512" type="curve" smooth="yes"/>
      <point x="610" y="408.667"/>
      <point x="526.333" y="372"/>
      <point x="466" y="356.333" type="curve"/>
      <point x="561.234" y="355.667"/>
      <point x="649.667" y="311.896"/>
      <point x="649.667" y="197" type="curve" smooth="yes"/>
      <point x="649.667" y="39.3333"/>
      <point x="530.333" y="0"/>
      <point x="403.333" y="0" type="curve" smooth="yes"/>
      <point x="102.333" y="0" type="line"/>
      <point x="102.333" y="45.6667" type="line"/>
      <point x="153.667" y="50" type="line" smooth="yes"/>
      <point x="165.669" y="50.9735"/>
      <point x="177.667" y="59.6667"/>
      <point x="177.667" y="72" type="curve" smooth="yes"/>
      <point x="177.667" y="599" type="line" smooth="yes"/>
      <point x="177.667" y="612"/>
      <point x="169.667" y="620"/>
      <point x="156.667" y="620" type="curve" smooth="yes"/>
      <point x="120.667" y="620" type="line" smooth="yes"/>
      <point x="92.3333" y="620"/>
      <point x="78.3333" y="614.667"/>
      <point x="66.6667" y="596.333" type="curve"/>
      <point x="108.333" y="525.333" type="line"/>
      <point x="89" y="505"/>
      <point x="74" y="495"/>
      <point x="41.3333" y="495" type="curve" smooth="yes"/>
      <point x="5" y="495"/>
      <point x="-17.3333" y="527"/>
    </contour>
  </outline>
</glyph>
<glyph name="uni0186" format="2">
  <advance width="629"/>
  <unicode hex="0186"/>
  <outline>
    <contour>
      <point x="37.6667" y="24" type="curve"/>
      <point x="37.6667" y="185.333" type="line"/>
      <point x="103.333" y="185.333" type="line"/>
      <point x="121.333" y="87.3333" type="line" smooth="yes"/>
      <point x="123.573" y="74.8237"/>
      <point x="135.557" y="66.4131"/>
      <point x="147.667" y="61.3333" type="curve" smooth="yes"/>
      <point x="171.645" y="51.4701"/>
      <point x="201.817" y="44"/>
      <point x="229" y="44" type="curve" smooth="yes"/>
      <point x="383.091" y="44"/>
      <point x="463.333" y="164.093"/>
      <point x="463.333" y="332.333" type="curve" smooth="yes"/>
      <point x="463.333" y="494.675"/>
      <point x="389.079" y="628"/>
      <point x="218.667" y="628" type="curve" smooth="yes"/>
      <point x="192" y="628"/>
      <point x="166.494" y="621.601"/>
      <point x="150" y="615" type="curve" smooth="yes"/>
      <point x="139.667" y="611"/>
      <point x="129.865" y="605.169"/>
      <point x="127.333" y="593.333" type="curve" smooth="yes"/>
      <point x="104.333" y="481.333" type="line"/>
      <point x="39" y="481.333" type="line"/>
      <point x="39" y="647.667" type="line"/>
      <point x="92" y="667"/>
      <point x="170.501" y="686.333"/>
      <point x="242.333" y="686.333" type="curve" smooth="yes"/>
      <point x="452.011" y="686.333"/>
      <point x="592" y="541.953"/>
      <point x="592" y="333.667" type="curve" smooth="yes"/>
      <point x="592" y="121.963"/>
      <point x="448.839" y="-16"/>
      <point x="240.667" y="-16" type="curve" smooth="yes"/>
      <point x="162.333" y="-16"/>
      <point x="111" y="-0.666667"/>
    </contour>
  </outline>
</glyph>
<glyph name="uni0187" format="2">
  <advance width="629"/>
  <unicode hex="0187"/>
  <outline>
    <contour>
      <point x="38.3333" y="336" type="curve" smooth="yes"/>
      <point x="38.3333" y="546.826"/>
      <point x="181.467" y="687"/>
      <point x="389" y="687" type="curve" smooth="yes"/>
      <point x="435.064" y="687"/>
      <point x="467.837" y="681.041"/>
      <point x="507" y="671.333" type="curve"/>
      <point x="512.333" y="776.333"/>
      <point x="575.667" y="845.667"/>
      <point x="683.667" y="845.667" type="curve" smooth="yes"/>
      <point x="727.815" y="845.667"/>
      <point x="780.667" y="819.891"/>
      <point x="780.667" y="777.333" type="curve" smooth="yes"/>
      <point x="780.667" y="744"/>
      <point x="760.667" y="722.333"/>
      <point x="735.667" y="714.333" type="curve"/>
      <point x="640" y="792.667" type="line"/>
      <point x="608" y="781.333"/>
      <point x="595.333" y="751"/>
      <point x="594.667" y="701" type="curve"/>
      <point x="594.667" y="485" type="line"/>
      <point x="528.667" y="485" type="line"/>
      <point x="511.333" y="583" type="line" smooth="yes"/>
      <point x="509.235" y="595.705"/>
      <point x="496.667" y="603.333"/>
      <point x="485" y="608.333" type="curve" smooth="yes"/>
      <point x="465.711" y="616.695"/>
      <point x="435" y="627"/>
      <point x="403.333" y="627" type="curve" smooth="yes"/>
      <point x="248.427" y="627"/>
      <point x="168.667" y="504.547"/>
      <point x="168.667" y="336" type="curve" smooth="yes"/>
      <point x="168.667" y="173.419"/>
      <point x="243.267" y="41.6667"/>
      <point x="413.333" y="41.6667" type="curve" smooth="yes"/>
      <point x="440" y="41.6667"/>
      <point x="465.312" y="48.4354"/>
      <point x="481.333" y="55.3333" type="curve" smooth="yes"/>
      <point x="491.707" y="59.6865"/>
      <point x="501.081" y="65.9113"/>
      <point x="504.333" y="77" type="curve"/>
      <point x="527" y="189" type="line"/>
      <point x="592" y="189" type="line"/>
      <point x="592" y="22.6667" type="line"/>
      <point x="550.667" y="1.33333"/>
      <point x="469.239" y="-16.6667"/>
      <point x="388" y="-16.6667" type="curve" smooth="yes"/>
      <point x="178.322" y="-16.6667"/>
      <point x="38.3333" y="127.713"/>
    </contour>
  </outline>
</glyph>
<glyph name="uni0189" format="2">
  <advance width="705"/>
  <unicode hex="0189"/>
  <outline>
    <contour>
      <point x="14" y="379.333" type="line"/>
      <point x="376.667" y="379.333" type="line"/>
      <point x="376.667" y="323.667" type="line"/>
      <point x="14" y="323.667" type="line"/>
    </contour>
    <contour>
      <point x="30" y="0" type="line"/>
      <point x="30" y="45.6667" type="line"/>
      <point x="83.6667" y="50" type="line" smooth="yes"/>
      <point x="95.6712" y="50.9375"/>
      <point x="106.667" y="59.6667"/>
      <point x="106.667" y="72" type="curve" smooth="yes"/>
      <point x="106.667" y="599" type="line" smooth="yes"/>
      <point x="106.667" y="611.333"/>
      <point x="96.3379" y="620.063"/>
      <point x="84.3333" y="621" type="curve" smooth="yes"/>
      <point x="30.6667" y="625.333" type="line"/>
      <point x="30.6667" y="671" type="line"/>
      <point x="304.667" y="671" type="line" smooth="yes"/>
      <point x="528.979" y="671"/>
      <point x="667" y="552.877"/>
      <point x="667" y="339" type="curve" smooth="yes"/>
      <point x="667" y="117.561"/>
      <point x="535.733" y="0"/>
      <point x="319.333" y="0" type="curve" smooth="yes"/>
    </contour>
    <contour>
      <point x="221.667" y="51.6667" type="line"/>
      <point x="303.333" y="51.6667" type="line"/>
      <point x="450" y="52"/>
      <point x="538.667" y="141.581"/>
      <point x="538.667" y="334" type="curve" smooth="yes"/>
      <point x="538.667" y="533.333"/>
      <point x="448.333" y="619.667"/>
      <point x="293.333" y="619.667" type="curve" smooth="yes"/>
      <point x="221.667" y="619.667" type="line"/>
    </contour>
  </outline>
</glyph>
<glyph name="uni018A" format="2">
  <advance width="777"/>
  <unicode hex="018A"/>
  <outline>
    <contour>
      <point x="-17" y="562.333" type="curve" smooth="yes"/>
      <point x="-17" y="643"/>
      <point x="50.3333" y="670.333"/>
      <point x="146" y="670.333" type="curve" smooth="yes"/>
      <point x="376" y="670.333" type="line" smooth="yes"/>
      <point x="600.062" y="670.333"/>
      <point x="739" y="551.631"/>
      <point x="739" y="338.333" type="curve" smooth="yes"/>
      <point x="739" y="117.489"/>
      <point x="607.435" y="0"/>
      <point x="391.333" y="0" type="curve" smooth="yes"/>
      <point x="102.667" y="0" type="line"/>
      <point x="102.667" y="45.6667" type="line"/>
      <point x="158.667" y="50.3333" type="line" smooth="yes"/>
      <point x="168.341" y="51.2314"/>
      <point x="178.667" y="60.3333"/>
      <point x="178.667" y="68.6667" type="curve" smooth="yes"/>
      <point x="178.667" y="599" type="line" smooth="yes"/>
      <point x="178.667" y="612"/>
      <point x="170.667" y="620"/>
      <point x="157.667" y="620" type="curve" smooth="yes"/>
      <point x="121.333" y="620" type="line" smooth="yes"/>
      <point x="93" y="620"/>
      <point x="79" y="614.667"/>
      <point x="67.3333" y="596.333" type="curve"/>
      <point x="109" y="525.333" type="line"/>
      <point x="89" y="504"/>
      <point x="73.6667" y="495"/>
      <point x="38.6667" y="495" type="curve" smooth="yes"/>
      <point x="7.27879" y="495"/>
      <point x="-17" y="526"/>
    </contour>
    <contour>
      <point x="293" y="51.6667" type="line"/>
      <point x="375.333" y="51.6667" type="line" smooth="yes"/>
      <point x="522.667" y="51.6667"/>
      <point x="610.667" y="140.911"/>
      <point x="610.667" y="334" type="curve" smooth="yes"/>
      <point x="610.667" y="534"/>
      <point x="521" y="619.667"/>
      <point x="365.333" y="619.667" type="curve" smooth="yes"/>
      <point x="293" y="619.667" type="line"/>
    </contour>
  </outline>
</glyph>
<glyph name="uni018D" format="2">
  <advance width="545"/>
  <unicode hex="018D"/>
  <outline>
    <contour>
      <point x="34" y="259" type="curve" smooth="yes"/>
      <point x="34" y="406.172"/>
      <point x="140.427" y="495.333"/>
      <point x="269.667" y="495.333" type="curve" smooth="yes"/>
      <point x="405.359" y="495.333"/>
      <point x="513" y="428.282"/>
      <point x="513" y="279.667" type="curve" smooth="yes"/>
      <point x="513" y="149.146"/>
      <point x="397.249" y="87.6233"/>
      <point x="293.333" y="51.3333" type="curve"/>
      <point x="321.667" y="31.6667"/>
      <point x="351.943" y="9.93407"/>
      <point x="377.667" y="-11.6667" type="curve"/>
      <point x="416" y="-40.3333"/>
      <point x="454" y="-71.6667"/>
      <point x="454" y="-114.333" type="curve" smooth="yes"/>
      <point x="454" y="-204.243"/>
      <point x="376.977" y="-253.333"/>
      <point x="281.333" y="-253.333" type="curve" smooth="yes"/>
      <point x="171.475" y="-253.333"/>
      <point x="74.3333" y="-210.429"/>
      <point x="74.3333" y="-138.667" type="curve" smooth="yes"/>
      <point x="74.3333" y="-106.887"/>
      <point x="99.6" y="-81.3333"/>
      <point x="139" y="-81.3333" type="curve" smooth="yes"/>
      <point x="150.667" y="-81.3333"/>
      <point x="171.667" y="-83.3333"/>
      <point x="180" y="-88.6667" type="curve"/>
      <point x="202" y="-167.667" type="line"/>
      <point x="227" y="-186.667"/>
      <point x="251.667" y="-201"/>
      <point x="285" y="-201" type="curve" smooth="yes"/>
      <point x="326.297" y="-201"/>
      <point x="367.667" y="-176.387"/>
      <point x="367.667" y="-133" type="curve" smooth="yes"/>
      <point x="367.667" y="-96.2919"/>
      <point x="297.081" y="-52.0922"/>
      <point x="261.333" y="-30.3333" type="curve" smooth="yes"/>
      <point x="219" y="-4.66667"/>
      <point x="174.957" y="25.6166"/>
      <point x="136" y="59" type="curve" smooth="yes"/>
      <point x="81.5359" y="105.886"/>
      <point x="34" y="168.633"/>
    </contour>
    <contour>
      <point x="151.333" y="266.667" type="curve" smooth="yes"/>
      <point x="151.333" y="181.979"/>
      <point x="200.667" y="128.362"/>
      <point x="253.667" y="84.3333" type="curve"/>
      <point x="323.627" y="119.475"/>
      <point x="395.667" y="179.543"/>
      <point x="395.667" y="280.667" type="curve" smooth="yes"/>
      <point x="395.667" y="373.223"/>
      <point x="359.575" y="447.333"/>
      <point x="276.333" y="447.333" type="curve" smooth="yes"/>
      <point x="186.667" y="447.333"/>
      <point x="151.333" y="365.667"/>
    </contour>
  </outline>
</glyph>
<glyph name="uni018E" format="2">
  <advance width="588"/>
  <unicode hex="018E"/>
  <outline>
    <contour>
      <point x="31.3333" y="0" type="line"/>
      <point x="31.3333" y="172.333" type="line"/>
      <point x="91.6667" y="172.333" type="line"/>
      <point x="108.667" y="71.6667" type="line" smooth="yes"/>
      <point x="109.667" y="65.3333"/>
      <point x="118.667" y="52.6667"/>
      <point x="126.667" y="52.6667" type="curve" smooth="yes"/>
      <point x="368" y="52.6667" type="line"/>
      <point x="368" y="321" type="line"/>
      <point x="228.333" y="321" type="line" smooth="yes"/>
      <point x="221" y="321"/>
      <point x="211" y="310"/>
      <point x="210.667" y="303" type="curve"/>
      <point x="201" y="234.333" type="line"/>
      <point x="146.333" y="234.333" type="line"/>
      <point x="146.333" y="461.333" type="line"/>
      <point x="201" y="461.333" type="line"/>
      <point x="210.667" y="392.667" type="line"/>
      <point x="211" y="385"/>
      <point x="220" y="375.333"/>
      <point x="228.333" y="375.333" type="curve" smooth="yes"/>
      <point x="368" y="375.333" type="line"/>
      <point x="368" y="619.667" type="line"/>
      <point x="161.333" y="619.667" type="line" smooth="yes"/>
      <point x="151.667" y="619.667"/>
      <point x="144.667" y="610"/>
      <point x="143.333" y="600.667" type="curve"/>
      <point x="128" y="518.333" type="line"/>
      <point x="64" y="518.333" type="line"/>
      <point x="64" y="671" type="line"/>
      <point x="558" y="671" type="line"/>
      <point x="558" y="625.333" type="line"/>
      <point x="505" y="621" type="line" smooth="yes"/>
      <point x="493.333" y="620"/>
      <point x="482.667" y="611.333"/>
      <point x="482.667" y="599" type="curve" smooth="yes"/>
      <point x="482.667" y="72" type="line" smooth="yes"/>
      <point x="482.667" y="59.6667"/>
      <point x="493.333" y="51"/>
      <point x="505" y="50" type="curve" smooth="yes"/>
      <point x="558" y="45.6667" type="line"/>
      <point x="558" y="0" type="line"/>
    </contour>
  </outline>
</glyph>
<glyph name="florin" format="2">
  <advance width="333"/>
  <unicode hex="0192"/>
  <outline>
    <contour>
      <point x="-97.6667" y="-165" type="curve" smooth="yes"/>
      <point x="-97.6667" y="-134.667"/>
      <point x="-73" y="-115.667"/>
      <point x="-47" y="-107.667" type="curve"/>
      <point x="48" y="-183.333" type="line"/>
      <point x="83.3333" y="-157.333"/>
      <point x="97" y="-108"/>
      <point x="97" y="-31.6667" type="curve" smooth="yes"/>
      <point x="97" y="418" type="line"/>
      <point x="33" y="418" type="line"/>
      <point x="33" y="454.667" type="line"/>
      <point x="97" y="477.667" type="line"/>
      <point x="97" y="554.333"/>
      <point x="119.021" y="611.948"/>
      <point x="156.333" y="657.667" type="curve"/>
      <point x="190.333" y="702.333"/>
      <point x="242" y="736.667"/>
      <point x="310" y="736.667" type="curve" smooth="yes"/>
      <point x="352.144" y="736.667"/>
      <point x="400" y="717.077"/>
      <point x="400" y="670.667" type="curve" smooth="yes"/>
      <point x="400" y="642.738"/>
      <point x="379.981" y="623.194"/>
      <point x="348.667" y="613.333" type="curve"/>
      <point x="253.667" y="687.667" type="line"/>
      <point x="218.517" y="662.333"/>
      <point x="203.667" y="612.333"/>
      <point x="203.667" y="536.667" type="curve" smooth="yes"/>
      <point x="203.667" y="474.667" type="line"/>
      <point x="322.667" y="474.667" type="line"/>
      <point x="322.667" y="418" type="line"/>
      <point x="203.667" y="418" type="line"/>
      <point x="203.667" y="37.6667" type="line" smooth="yes"/>
      <point x="203.667" y="-103.627"/>
      <point x="132.391" y="-230.333"/>
      <point x="-8.33333" y="-230.333" type="curve" smooth="yes"/>
      <point x="-51" y="-230.333"/>
      <point x="-97.6667" y="-212"/>
    </contour>
  </outline>
</glyph>
<glyph name="uni0199" format="2">
  <advance width="554"/>
  <unicode hex="0199"/>
  <outline>
    <contour>
      <point x="22" y="-0.666667" type="line"/>
      <point x="22" y="41" type="line"/>
      <point x="68.6667" y="44.6667" type="line" smooth="yes"/>
      <point x="80" y="45.6667"/>
      <point x="89.3333" y="54.3333"/>
      <point x="89.3333" y="66.3333" type="curve" smooth="yes"/>
      <point x="89.3333" y="469" type="line" smooth="yes"/>
      <point x="89.3333" y="608.277"/>
      <point x="161.107" y="738"/>
      <point x="302.667" y="738" type="curve" smooth="yes"/>
      <point x="344.803" y="738"/>
      <point x="392.667" y="719.506"/>
      <point x="392.667" y="673.333" type="curve" smooth="yes"/>
      <point x="392.667" y="640.935"/>
      <point x="369.333" y="623.667"/>
      <point x="341.333" y="614.667" type="curve"/>
      <point x="247" y="689" type="line"/>
      <point x="214.726" y="653.393"/>
      <point x="196" y="622.02"/>
      <point x="196" y="537.333" type="curve" smooth="yes"/>
      <point x="196" y="256.667" type="line"/>
      <point x="217.333" y="256.667" type="line"/>
      <point x="360.667" y="420" type="line" smooth="yes"/>
      <point x="362.777" y="422.443"/>
      <point x="364.153" y="424.744"/>
      <point x="364.153" y="427.333" type="curve" smooth="yes"/>
      <point x="364.153" y="432.216"/>
      <point x="360.065" y="436.873"/>
      <point x="352.333" y="437.667" type="curve" smooth="yes"/>
      <point x="312.333" y="441.667" type="line"/>
      <point x="312.333" y="483.333" type="line"/>
      <point x="511" y="483.333" type="line"/>
      <point x="511" y="441.667" type="line"/>
      <point x="446.333" y="433.667" type="line"/>
      <point x="322.667" y="299.667" type="line"/>
      <point x="488.667" y="46.6667" type="line"/>
      <point x="543.667" y="41" type="line"/>
      <point x="543.667" y="-0.666667" type="line"/>
      <point x="373" y="-0.666667" type="line"/>
      <point x="373" y="39" type="line"/>
      <point x="249.667" y="226" type="line"/>
      <point x="196" y="226" type="line"/>
      <point x="196" y="66.3333" type="line" smooth="yes"/>
      <point x="196" y="54.3333"/>
      <point x="205.667" y="45.6667"/>
      <point x="217.333" y="44.6667" type="curve" smooth="yes"/>
      <point x="260" y="41" type="line"/>
      <point x="260" y="-0.666667" type="line"/>
    </contour>
  </outline>
</glyph>
<glyph name="uni019E" format="2">
  <advance width="586"/>
  <unicode hex="019E"/>
  <outline>
    <contour>
      <point x="24.6667" y="0.666667" type="line"/>
      <point x="24.6667" y="42.3333" type="line"/>
      <point x="69.3333" y="45.3333" type="line" smooth="yes"/>
      <point x="80.6667" y="46.3333"/>
      <point x="90.6667" y="55"/>
      <point x="90.6667" y="67" type="curve" smooth="yes"/>
      <point x="90.6667" y="410" type="line"/>
      <point x="21" y="410" type="line"/>
      <point x="21" y="445.667" type="line"/>
      <point x="152.667" y="488" type="line"/>
      <point x="197.333" y="488" type="line"/>
      <point x="197.333" y="434.333" type="line"/>
      <point x="259.511" y="475.338"/>
      <point x="316.32" y="496"/>
      <point x="365.667" y="496" type="curve" smooth="yes"/>
      <point x="453.307" y="496"/>
      <point x="500.333" y="439.811"/>
      <point x="500.333" y="335.333" type="curve" smooth="yes"/>
      <point x="500.333" y="-151.333" type="line" smooth="yes"/>
      <point x="500.333" y="-163.333"/>
      <point x="510.667" y="-172"/>
      <point x="522" y="-173" type="curve" smooth="yes"/>
      <point x="561.667" y="-176" type="line"/>
      <point x="561.667" y="-217.667" type="line"/>
      <point x="332.333" y="-217.667" type="line"/>
      <point x="332.333" y="-176" type="line"/>
      <point x="372.667" y="-173" type="line" smooth="yes"/>
      <point x="384" y="-172"/>
      <point x="394" y="-163.333"/>
      <point x="394" y="-151.333" type="curve" smooth="yes"/>
      <point x="394" y="318.667" type="line" smooth="yes"/>
      <point x="394" y="383.566"/>
      <point x="363.443" y="416.667"/>
      <point x="302.667" y="416.667" type="curve" smooth="yes"/>
      <point x="266.437" y="416.667"/>
      <point x="227.345" y="408.139"/>
      <point x="197.333" y="393" type="curve"/>
      <point x="197.333" y="67" type="line" smooth="yes"/>
      <point x="197.333" y="55"/>
      <point x="207.667" y="46.3333"/>
      <point x="219" y="45.3333" type="curve" smooth="yes"/>
      <point x="257" y="42.3333" type="line"/>
      <point x="257" y="0.666667" type="line"/>
    </contour>
  </outline>
</glyph>
<glyph name="uni01A5" format="2">
  <advance width="574"/>
  <unicode hex="01A5"/>
  <outline>
    <contour>
      <point x="22" y="-176" type="line"/>
      <point x="68.6667" y="-171" type="line" smooth="yes"/>
      <point x="79.9692" y="-170.087"/>
      <point x="90" y="-162.333"/>
      <point x="90" y="-150" type="curve" smooth="yes"/>
      <point x="90" y="514" type="line" smooth="yes"/>
      <point x="90" y="645.455"/>
      <point x="179.81" y="738"/>
      <point x="307" y="738" type="curve" smooth="yes"/>
      <point x="420.718" y="738"/>
      <point x="485.667" y="701.593"/>
      <point x="485.667" y="638.333" type="curve" smooth="yes"/>
      <point x="485.667" y="604.809"/>
      <point x="462.591" y="577"/>
      <point x="434.333" y="577" type="curve" smooth="yes"/>
      <point x="420.594" y="577"/>
      <point x="411.046" y="579.258"/>
      <point x="403.333" y="584" type="curve"/>
      <point x="367.333" y="671.667" type="line"/>
      <point x="357.316" y="679.127"/>
      <point x="339.262" y="683.333"/>
      <point x="316.333" y="683.333" type="curve" smooth="yes"/>
      <point x="244.311" y="683.333"/>
      <point x="196.667" y="615.516"/>
      <point x="196.667" y="514" type="curve" smooth="yes"/>
      <point x="196.667" y="433.667" type="line"/>
      <point x="241.792" y="471.325"/>
      <point x="301.754" y="495.333"/>
      <point x="350.333" y="495.333" type="curve" smooth="yes"/>
      <point x="460.603" y="495.333"/>
      <point x="539.333" y="393.258"/>
      <point x="539.333" y="250.667" type="curve" smooth="yes"/>
      <point x="539.333" y="88.1438"/>
      <point x="440.941" y="-12"/>
      <point x="281.333" y="-12" type="curve" smooth="yes"/>
      <point x="251.111" y="-12"/>
      <point x="219.225" y="-8.5646"/>
      <point x="196.667" y="-2.66667" type="curve"/>
      <point x="196.667" y="-150" type="line" smooth="yes"/>
      <point x="196.667" y="-162.333"/>
      <point x="207.341" y="-170.255"/>
      <point x="218.667" y="-171" type="curve" smooth="yes"/>
      <point x="275.667" y="-176" type="line"/>
      <point x="275.667" y="-217.667" type="line"/>
      <point x="22" y="-217.667" type="line"/>
    </contour>
    <contour>
      <point x="196.667" y="51.3333" type="line"/>
      <point x="222.953" y="41.7905"/>
      <point x="247.629" y="36.6667"/>
      <point x="269.667" y="36.6667" type="curve" smooth="yes"/>
      <point x="364.986" y="36.6667"/>
      <point x="424" y="112.999"/>
      <point x="424" y="237" type="curve" smooth="yes"/>
      <point x="424" y="348.949"/>
      <point x="372.27" y="419"/>
      <point x="289.333" y="419" type="curve" smooth="yes"/>
      <point x="259.99" y="419"/>
      <point x="225.484" y="409.89"/>
      <point x="196.667" y="394" type="curve"/>
    </contour>
  </outline>
</glyph>
<glyph name="uni01AA" format="2">
  <advance width="523"/>
  <unicode hex="01AA"/>
  <outline>
    <contour>
      <point x="34" y="501.667" type="curve" smooth="yes"/>
      <point x="34" y="613.941"/>
      <point x="113.065" y="687.667"/>
      <point x="228" y="687.667" type="curve" smooth="yes"/>
      <point x="343.338" y="687.667"/>
      <point x="422.667" y="613.732"/>
      <point x="422.667" y="501.667" type="curve" smooth="yes"/>
      <point x="422.667" y="-21.6667" type="line" smooth="yes"/>
      <point x="422.667" y="-98"/>
      <point x="445.333" y="-163.667"/>
      <point x="475" y="-181" type="curve"/>
      <point x="557" y="-94.6667" type="line"/>
      <point x="600" y="-94.6667"/>
      <point x="618" y="-128.333"/>
      <point x="618" y="-163" type="curve" smooth="yes"/>
      <point x="618" y="-208.667"/>
      <point x="568.333" y="-229.667"/>
      <point x="524.333" y="-229.667" type="curve" smooth="yes"/>
      <point x="396.579" y="-229.667"/>
      <point x="316.333" y="-149.265"/>
      <point x="316.333" y="-21.6667" type="curve" smooth="yes"/>
      <point x="316.333" y="335" type="line"/>
      <point x="290.667" y="323.667"/>
      <point x="262.333" y="316.333"/>
      <point x="227.667" y="316.333" type="curve" smooth="yes"/>
      <point x="111.661" y="316.333"/>
      <point x="34" y="389.4"/>
    </contour>
    <contour>
      <point x="139.667" y="501.667" type="curve" smooth="yes"/>
      <point x="139.667" y="432.942"/>
      <point x="156.901" y="356"/>
      <point x="227.667" y="356" type="curve" smooth="yes"/>
      <point x="300" y="356"/>
      <point x="316.333" y="431.333"/>
      <point x="316.333" y="501.667" type="curve" smooth="yes"/>
      <point x="316.333" y="571.561"/>
      <point x="300.051" y="647.667"/>
      <point x="228" y="647.667" type="curve" smooth="yes"/>
      <point x="155" y="647.667"/>
      <point x="139.667" y="572"/>
    </contour>
  </outline>
</glyph>
<glyph name="uni01AD" format="2">
  <advance width="351"/>
  <unicode hex="01AD"/>
  <outline>
    <contour>
      <point x="26" y="429.333" type="line"/>
      <point x="26" y="464.667" type="line"/>
      <point x="92.3333" y="497.667" type="line"/>
      <point x="92.3333" y="634.055"/>
      <point x="148.672" y="738.667"/>
      <point x="288" y="738.667" type="curve" smooth="yes"/>
      <point x="330.745" y="738.667"/>
      <point x="377.667" y="720.04"/>
      <point x="377.667" y="672.667" type="curve" smooth="yes"/>
      <point x="377.667" y="641"/>
      <point x="353.333" y="624.333"/>
      <point x="326.333" y="615.333" type="curve"/>
      <point x="235.333" y="688.667" type="line"/>
      <point x="206" y="666"/>
      <point x="196.667" y="620.333"/>
      <point x="196.667" y="554.667" type="curve" smooth="yes"/>
      <point x="196.667" y="484" type="line"/>
      <point x="337" y="484" type="line"/>
      <point x="337" y="429.333" type="line"/>
      <point x="196.667" y="429.333" type="line"/>
      <point x="196.667" y="152.667" type="line" smooth="yes"/>
      <point x="196.667" y="88"/>
      <point x="217.667" y="51"/>
      <point x="277.333" y="51" type="curve" smooth="yes"/>
      <point x="306.667" y="51"/>
      <point x="333" y="58"/>
      <point x="345" y="64.6667" type="curve"/>
      <point x="345" y="21.3333" type="line"/>
      <point x="321" y="10"/>
      <point x="265.333" y="-12"/>
      <point x="202.333" y="-12" type="curve" smooth="yes"/>
      <point x="121.333" y="-12"/>
      <point x="90.6667" y="23.6667"/>
      <point x="90.6667" y="103.667" type="curve" smooth="yes"/>
      <point x="90.6667" y="429.333" type="line"/>
    </contour>
  </outline>
</glyph>
<glyph name="uni01B1" format="2">
  <advance width="698"/>
  <unicode hex="01B1"/>
  <outline>
    <contour>
      <point x="37.3333" y="311" type="curve" smooth="yes"/>
      <point x="37.3333" y="407.996"/>
      <point x="81.3452" y="523.432"/>
      <point x="144.667" y="595.667" type="curve" smooth="yes"/>
      <point x="147.894" y="599.341"/>
      <point x="149.765" y="603.633"/>
      <point x="149.765" y="607.333" type="curve" smooth="yes"/>
      <point x="149.765" y="613.239"/>
      <point x="145.707" y="616.966"/>
      <point x="139" y="617.667" type="curve"/>
      <point x="65.6667" y="623" type="line"/>
      <point x="65.6667" y="669.667" type="line"/>
      <point x="256.667" y="669.667" type="line"/>
      <point x="187.807" y="528.809"/>
      <point x="168" y="454.38"/>
      <point x="168" y="340.667" type="curve" smooth="yes"/>
      <point x="168" y="155.25"/>
      <point x="235.367" y="45"/>
      <point x="349" y="45" type="curve" smooth="yes"/>
      <point x="462.53" y="45"/>
      <point x="530.333" y="155.907"/>
      <point x="530.333" y="342" type="curve" smooth="yes"/>
      <point x="530.333" y="458.745"/>
      <point x="510.321" y="533.743"/>
      <point x="441.667" y="671" type="curve"/>
      <point x="633" y="671" type="line"/>
      <point x="633" y="624.333" type="line"/>
      <point x="559.333" y="619" type="line"/>
      <point x="552.871" y="618.287"/>
      <point x="548.753" y="614.409"/>
      <point x="548.753" y="609" type="curve" smooth="yes"/>
      <point x="548.753" y="604.775"/>
      <point x="550.549" y="600.509"/>
      <point x="553.667" y="597" type="curve" smooth="yes"/>
      <point x="617.155" y="525.253"/>
      <point x="661.333" y="409.117"/>
      <point x="661.333" y="312.333" type="curve" smooth="yes"/>
      <point x="661.333" y="117.744"/>
      <point x="533.129" y="-17.3333"/>
      <point x="349" y="-17.3333" type="curve" smooth="yes"/>
      <point x="165.574" y="-17.3333"/>
      <point x="37.3333" y="117.511"/>
    </contour>
  </outline>
</glyph>
<glyph name="uni01B2" format="2">
  <advance width="709"/>
  <unicode hex="01B2"/>
  <outline>
    <contour>
      <point x="26.6667" y="630" type="line"/>
      <point x="26.6667" y="671" type="line"/>
      <point x="219" y="671" type="line"/>
      <point x="219" y="229" type="line" smooth="yes"/>
      <point x="219" y="117.889"/>
      <point x="275.354" y="57.6667"/>
      <point x="378" y="57.6667" type="curve" smooth="yes"/>
      <point x="509.447" y="57.6667"/>
      <point x="605" y="181.795"/>
      <point x="605" y="353" type="curve" smooth="yes"/>
      <point x="605" y="434.843"/>
      <point x="573.247" y="511.447"/>
      <point x="520" y="557" type="curve"/>
      <point x="414" y="557" type="line"/>
      <point x="393.314" y="570.569"/>
      <point x="380.667" y="592.667"/>
      <point x="380.667" y="616" type="curve" smooth="yes"/>
      <point x="380.667" y="658.73"/>
      <point x="415.253" y="687"/>
      <point x="468" y="687" type="curve" smooth="yes"/>
      <point x="572.219" y="687"/>
      <point x="671" y="531.083"/>
      <point x="671" y="366.667" type="curve" smooth="yes"/>
      <point x="671" y="127.338"/>
      <point x="545.409" y="-16.6667"/>
      <point x="337" y="-16.6667" type="curve" smooth="yes"/>
      <point x="197.792" y="-16.6667"/>
      <point x="103.667" y="73.9199"/>
      <point x="103.667" y="208" type="curve" smooth="yes"/>
      <point x="103.667" y="604" type="line" smooth="yes"/>
      <point x="103.667" y="615.333"/>
      <point x="95.0303" y="623.97"/>
      <point x="82.6667" y="625" type="curve" smooth="yes"/>
    </contour>
  </outline>
</glyph>
<glyph name="uni01B4" format="2">
  <advance width="657"/>
  <unicode hex="01B4"/>
  <outline>
    <contour>
      <point x="10.6667" y="443" type="line"/>
      <point x="10.6667" y="484" type="line"/>
      <point x="245.667" y="484" type="line"/>
      <point x="245.667" y="443" type="line"/>
      <point x="198.333" y="440" type="line" smooth="yes"/>
      <point x="189.706" y="439.45"/>
      <point x="182.259" y="432.931"/>
      <point x="182.259" y="424.333" type="curve"/>
      <point x="182.259" y="422.394"/>
      <point x="182.514" y="420.075"/>
      <point x="183.333" y="418" type="curve" smooth="yes"/>
      <point x="293.667" y="138.333" type="line"/>
      <point x="400.667" y="425.333" type="line" smooth="yes"/>
      <point x="429.696" y="501.988"/>
      <point x="486.388" y="630"/>
      <point x="586.333" y="630" type="curve" smooth="yes"/>
      <point x="625.565" y="630"/>
      <point x="667.667" y="602.294"/>
      <point x="667.667" y="561.333" type="curve" smooth="yes"/>
      <point x="667.667" y="529.928"/>
      <point x="648.375" y="508.692"/>
      <point x="626.333" y="494.333" type="curve"/>
      <point x="538.667" y="548" type="line"/>
      <point x="495.364" y="516.111"/>
      <point x="469.439" y="449.502"/>
      <point x="446.667" y="389.333" type="curve" smooth="yes"/>
      <point x="294.333" y="-16.6667" type="line" smooth="yes"/>
      <point x="263.079" y="-99.1417"/>
      <point x="211.327" y="-229.667"/>
      <point x="108" y="-229.667" type="curve" smooth="yes"/>
      <point x="69.0387" y="-229.667"/>
      <point x="30" y="-206.534"/>
      <point x="30" y="-165" type="curve" smooth="yes"/>
      <point x="30" y="-133.333"/>
      <point x="49" y="-115"/>
      <point x="70.6667" y="-100.333" type="curve"/>
      <point x="161.667" y="-150.667" type="line"/>
      <point x="198.333" y="-114.667"/>
      <point x="224" y="-49"/>
      <point x="239.667" y="-2.33333" type="curve"/>
      <point x="67" y="437" type="line"/>
    </contour>
  </outline>
</glyph>
<glyph name="uni01BA" format="2">
  <advance width="492"/>
  <unicode hex="01BA"/>
  <outline>
    <contour>
      <point x="34" y="288" type="line"/>
      <point x="34" y="484.667" type="line"/>
      <point x="450.667" y="484.667" type="line"/>
      <point x="450.667" y="424.667" type="line"/>
      <point x="300.333" y="252.333" type="line"/>
      <point x="410.309" y="249.667"/>
      <point x="456.333" y="215.16"/>
      <point x="456.333" y="136" type="curve" smooth="yes"/>
      <point x="456.333" y="75.4099"/>
      <point x="413.107" y="33.4365"/>
      <point x="306.16" y="-10.2195" type="curve" smooth="yes"/>
      <point x="216.899" y="-46.5531"/>
      <point x="179.333" y="-78.6493"/>
      <point x="179.333" y="-119.333" type="curve" smooth="yes"/>
      <point x="179.333" y="-153.195"/>
      <point x="211.835" y="-181"/>
      <point x="251" y="-181" type="curve" smooth="yes"/>
      <point x="279.907" y="-181"/>
      <point x="305.153" y="-172.987"/>
      <point x="331" y="-156" type="curve"/>
      <point x="361.333" y="-67" type="line"/>
      <point x="368.701" y="-62.6435"/>
      <point x="389.936" y="-57"/>
      <point x="399.667" y="-57" type="curve" smooth="yes"/>
      <point x="434.198" y="-57"/>
      <point x="458.333" y="-81.1945"/>
      <point x="458.333" y="-116.333" type="curve" smooth="yes"/>
      <point x="458.333" y="-182.453"/>
      <point x="371.989" y="-229.667"/>
      <point x="250.667" y="-229.667" type="curve" smooth="yes"/>
      <point x="148.246" y="-229.667"/>
      <point x="89.3333" y="-181.71"/>
      <point x="89.3333" y="-98.3333" type="curve" smooth="yes"/>
      <point x="89.3333" y="-44.1596"/>
      <point x="137.98" y="2.28255"/>
      <point x="236.7" y="43.8016" type="curve" smooth="yes"/>
      <point x="319.985" y="78.6403"/>
      <point x="358.333" y="110.587"/>
      <point x="358.333" y="145.667" type="curve" smooth="yes"/>
      <point x="358.333" y="174.036"/>
      <point x="322.788" y="191.667"/>
      <point x="262.333" y="191.667" type="curve" smooth="yes"/>
      <point x="238.167" y="191.667"/>
      <point x="209.487" y="182.513"/>
      <point x="171.333" y="164.667" type="curve"/>
      <point x="157.667" y="186.333" type="line"/>
      <point x="344.667" y="389.333" type="line"/>
      <point x="120.333" y="389.333" type="line" smooth="yes"/>
      <point x="111.619" y="389.333"/>
      <point x="102.18" y="379.287"/>
      <point x="101" y="368.333" type="curve" smooth="yes"/>
      <point x="92.3333" y="288" type="line"/>
    </contour>
  </outline>
</glyph>
<glyph name="uni01BE" format="2">
  <advance width="470"/>
  <unicode hex="01BE"/>
  <outline>
    <contour>
      <point x="43.6667" y="415" type="line"/>
      <point x="43.6667" y="470" type="line"/>
      <point x="165.333" y="470" type="line"/>
      <point x="165.333" y="604" type="line" smooth="yes"/>
      <point x="165.333" y="613.991"/>
      <point x="155.825" y="622.899"/>
      <point x="143.333" y="624" type="curve" smooth="yes"/>
      <point x="88" y="629.333" type="line"/>
      <point x="88" y="672.333" type="line"/>
      <point x="350" y="672.333" type="line"/>
      <point x="350" y="629.333" type="line"/>
      <point x="291.333" y="624" type="line" smooth="yes"/>
      <point x="277.716" y="622.867"/>
      <point x="269.333" y="614.671"/>
      <point x="269.333" y="603.333" type="curve" smooth="yes"/>
      <point x="269.333" y="469.333" type="line"/>
      <point x="389.333" y="469.333" type="line"/>
      <point x="389.333" y="414.333" type="line"/>
      <point x="269.333" y="414.333" type="line"/>
      <point x="269.333" y="373" type="line"/>
      <point x="368.454" y="339.05"/>
      <point x="430.333" y="260.738"/>
      <point x="430.333" y="167.333" type="curve" smooth="yes"/>
      <point x="430.333" y="58.0907"/>
      <point x="344.958" y="-14.6667"/>
      <point x="216.667" y="-14.6667" type="curve" smooth="yes"/>
      <point x="112.613" y="-14.6667"/>
      <point x="37.6667" y="31.141"/>
      <point x="37.6667" y="95" type="curve" smooth="yes"/>
      <point x="37.6667" y="129.547"/>
      <point x="57.8187" y="150.333"/>
      <point x="91.3333" y="150.333" type="curve" smooth="yes"/>
      <point x="107.178" y="150.333"/>
      <point x="120.41" y="146.405"/>
      <point x="135.333" y="137.667" type="curve"/>
      <point x="165" y="51.3333" type="line"/>
      <point x="181.583" y="39.8076"/>
      <point x="196.852" y="35.3333"/>
      <point x="219" y="35.3333" type="curve"/>
      <point x="277.639" y="35.6667"/>
      <point x="319.667" y="93.1595"/>
      <point x="319.667" y="173.333" type="curve" smooth="yes"/>
      <point x="319.667" y="256.431"/>
      <point x="254.502" y="336.243"/>
      <point x="165.333" y="362.667" type="curve"/>
      <point x="165.333" y="415" type="line"/>
    </contour>
  </outline>
</glyph>
<glyph name="uni01C1" format="2">
  <advance width="354"/>
  <unicode hex="01C1"/>
  <outline>
    <contour>
      <point x="80" y="-215" type="line"/>
      <point x="80" y="736" type="line"/>
      <point x="141" y="736" type="line"/>
      <point x="141" y="-215" type="line"/>
    </contour>
    <contour>
      <point x="213.667" y="-215" type="line"/>
      <point x="213.667" y="736" type="line"/>
      <point x="274.333" y="736" type="line"/>
      <point x="274.333" y="-215" type="line"/>
    </contour>
  </outline>
</glyph>
<glyph name="uni01C2" format="2">
  <advance width="416"/>
  <unicode hex="01C2"/>
  <outline>
    <contour>
      <point x="24" y="164" type="line"/>
      <point x="24" y="221.333" type="line"/>
      <point x="392" y="221.333" type="line"/>
      <point x="392" y="164" type="line"/>
    </contour>
    <contour>
      <point x="24" y="298.667" type="line"/>
      <point x="24" y="356.333" type="line"/>
      <point x="392" y="356.333" type="line"/>
      <point x="392" y="298.667" type="line"/>
    </contour>
    <contour>
      <point x="178" y="-215" type="line"/>
      <point x="178" y="736" type="line"/>
      <point x="239" y="736" type="line"/>
      <point x="239" y="-215" type="line"/>
    </contour>
  </outline>
</glyph>
<glyph name="uni01C9" format="2">
  <advance width="610"/>
  <unicode hex="01C9"/>
  <outline>
    <contour>
      <point x="27" y="659.667" type="line"/>
      <point x="27" y="695.333" type="line"/>
      <point x="163.333" y="738" type="line"/>
      <point x="207.667" y="738" type="line"/>
      <point x="207.667" y="66.3333" type="line" smooth="yes"/>
      <point x="207.667" y="56"/>
      <point x="218.667" y="45"/>
      <point x="229" y="44.6667" type="curve" smooth="yes"/>
      <point x="281.667" y="41.6667" type="line"/>
      <point x="281.667" y="0" type="line"/>
      <point x="27.6667" y="0" type="line"/>
      <point x="27.6667" y="41.6667" type="line"/>
      <point x="79.3333" y="44.6667" type="line" smooth="yes"/>
      <point x="89.6667" y="45"/>
      <point x="101.333" y="56"/>
      <point x="101.333" y="66.3333" type="curve" smooth="yes"/>
      <point x="101.333" y="659.667" type="line"/>
    </contour>
    <contour>
      <point x="225.667" y="-167.667" type="curve" smooth="yes"/>
      <point x="225.667" y="-133.667"/>
      <point x="249" y="-114.333"/>
      <point x="275.667" y="-106.667" type="curve"/>
      <point x="373" y="-184.333" type="line"/>
      <point x="410.333" y="-151"/>
      <point x="414.333" y="-65.6667"/>
      <point x="414.333" y="-15.6667" type="curve" smooth="yes"/>
      <point x="414.333" y="418.333" type="line"/>
      <point x="343.333" y="418.333" type="line"/>
      <point x="343.333" y="454" type="line"/>
      <point x="476.333" y="496" type="line"/>
      <point x="520.667" y="496" type="line"/>
      <point x="520.667" y="58.3333" type="line" smooth="yes"/>
      <point x="520.667" y="-98.9108"/>
      <point x="457.838" y="-229.667"/>
      <point x="309.667" y="-229.667" type="curve" smooth="yes"/>
      <point x="264.333" y="-229.667"/>
      <point x="225.667" y="-210.667"/>
    </contour>
    <contour>
      <point x="397.667" y="652.333" type="curve" smooth="yes"/>
      <point x="397.667" y="689.483"/>
      <point x="427.851" y="719.333"/>
      <point x="465" y="719.333" type="curve" smooth="yes"/>
      <point x="502.149" y="719.333"/>
      <point x="532" y="689.483"/>
      <point x="532" y="652.333" type="curve" smooth="yes"/>
      <point x="532" y="615.184"/>
      <point x="502.149" y="585"/>
      <point x="465" y="585" type="curve" smooth="yes"/>
      <point x="427.851" y="585"/>
      <point x="397.667" y="615.184"/>
    </contour>
  </outline>
</glyph>
<glyph name="uni01D0" format="2">
  <advance width="313"/>
  <unicode hex="01D0"/>
  <outline>
    <contour>
      <point x="-10.6667" y="726.333" type="line"/>
      <point x="57.6667" y="726.333" type="line"/>
      <point x="156" y="629" type="line"/>
      <point x="253.667" y="726.333" type="line"/>
      <point x="321.333" y="726.333" type="line"/>
      <point x="200.333" y="556.667" type="line"/>
      <point x="110.333" y="556.667" type="line"/>
    </contour>
    <contour>
      <point x="33.3333" y="0" type="line"/>
      <point x="33.3333" y="41.6667" type="line"/>
      <point x="81.3333" y="44.6667" type="line" smooth="yes"/>
      <point x="92.6667" y="45.6667"/>
      <point x="102.667" y="54.3333"/>
      <point x="102.667" y="66.3333" type="curve" smooth="yes"/>
      <point x="102.667" y="410.333" type="line"/>
      <point x="35.3333" y="410.333" type="line"/>
      <point x="35.3333" y="446" type="line"/>
      <point x="165.333" y="488" type="line"/>
      <point x="209" y="488" type="line"/>
      <point x="209" y="66.3333" type="line" smooth="yes"/>
      <point x="209" y="54.3333"/>
      <point x="219.333" y="45.6667"/>
      <point x="230.667" y="44.6667" type="curve"/>
      <point x="280.667" y="41.6667" type="line"/>
      <point x="280.667" y="0" type="line"/>
    </contour>
  </outline>
</glyph>
<glyph name="uni01DB" format="2">
  <advance width="717"/>
  <unicode hex="01DB"/>
  <outline>
    <contour>
      <point x="28" y="625.333" type="line"/>
      <point x="28" y="671" type="line"/>
      <point x="296" y="671" type="line"/>
      <point x="296" y="625.333" type="line"/>
      <point x="240" y="621" type="line" smooth="yes"/>
      <point x="228.333" y="620"/>
      <point x="218.667" y="611.333"/>
      <point x="218.667" y="599" type="curve" smooth="yes"/>
      <point x="218.667" y="248" type="line" smooth="yes"/>
      <point x="218.667" y="121.667"/>
      <point x="263.333" y="57"/>
      <point x="385.333" y="57" type="curve" smooth="yes"/>
      <point x="504.333" y="57"/>
      <point x="548.667" y="128.667"/>
      <point x="548.667" y="248" type="curve" smooth="yes"/>
      <point x="548.667" y="599" type="line" smooth="yes"/>
      <point x="548.667" y="611.333"/>
      <point x="538.667" y="620"/>
      <point x="526.667" y="621" type="curve" smooth="yes"/>
      <point x="469.667" y="625.333" type="line"/>
      <point x="469.667" y="671" type="line"/>
      <point x="691" y="671" type="line"/>
      <point x="691" y="625.333" type="line"/>
      <point x="634.667" y="621" type="line" smooth="yes"/>
      <point x="623" y="620"/>
      <point x="613.333" y="611.333"/>
      <point x="613.333" y="599" type="curve" smooth="yes"/>
      <point x="613.333" y="233.333" type="line" smooth="yes"/>
      <point x="613.333" y="57"/>
      <point x="523.667" y="-15.3333"/>
      <point x="350.667" y="-15.3333" type="curve" smooth="yes"/>
      <point x="185.333" y="-15.3333"/>
      <point x="103" y="68"/>
      <point x="103" y="233.333" type="curve" smooth="yes"/>
      <point x="103" y="599" type="line" smooth="yes"/>
      <point x="103" y="611.333"/>
      <point x="93.3333" y="620"/>
      <point x="81.3333" y="621" type="curve" smooth="yes"/>
    </contour>
    <contour>
      <point x="196" y="806" type="curve" smooth="yes"/>
      <point x="196" y="839.333"/>
      <point x="222.667" y="866.333"/>
      <point x="256" y="866.333" type="curve" smooth="yes"/>
      <point x="289.333" y="866.333"/>
      <point x="314.667" y="839.333"/>
      <point x="314.667" y="806.667" type="curve" smooth="yes"/>
      <point x="314.667" y="773.333"/>
      <point x="289.333" y="746.333"/>
      <point x="256" y="746.333" type="curve" smooth="yes"/>
      <point x="222.667" y="746.333"/>
      <point x="196" y="772.667"/>
    </contour>
    <contour>
      <point x="404" y="806.667" type="curve" smooth="yes"/>
      <point x="404" y="839.333"/>
      <point x="432" y="866.333"/>
      <point x="464.667" y="866.333" type="curve" smooth="yes"/>
      <point x="497.333" y="866.333"/>
      <point x="522.667" y="840"/>
      <point x="522.667" y="806.667" type="curve" smooth="yes"/>
      <point x="522.667" y="773.333"/>
      <point x="498" y="746.333"/>
      <point x="464.667" y="746.333" type="curve" smooth="yes"/>
      <point x="430.667" y="746.333"/>
      <point x="404" y="772.667"/>
    </contour>
    <contour>
      <point x="150" y="1061" type="curve" smooth="yes"/>
      <point x="150" y="1087.67"/>
      <point x="166.667" y="1108.67"/>
      <point x="199.667" y="1108.67" type="curve" smooth="yes"/>
      <point x="228.667" y="1108.67"/>
      <point x="239.667" y="1099"/>
      <point x="256.667" y="1080" type="curve" smooth="yes"/>
      <point x="391" y="926.333" type="line"/>
      <point x="329.667" y="926.333" type="line"/>
      <point x="174.333" y="1020.33" type="line"/>
      <point x="161" y="1029"/>
      <point x="150" y="1042.67"/>
    </contour>
  </outline>
</glyph>
<glyph name="uni01DC" format="2">
  <advance width="585"/>
  <unicode hex="01DC"/>
  <outline>
    <contour>
      <point x="21.6667" y="404.667" type="line"/>
      <point x="21.6667" y="441" type="line"/>
      <point x="152.667" y="484" type="line"/>
      <point x="196.667" y="484" type="line"/>
      <point x="196.667" y="176" type="line" smooth="yes"/>
      <point x="196.667" y="112.333"/>
      <point x="216.333" y="63.6667"/>
      <point x="292" y="63.6667" type="curve" smooth="yes"/>
      <point x="335.333" y="63.6667"/>
      <point x="370.667" y="78"/>
      <point x="391.333" y="88" type="curve"/>
      <point x="391.333" y="404.667" type="line"/>
      <point x="323.667" y="404.667" type="line"/>
      <point x="323.667" y="441" type="line"/>
      <point x="453.667" y="484" type="line"/>
      <point x="498" y="484" type="line"/>
      <point x="498" y="67" type="line" smooth="yes"/>
      <point x="498" y="55"/>
      <point x="509" y="46.3333"/>
      <point x="520.333" y="45.3333" type="curve" smooth="yes"/>
      <point x="564.333" y="41.6667" type="line"/>
      <point x="564.333" y="0" type="line"/>
      <point x="391.333" y="0" type="line"/>
      <point x="391.333" y="55.6667" type="line"/>
      <point x="366" y="36.3333"/>
      <point x="299.667" y="-12"/>
      <point x="231.333" y="-12" type="curve" smooth="yes"/>
      <point x="128" y="-12"/>
      <point x="90" y="49.6667"/>
      <point x="90" y="150.333" type="curve" smooth="yes"/>
      <point x="90" y="404.667" type="line"/>
    </contour>
    <contour>
      <point x="126" y="616.333" type="curve" smooth="yes"/>
      <point x="126" y="649.667"/>
      <point x="152.333" y="676.667"/>
      <point x="185.667" y="676.667" type="curve" smooth="yes"/>
      <point x="219" y="676.667"/>
      <point x="244.667" y="649.667"/>
      <point x="244.667" y="617" type="curve" smooth="yes"/>
      <point x="244.667" y="583.667"/>
      <point x="219" y="556.667"/>
      <point x="185.667" y="556.667" type="curve" smooth="yes"/>
      <point x="152.333" y="556.667"/>
      <point x="126" y="583"/>
    </contour>
    <contour>
      <point x="334" y="617" type="curve" smooth="yes"/>
      <point x="334" y="649.667"/>
      <point x="361.667" y="676.667"/>
      <point x="394.333" y="676.667" type="curve" smooth="yes"/>
      <point x="427" y="676.667"/>
      <point x="452.667" y="650.333"/>
      <point x="452.667" y="617" type="curve" smooth="yes"/>
      <point x="452.667" y="583.667"/>
      <point x="427.667" y="556.667"/>
      <point x="394.333" y="556.667" type="curve" smooth="yes"/>
      <point x="360.333" y="556.667"/>
      <point x="334" y="583"/>
    </contour>
    <contour>
      <point x="79.6667" y="871.333" type="curve" smooth="yes"/>
      <point x="79.6667" y="898"/>
      <point x="96.3333" y="919"/>
      <point x="129.333" y="919" type="curve" smooth="yes"/>
      <point x="158.333" y="919"/>
      <point x="169.333" y="909.333"/>
      <point x="186.333" y="890.333" type="curve" smooth="yes"/>
      <point x="320.667" y="736.667" type="line"/>
      <point x="259.333" y="736.667" type="line"/>
      <point x="104" y="830.667" type="line"/>
      <point x="90.6667" y="839.333"/>
      <point x="79.6667" y="853"/>
    </contour>
  </outline>
</glyph>
<glyph name="uni01EB" format="2">
  <advance width="556"/>
  <unicode hex="01EB"/>
  <outline>
    <contour>
      <point x="184.333" y="-121.711" type="curve" smooth="yes"/>
      <point x="184.333" y="-73.0444"/>
      <point x="219" y="-31.0444"/>
      <point x="258.333" y="-6.0444" type="curve"/>
      <point x="310.333" y="-6.0444" type="line"/>
      <point x="279" y="-28.0444"/>
      <point x="253.667" y="-59.3777"/>
      <point x="253.667" y="-99.0444" type="curve" smooth="yes"/>
      <point x="253.667" y="-134.377"/>
      <point x="272.333" y="-151.711"/>
      <point x="303.667" y="-151.711" type="curve" smooth="yes"/>
      <point x="323" y="-151.711"/>
      <point x="340.333" y="-142.711"/>
      <point x="352.333" y="-134.044" type="curve"/>
      <point x="377" y="-175.377" type="line"/>
      <point x="350.333" y="-195.044"/>
      <point x="320.667" y="-204.377"/>
      <point x="285" y="-204.377" type="curve" smooth="yes"/>
      <point x="227.333" y="-204.377"/>
      <point x="184.333" y="-176.377"/>
    </contour>
    <contour>
      <point x="32.6667" y="240.667" type="curve" smooth="yes"/>
      <point x="32.6667" y="389.333"/>
      <point x="135" y="496.667"/>
      <point x="280" y="496.667" type="curve" smooth="yes"/>
      <point x="428.333" y="496.667"/>
      <point x="523.333" y="385"/>
      <point x="523.333" y="240.333" type="curve" smooth="yes"/>
      <point x="523.333" y="97.3333"/>
      <point x="424.333" y="-12.6667"/>
      <point x="275.667" y="-12.6667" type="curve" smooth="yes"/>
      <point x="131.667" y="-12.6667"/>
      <point x="32.6667" y="94.6667"/>
    </contour>
    <contour>
      <point x="152" y="242" type="curve" smooth="yes"/>
      <point x="152" y="153.333"/>
      <point x="180.667" y="37.6667"/>
      <point x="278.333" y="37.6667" type="curve" smooth="yes"/>
      <point x="375.333" y="37.6667"/>
      <point x="404.667" y="151"/>
      <point x="404.667" y="240.667" type="curve" smooth="yes"/>
      <point x="404.667" y="329"/>
      <point x="376" y="447.667"/>
      <point x="278.667" y="447.667" type="curve" smooth="yes"/>
      <point x="182" y="447.667"/>
      <point x="152" y="330.667"/>
    </contour>
  </outline>
</glyph>
<glyph name="uni01F0" format="2">
  <advance width="302"/>
  <unicode hex="01F0"/>
  <outline>
    <contour>
      <point x="-82.6667" y="-167.667" type="curve" smooth="yes"/>
      <point x="-82.6667" y="-133.667"/>
      <point x="-59.3333" y="-114.333"/>
      <point x="-32.6667" y="-106.667" type="curve"/>
      <point x="64.6667" y="-184.333" type="line"/>
      <point x="102" y="-151"/>
      <point x="106" y="-67.6667"/>
      <point x="106" y="-16" type="curve" smooth="yes"/>
      <point x="106" y="418.333" type="line"/>
      <point x="35" y="418.333" type="line"/>
      <point x="35" y="454" type="line"/>
      <point x="168" y="496" type="line"/>
      <point x="212.333" y="496" type="line"/>
      <point x="212.333" y="58.3333" type="line" smooth="yes"/>
      <point x="212.333" y="-98.625"/>
      <point x="155.872" y="-229.667"/>
      <point x="1.33333" y="-229.667" type="curve" smooth="yes"/>
      <point x="-44" y="-229.667"/>
      <point x="-82.6667" y="-210.667"/>
    </contour>
    <contour>
      <point x="-7.33333" y="726.333" type="line"/>
      <point x="61" y="726.333" type="line"/>
      <point x="159.333" y="629" type="line"/>
      <point x="257" y="726.333" type="line"/>
      <point x="324.667" y="726.333" type="line"/>
      <point x="203.667" y="556.667" type="line"/>
      <point x="113.667" y="556.667" type="line"/>
    </contour>
  </outline>
</glyph>
<glyph name="uni01F6" format="2">
  <advance width="1024"/>
  <unicode hex="01F6"/>
  <outline>
    <contour>
      <point x="31.3333" y="0" type="line"/>
      <point x="31.3333" y="45.6667" type="line"/>
      <point x="83.3333" y="50" type="line" smooth="yes"/>
      <point x="95.3333" y="51"/>
      <point x="105.333" y="59.6667"/>
      <point x="105.333" y="72" type="curve" smooth="yes"/>
      <point x="105.333" y="599" type="line" smooth="yes"/>
      <point x="105.333" y="611.333"/>
      <point x="95.3333" y="619.333"/>
      <point x="83.3333" y="620.333" type="curve" smooth="yes"/>
      <point x="31.3333" y="624.667" type="line"/>
      <point x="31.3333" y="671" type="line"/>
      <point x="297.333" y="671" type="line"/>
      <point x="297.333" y="624.667" type="line"/>
      <point x="241.667" y="620.333" type="line" smooth="yes"/>
      <point x="229.667" y="619.333"/>
      <point x="220.333" y="611.333"/>
      <point x="220.333" y="599" type="curve" smooth="yes"/>
      <point x="220.333" y="379.333" type="line"/>
      <point x="531.333" y="379.333" type="line"/>
      <point x="531.333" y="599" type="line" smooth="yes"/>
      <point x="531.333" y="610.667"/>
      <point x="521.333" y="619.333"/>
      <point x="510" y="620.333" type="curve" smooth="yes"/>
      <point x="454.667" y="624.667" type="line"/>
      <point x="454.667" y="671" type="line"/>
      <point x="720.333" y="671" type="line"/>
      <point x="720.333" y="624.667" type="line"/>
      <point x="668.333" y="620.333" type="line" smooth="yes"/>
      <point x="656.667" y="619.333"/>
      <point x="646.333" y="611.333"/>
      <point x="646.333" y="599" type="curve" smooth="yes"/>
      <point x="646.333" y="163" type="line" smooth="yes"/>
      <point x="646.333" y="93.3333"/>
      <point x="679.333" y="46.6667"/>
      <point x="748.333" y="46.6667" type="curve" smooth="yes"/>
      <point x="810" y="46.6667"/>
      <point x="840.333" y="96.3333"/>
      <point x="840.333" y="163" type="curve" smooth="yes"/>
      <point x="840.333" y="417" type="line"/>
      <point x="772" y="417" type="line"/>
      <point x="772" y="453.333" type="line"/>
      <point x="902.667" y="496" type="line"/>
      <point x="947" y="496" type="line"/>
      <point x="947" y="162" type="line" smooth="yes"/>
      <point x="947" y="41"/>
      <point x="858.667" y="-16"/>
      <point x="732.333" y="-16" type="curve" smooth="yes"/>
      <point x="608" y="-16"/>
      <point x="531.333" y="44.3333"/>
      <point x="531.333" y="162" type="curve" smooth="yes"/>
      <point x="531.333" y="324.667" type="line"/>
      <point x="220.333" y="324.667" type="line"/>
      <point x="220.333" y="72" type="line" smooth="yes"/>
      <point x="220.333" y="59.6667"/>
      <point x="229.667" y="51"/>
      <point x="241.667" y="50" type="curve" smooth="yes"/>
      <point x="297.333" y="45.6667" type="line"/>
      <point x="297.333" y="0" type="line"/>
    </contour>
  </outline>
</glyph>
<glyph name="aringacute" format="2">
  <advance width="523"/>
  <unicode hex="01FB"/>
  <outline>
    <contour>
      <point x="32.6667" y="119.667" type="curve" smooth="yes"/>
      <point x="32.6667" y="226.333"/>
      <point x="164" y="269"/>
      <point x="332.333" y="306" type="curve"/>
      <point x="332.333" y="347.667" type="line" smooth="yes"/>
      <point x="332.333" y="405"/>
      <point x="309.667" y="446"/>
      <point x="239.667" y="446" type="curve" smooth="yes"/>
      <point x="212.667" y="446"/>
      <point x="190" y="440.333"/>
      <point x="178" y="434.667" type="curve"/>
      <point x="178" y="345" type="line"/>
      <point x="93.3333" y="345" type="line" smooth="yes"/>
      <point x="75" y="345"/>
      <point x="55.3333" y="350"/>
      <point x="55.3333" y="376.333" type="curve" smooth="yes"/>
      <point x="55.3333" y="457"/>
      <point x="173" y="496.667"/>
      <point x="268.333" y="496.667" type="curve" smooth="yes"/>
      <point x="377.333" y="496.667"/>
      <point x="438" y="456.667"/>
      <point x="438" y="338.667" type="curve" smooth="yes"/>
      <point x="438" y="66.3333" type="line" smooth="yes"/>
      <point x="438" y="54.3333"/>
      <point x="448" y="45.6667"/>
      <point x="459.333" y="44.6667" type="curve" smooth="yes"/>
      <point x="506" y="41.6667" type="line"/>
      <point x="506" y="0" type="line"/>
      <point x="345.333" y="0" type="line"/>
      <point x="332.333" y="56" type="line"/>
      <point x="301.667" y="32.6667"/>
      <point x="234.333" y="-12.6667"/>
      <point x="162.333" y="-12.6667" type="curve" smooth="yes"/>
      <point x="89" y="-12.6667"/>
      <point x="32.6667" y="42"/>
    </contour>
    <contour>
      <point x="124" y="677.333" type="curve" smooth="yes"/>
      <point x="124" y="747.333"/>
      <point x="177.667" y="798.667"/>
      <point x="247.333" y="798.667" type="curve" smooth="yes"/>
      <point x="317.333" y="798.667"/>
      <point x="370" y="747.333"/>
      <point x="370" y="677.333" type="curve" smooth="yes"/>
      <point x="370" y="607.333"/>
      <point x="316.667" y="556.667"/>
      <point x="246.667" y="556.667" type="curve" smooth="yes"/>
      <point x="177" y="556.667"/>
      <point x="124" y="607.333"/>
    </contour>
    <contour>
      <point x="146.667" y="134.333" type="curve" smooth="yes"/>
      <point x="146.667" y="88.6667"/>
      <point x="174.333" y="53.6667"/>
      <point x="219.667" y="53.6667" type="curve" smooth="yes"/>
      <point x="262" y="53.6667"/>
      <point x="306.667" y="75"/>
      <point x="332.333" y="92.3333" type="curve"/>
      <point x="332.333" y="262.667" type="line"/>
      <point x="232" y="240"/>
      <point x="146.667" y="211"/>
    </contour>
    <contour>
      <point x="165.333" y="858.667" type="line"/>
      <point x="299.333" y="1012.33" type="line" smooth="yes"/>
      <point x="315" y="1030.67"/>
      <point x="327.667" y="1041"/>
      <point x="355.333" y="1041" type="curve" smooth="yes"/>
      <point x="389.439" y="1041"/>
      <point x="406" y="1020.39"/>
      <point x="406" y="993.333" type="curve" smooth="yes"/>
      <point x="406" y="976.333"/>
      <point x="394.008" y="959.987"/>
      <point x="382" y="952.667" type="curve" smooth="yes"/>
      <point x="226" y="858.667" type="line"/>
    </contour>
    <contour>
      <point x="180.667" y="677.333" type="curve" smooth="yes"/>
      <point x="180.667" y="639"/>
      <point x="208.667" y="610.333"/>
      <point x="246.667" y="610.333" type="curve" smooth="yes"/>
      <point x="285" y="610.333"/>
      <point x="313.333" y="639"/>
      <point x="313.333" y="677.333" type="curve" smooth="yes"/>
      <point x="313.333" y="715.667"/>
      <point x="285" y="745.667"/>
      <point x="246.667" y="745.667" type="curve" smooth="yes"/>
      <point x="208.667" y="745.667"/>
      <point x="180.667" y="715.667"/>
    </contour>
  </outline>
</glyph>
<glyph name="Oslashacute" format="2">
  <advance width="738"/>
  <unicode hex="01FE"/>
  <outline>
    <contour>
      <point x="38.3333" y="337.333" type="curve" smooth="yes"/>
      <point x="38.3333" y="537.667"/>
      <point x="163.333" y="686.333"/>
      <point x="369" y="686.333" type="curve" smooth="yes"/>
      <point x="427" y="686.333"/>
      <point x="478" y="672.333"/>
      <point x="519.333" y="652.333" type="curve"/>
      <point x="575" y="747.333" type="line"/>
      <point x="623.667" y="719" type="line"/>
      <point x="567" y="623.667" type="line"/>
      <point x="647.667" y="562.667"/>
      <point x="702" y="463"/>
      <point x="702" y="334" type="curve" smooth="yes"/>
      <point x="702" y="137"/>
      <point x="572.333" y="-16"/>
      <point x="372" y="-16" type="curve" smooth="yes"/>
      <point x="309.667" y="-16"/>
      <point x="256.667" y="-2.66667"/>
      <point x="212.667" y="20.6667" type="curve"/>
      <point x="152.667" y="-81.6667" type="line"/>
      <point x="105" y="-53" type="line"/>
      <point x="166" y="51" type="line"/>
      <point x="90" y="108"/>
      <point x="38.3333" y="207.667"/>
    </contour>
    <contour>
      <point x="168.333" y="336.333" type="curve" smooth="yes"/>
      <point x="168.333" y="258.333"/>
      <point x="184.333" y="188"/>
      <point x="215" y="135.333" type="curve"/>
      <point x="480" y="587.333" type="line"/>
      <point x="453.333" y="611.667"/>
      <point x="418.333" y="626"/>
      <point x="372.667" y="626" type="curve" smooth="yes"/>
      <point x="224.333" y="626"/>
      <point x="168.333" y="483.667"/>
    </contour>
    <contour>
      <point x="252.667" y="86.6667" type="line"/>
      <point x="281.333" y="59.3333"/>
      <point x="318" y="41"/>
      <point x="368" y="41" type="curve" smooth="yes"/>
      <point x="514" y="41"/>
      <point x="571" y="185.667"/>
      <point x="571" y="331.333" type="curve" smooth="yes"/>
      <point x="571" y="415.333"/>
      <point x="553" y="488.667"/>
      <point x="519.667" y="541.333" type="curve"/>
    </contour>
    <contour>
      <point x="328" y="807.333" type="line"/>
      <point x="462" y="961" type="line" smooth="yes"/>
      <point x="477.667" y="979.333"/>
      <point x="490.333" y="989.667"/>
      <point x="518" y="989.667" type="curve" smooth="yes"/>
      <point x="552.105" y="989.667"/>
      <point x="568.667" y="969.059"/>
      <point x="568.667" y="942" type="curve" smooth="yes"/>
      <point x="568.667" y="925"/>
      <point x="556.675" y="908.654"/>
      <point x="544.667" y="901.333" type="curve" smooth="yes"/>
      <point x="388.667" y="807.333" type="line"/>
    </contour>
  </outline>
</glyph>
<glyph name="uni0204" format="2">
  <advance width="588"/>
  <unicode hex="0204"/>
  <outline>
    <contour>
      <point x="-33.3333" y="881" type="curve" smooth="yes"/>
      <point x="-33.3333" y="910.667"/>
      <point x="-14.6667" y="928.667"/>
      <point x="15.6667" y="928.667" type="curve" smooth="yes"/>
      <point x="41.2103" y="928.667"/>
      <point x="54.7735" y="921.966"/>
      <point x="73.6667" y="900" type="curve" smooth="yes"/>
      <point x="207.667" y="746.333" type="line"/>
      <point x="146" y="746.333" type="line"/>
      <point x="-8.66667" y="840.333" type="line" smooth="yes"/>
      <point x="-23.6745" y="849.569"/>
      <point x="-33.3333" y="865.111"/>
    </contour>
    <contour>
      <point x="30" y="0" type="line"/>
      <point x="30" y="45.6667" type="line"/>
      <point x="83" y="50" type="line" smooth="yes"/>
      <point x="95" y="51"/>
      <point x="105.333" y="59.6667"/>
      <point x="105.333" y="72" type="curve" smooth="yes"/>
      <point x="105.333" y="599" type="line" smooth="yes"/>
      <point x="105.333" y="611.333"/>
      <point x="95" y="620"/>
      <point x="83" y="621" type="curve" smooth="yes"/>
      <point x="30" y="625.333" type="line"/>
      <point x="30" y="671" type="line"/>
      <point x="524" y="671" type="line"/>
      <point x="524" y="518.333" type="line"/>
      <point x="460" y="518.333" type="line"/>
      <point x="444.667" y="600.667" type="line"/>
      <point x="442.667" y="610"/>
      <point x="436.333" y="619.667"/>
      <point x="426.667" y="619.667" type="curve" smooth="yes"/>
      <point x="220" y="619.667" type="line"/>
      <point x="220" y="375.333" type="line"/>
      <point x="359.667" y="375.333" type="line" smooth="yes"/>
      <point x="369.333" y="375.333"/>
      <point x="375.667" y="383"/>
      <point x="377.333" y="392.667" type="curve"/>
      <point x="387" y="461.333" type="line"/>
      <point x="441.667" y="461.333" type="line"/>
      <point x="441.667" y="234.333" type="line"/>
      <point x="387" y="234.333" type="line"/>
      <point x="378" y="303" type="line" smooth="yes"/>
      <point x="377" y="312"/>
      <point x="370.667" y="321"/>
      <point x="360.333" y="321" type="curve" smooth="yes"/>
      <point x="220.667" y="321" type="line"/>
      <point x="220.667" y="52.6667" type="line"/>
      <point x="462" y="52.6667" type="line" smooth="yes"/>
      <point x="470" y="52.6667"/>
      <point x="478.333" y="64.6667"/>
      <point x="479.333" y="71.6667" type="curve" smooth="yes"/>
      <point x="496.333" y="172.333" type="line"/>
      <point x="556.667" y="172.333" type="line"/>
      <point x="556.667" y="0" type="line"/>
    </contour>
    <contour>
      <point x="167.667" y="881" type="curve" smooth="yes"/>
      <point x="167.667" y="910.597"/>
      <point x="187.58" y="929.333"/>
      <point x="218.667" y="929.333" type="curve" smooth="yes"/>
      <point x="242.938" y="929.333"/>
      <point x="255.856" y="922.716"/>
      <point x="274.333" y="900.667" type="curve" smooth="yes"/>
      <point x="408" y="747" type="line"/>
      <point x="348" y="747" type="line"/>
      <point x="193" y="841" type="line" smooth="yes"/>
      <point x="176.943" y="850.343"/>
      <point x="167.667" y="865.24"/>
    </contour>
  </outline>
</glyph>
<glyph name="uni0207" format="2">
  <advance width="503"/>
  <unicode hex="0207"/>
  <outline>
    <contour>
      <point x="33.3333" y="236" type="curve" smooth="yes"/>
      <point x="33.3333" y="387"/>
      <point x="124" y="496.667"/>
      <point x="274" y="496.667" type="curve" smooth="yes"/>
      <point x="409" y="496.667"/>
      <point x="470" y="404.667"/>
      <point x="470" y="283.333" type="curve" smooth="yes"/>
      <point x="470" y="256.667" type="line"/>
      <point x="144" y="256.667" type="line"/>
      <point x="144" y="139"/>
      <point x="194" y="55.6667"/>
      <point x="306" y="55.6667" type="curve" smooth="yes"/>
      <point x="381" y="55.6667"/>
      <point x="436.667" y="94.3333"/>
      <point x="469.333" y="115.667" type="curve"/>
      <point x="469.333" y="48.3333" type="line"/>
      <point x="435.333" y="27.6667"/>
      <point x="367.333" y="-12.6667"/>
      <point x="272.333" y="-12.6667" type="curve" smooth="yes"/>
      <point x="118.333" y="-12.6667"/>
      <point x="33.3333" y="91.6667"/>
    </contour>
    <contour>
      <point x="123" y="556.667" type="line"/>
      <point x="123" y="643.751"/>
      <point x="181.403" y="710.333"/>
      <point x="274.333" y="710.333" type="curve" smooth="yes"/>
      <point x="368.484" y="710.333"/>
      <point x="425" y="644.699"/>
      <point x="425" y="556.667" type="curve"/>
      <point x="381.667" y="556.667" type="line"/>
      <point x="369.333" y="610.411"/>
      <point x="329.333" y="638.333"/>
      <point x="273.667" y="638.333" type="curve" smooth="yes"/>
      <point x="219.073" y="638.333"/>
      <point x="179.188" y="610.411"/>
      <point x="167" y="556.667" type="curve"/>
    </contour>
    <contour>
      <point x="148.333" y="304.667" type="curve"/>
      <point x="355" y="304.667" type="line"/>
      <point x="355" y="326.667" type="line" smooth="yes"/>
      <point x="355" y="393.333"/>
      <point x="327.333" y="443.667"/>
      <point x="263" y="443.667" type="curve" smooth="yes"/>
      <point x="185.667" y="443.667"/>
      <point x="151.667" y="376.333"/>
    </contour>
  </outline>
</glyph>
<glyph name="uni0209" format="2">
  <advance width="313"/>
  <unicode hex="0209"/>
  <outline>
    <contour>
      <point x="-155" y="691.333" type="curve" smooth="yes"/>
      <point x="-155" y="721"/>
      <point x="-136.333" y="739"/>
      <point x="-106" y="739" type="curve" smooth="yes"/>
      <point x="-80.4564" y="739"/>
      <point x="-66.8932" y="732.299"/>
      <point x="-48" y="710.333" type="curve" smooth="yes"/>
      <point x="86" y="556.667" type="line"/>
      <point x="24.3333" y="556.667" type="line"/>
      <point x="-130.333" y="650.667" type="line" smooth="yes"/>
      <point x="-145.341" y="659.903"/>
      <point x="-155" y="675.445"/>
    </contour>
    <contour>
      <point x="33.3333" y="0" type="line"/>
      <point x="33.3333" y="41.6667" type="line"/>
      <point x="81.3333" y="44.6667" type="line" smooth="yes"/>
      <point x="92.6667" y="45.6667"/>
      <point x="102.667" y="54.3333"/>
      <point x="102.667" y="66.3333" type="curve" smooth="yes"/>
      <point x="102.667" y="410.333" type="line"/>
      <point x="35.3333" y="410.333" type="line"/>
      <point x="35.3333" y="446" type="line"/>
      <point x="165.333" y="488" type="line"/>
      <point x="209" y="488" type="line"/>
      <point x="209" y="66.3333" type="line" smooth="yes"/>
      <point x="209" y="54.3333"/>
      <point x="219.333" y="45.6667"/>
      <point x="230.667" y="44.6667" type="curve"/>
      <point x="280.667" y="41.6667" type="line"/>
      <point x="280.667" y="0" type="line"/>
    </contour>
    <contour>
      <point x="46" y="691.333" type="curve" smooth="yes"/>
      <point x="46" y="720.931"/>
      <point x="65.9134" y="739.667"/>
      <point x="97" y="739.667" type="curve" smooth="yes"/>
      <point x="121.271" y="739.667"/>
      <point x="134.189" y="733.049"/>
      <point x="152.667" y="711" type="curve" smooth="yes"/>
      <point x="286.333" y="557.333" type="line"/>
      <point x="226.333" y="557.333" type="line"/>
      <point x="71.3333" y="651.333" type="line" smooth="yes"/>
      <point x="55.2761" y="660.677"/>
      <point x="46" y="675.573"/>
    </contour>
  </outline>
</glyph>
<glyph name="uni020C" format="2">
  <advance width="738"/>
  <unicode hex="020C"/>
  <outline>
    <contour>
      <point x="38.3333" y="338" type="curve" smooth="yes"/>
      <point x="38.3333" y="529.667"/>
      <point x="171.333" y="686.333"/>
      <point x="369" y="686.333" type="curve" smooth="yes"/>
      <point x="565" y="686.333"/>
      <point x="702" y="526"/>
      <point x="702" y="335.333" type="curve" smooth="yes"/>
      <point x="702" y="145"/>
      <point x="565.667" y="-15.3333"/>
      <point x="372" y="-15.3333" type="curve" smooth="yes"/>
      <point x="178.667" y="-15.3333"/>
      <point x="38.3333" y="135.667"/>
    </contour>
    <contour>
      <point x="169" y="337" type="curve" smooth="yes"/>
      <point x="169" y="203"/>
      <point x="226.333" y="41.6667"/>
      <point x="367.333" y="41.6667" type="curve" smooth="yes"/>
      <point x="512" y="41.6667"/>
      <point x="570.333" y="204.333"/>
      <point x="570.333" y="334" type="curve" smooth="yes"/>
      <point x="570.333" y="473"/>
      <point x="512" y="625.333"/>
      <point x="373.333" y="625.333" type="curve" smooth="yes"/>
      <point x="227" y="625.333"/>
      <point x="169" y="468.333"/>
    </contour>
    <contour>
      <point x="58.6667" y="881" type="curve" smooth="yes"/>
      <point x="58.6667" y="910.667"/>
      <point x="77.3333" y="928.667"/>
      <point x="107.667" y="928.667" type="curve" smooth="yes"/>
      <point x="133.21" y="928.667"/>
      <point x="146.773" y="921.966"/>
      <point x="165.667" y="900" type="curve" smooth="yes"/>
      <point x="299.667" y="746.333" type="line"/>
      <point x="238" y="746.333" type="line"/>
      <point x="83.3333" y="840.333" type="line" smooth="yes"/>
      <point x="68.3255" y="849.569"/>
      <point x="58.6667" y="865.111"/>
    </contour>
    <contour>
      <point x="259.667" y="881" type="curve" smooth="yes"/>
      <point x="259.667" y="910.597"/>
      <point x="279.58" y="929.333"/>
      <point x="310.667" y="929.333" type="curve" smooth="yes"/>
      <point x="334.938" y="929.333"/>
      <point x="347.856" y="922.716"/>
      <point x="366.333" y="900.667" type="curve" smooth="yes"/>
      <point x="500" y="747" type="line"/>
      <point x="440" y="747" type="line"/>
      <point x="285" y="841" type="line" smooth="yes"/>
      <point x="268.943" y="850.343"/>
      <point x="259.667" y="865.24"/>
    </contour>
  </outline>
</glyph>
<glyph name="uni020E" format="2">
  <advance width="738"/>
  <unicode hex="020E"/>
  <outline>
    <contour>
      <point x="217.833" y="746.333" type="line"/>
      <point x="217.833" y="833.417"/>
      <point x="276.236" y="900"/>
      <point x="369.167" y="900" type="curve" smooth="yes"/>
      <point x="463.317" y="900"/>
      <point x="520.167" y="834.366"/>
      <point x="520.167" y="746.333" type="curve"/>
      <point x="476.5" y="746.333" type="line"/>
      <point x="464.167" y="800.078"/>
      <point x="424.167" y="828"/>
      <point x="368.5" y="828" type="curve" smooth="yes"/>
      <point x="313.906" y="828"/>
      <point x="274.021" y="800.078"/>
      <point x="261.833" y="746.333" type="curve"/>
    </contour>
    <contour>
      <point x="38.3333" y="338" type="curve" smooth="yes"/>
      <point x="38.3333" y="529.667"/>
      <point x="171.333" y="686.333"/>
      <point x="369" y="686.333" type="curve" smooth="yes"/>
      <point x="565" y="686.333"/>
      <point x="702" y="526"/>
      <point x="702" y="335.333" type="curve" smooth="yes"/>
      <point x="702" y="145"/>
      <point x="565.667" y="-15.3333"/>
      <point x="372" y="-15.3333" type="curve" smooth="yes"/>
      <point x="178.667" y="-15.3333"/>
      <point x="38.3333" y="135.667"/>
    </contour>
    <contour>
      <point x="169" y="337" type="curve" smooth="yes"/>
      <point x="169" y="203"/>
      <point x="226.333" y="41.6667"/>
      <point x="367.333" y="41.6667" type="curve" smooth="yes"/>
      <point x="512" y="41.6667"/>
      <point x="570.333" y="204.333"/>
      <point x="570.333" y="334" type="curve" smooth="yes"/>
      <point x="570.333" y="473"/>
      <point x="512" y="625.333"/>
      <point x="373.333" y="625.333" type="curve" smooth="yes"/>
      <point x="227" y="625.333"/>
      <point x="169" y="468.333"/>
    </contour>
  </outline>
</glyph>
<glyph name="uni020F" format="2">
  <advance width="556"/>
  <unicode hex="020F"/>
  <outline>
    <contour>
      <point x="32.6667" y="240.667" type="curve" smooth="yes"/>
      <point x="32.6667" y="389.333"/>
      <point x="135" y="496.667"/>
      <point x="280" y="496.667" type="curve" smooth="yes"/>
      <point x="428.333" y="496.667"/>
      <point x="523.333" y="385"/>
      <point x="523.333" y="240.333" type="curve" smooth="yes"/>
      <point x="523.333" y="97.3333"/>
      <point x="424.333" y="-12.6667"/>
      <point x="275.667" y="-12.6667" type="curve" smooth="yes"/>
      <point x="131.667" y="-12.6667"/>
      <point x="32.6667" y="94.6667"/>
    </contour>
    <contour>
      <point x="129" y="556.667" type="line"/>
      <point x="129" y="643.751"/>
      <point x="187.403" y="710.333"/>
      <point x="280.333" y="710.333" type="curve" smooth="yes"/>
      <point x="374.484" y="710.333"/>
      <point x="431" y="644.699"/>
      <point x="431" y="556.667" type="curve"/>
      <point x="387.667" y="556.667" type="line"/>
      <point x="375.333" y="610.411"/>
      <point x="335.333" y="638.333"/>
      <point x="279.667" y="638.333" type="curve" smooth="yes"/>
      <point x="225.073" y="638.333"/>
      <point x="185.188" y="610.411"/>
      <point x="173" y="556.667" type="curve"/>
    </contour>
    <contour>
      <point x="152" y="242" type="curve" smooth="yes"/>
      <point x="152" y="153.333"/>
      <point x="180.667" y="37.6667"/>
      <point x="278.333" y="37.6667" type="curve" smooth="yes"/>
      <point x="375.333" y="37.6667"/>
      <point x="404.667" y="151"/>
      <point x="404.667" y="240.667" type="curve" smooth="yes"/>
      <point x="404.667" y="329"/>
      <point x="376" y="447.667"/>
      <point x="278.667" y="447.667" type="curve" smooth="yes"/>
      <point x="182" y="447.667"/>
      <point x="152" y="330.667"/>
    </contour>
  </outline>
</glyph>
<glyph name="uni0216" format="2">
  <advance width="717"/>
  <unicode hex="0216"/>
  <outline>
    <contour>
      <point x="28" y="625.333" type="line"/>
      <point x="28" y="671" type="line"/>
      <point x="296" y="671" type="line"/>
      <point x="296" y="625.333" type="line"/>
      <point x="240" y="621" type="line" smooth="yes"/>
      <point x="228.333" y="620"/>
      <point x="218.667" y="611.333"/>
      <point x="218.667" y="599" type="curve" smooth="yes"/>
      <point x="218.667" y="248" type="line" smooth="yes"/>
      <point x="218.667" y="121.667"/>
      <point x="263.333" y="57"/>
      <point x="385.333" y="57" type="curve" smooth="yes"/>
      <point x="504.333" y="57"/>
      <point x="548.667" y="128.667"/>
      <point x="548.667" y="248" type="curve" smooth="yes"/>
      <point x="548.667" y="599" type="line" smooth="yes"/>
      <point x="548.667" y="611.333"/>
      <point x="538.667" y="620"/>
      <point x="526.667" y="621" type="curve" smooth="yes"/>
      <point x="469.667" y="625.333" type="line"/>
      <point x="469.667" y="671" type="line"/>
      <point x="691" y="671" type="line"/>
      <point x="691" y="625.333" type="line"/>
      <point x="634.667" y="621" type="line" smooth="yes"/>
      <point x="623" y="620"/>
      <point x="613.333" y="611.333"/>
      <point x="613.333" y="599" type="curve" smooth="yes"/>
      <point x="613.333" y="233.333" type="line" smooth="yes"/>
      <point x="613.333" y="57"/>
      <point x="523.667" y="-15.3333"/>
      <point x="350.667" y="-15.3333" type="curve" smooth="yes"/>
      <point x="185.333" y="-15.3333"/>
      <point x="103" y="68"/>
      <point x="103" y="233.333" type="curve" smooth="yes"/>
      <point x="103" y="599" type="line" smooth="yes"/>
      <point x="103" y="611.333"/>
      <point x="93.3333" y="620"/>
      <point x="81.3333" y="621" type="curve" smooth="yes"/>
    </contour>
    <contour>
      <point x="208.333" y="746.333" type="line"/>
      <point x="208.333" y="833.417"/>
      <point x="266.736" y="900"/>
      <point x="359.667" y="900" type="curve" smooth="yes"/>
      <point x="453.817" y="900"/>
      <point x="510.667" y="834.366"/>
      <point x="510.667" y="746.333" type="curve"/>
      <point x="467" y="746.333" type="line"/>
      <point x="454.667" y="800.078"/>
      <point x="414.667" y="828"/>
      <point x="359" y="828" type="curve" smooth="yes"/>
      <point x="304.406" y="828"/>
      <point x="264.521" y="800.078"/>
      <point x="252.333" y="746.333" type="curve"/>
    </contour>
  </outline>
</glyph>
<glyph name="uni021C" format="2">
  <advance width="537"/>
  <unicode hex="021C"/>
  <outline>
    <contour>
      <point x="38" y="485" type="line"/>
      <point x="38" y="636.333" type="line"/>
      <point x="112.967" y="673"/>
      <point x="178.895" y="685.666"/>
      <point x="254.333" y="685.666" type="curve" smooth="yes"/>
      <point x="381.177" y="685.666"/>
      <point x="476" y="618.427"/>
      <point x="476" y="518.666" type="curve" smooth="yes"/>
      <point x="476" y="441.429"/>
      <point x="433.827" y="382.736"/>
      <point x="342.333" y="325.999" type="curve"/>
      <point x="434.34" y="306.175"/>
      <point x="494.667" y="245.96"/>
      <point x="494.667" y="165.999" type="curve" smooth="yes"/>
      <point x="494.667" y="27.2193"/>
      <point x="320.675" y="-88.5699"/>
      <point x="59.6667" y="-161.001" type="curve"/>
      <point x="59.6667" y="-98.6673" type="line"/>
      <point x="256.057" y="-37.0314"/>
      <point x="373.333" y="58.0405"/>
      <point x="373.333" y="156" type="curve" smooth="yes"/>
      <point x="373.333" y="224.667"/>
      <point x="334.099" y="278.568"/>
      <point x="260.667" y="281.667" type="curve"/>
      <point x="216.543" y="260.476"/>
      <point x="172.085" y="242.675"/>
      <point x="126.667" y="227" type="curve"/>
      <point x="126.667" y="289.333" type="line"/>
      <point x="278.088" y="345.631"/>
      <point x="359.333" y="421.409"/>
      <point x="359.333" y="506" type="curve" smooth="yes"/>
      <point x="359.333" y="581.893"/>
      <point x="306.313" y="629.667"/>
      <point x="232.333" y="629.667" type="curve" smooth="yes"/>
      <point x="190.439" y="629.667"/>
      <point x="148.025" y="615.17"/>
      <point x="120.333" y="591.333" type="curve"/>
      <point x="102.333" y="485" type="line"/>
    </contour>
  </outline>
</glyph>
<glyph name="uni0222" format="2">
  <advance width="593"/>
  <unicode hex="0222"/>
  <outline>
    <contour>
      <point x="33" y="182.667" type="curve" smooth="yes"/>
      <point x="33" y="291"/>
      <point x="111.667" y="348.333"/>
      <point x="210.667" y="359.667" type="curve"/>
      <point x="134.825" y="368.891"/>
      <point x="60.3333" y="421.758"/>
      <point x="60.3333" y="515" type="curve" smooth="yes"/>
      <point x="60.3333" y="635.36"/>
      <point x="172.462" y="689"/>
      <point x="294.667" y="689" type="curve" smooth="yes"/>
      <point x="418.16" y="689"/>
      <point x="528.667" y="635.476"/>
      <point x="528.667" y="515" type="curve" smooth="yes"/>
      <point x="528.667" y="417.667"/>
      <point x="453.667" y="373"/>
      <point x="377.333" y="359" type="curve"/>
      <point x="472.909" y="341.81"/>
      <point x="553" y="292.467"/>
      <point x="553" y="183.333" type="curve" smooth="yes"/>
      <point x="553" y="59.0797"/>
      <point x="427.077" y="-12.6667"/>
      <point x="293.333" y="-12.6667" type="curve" smooth="yes"/>
      <point x="153.766" y="-12.6667"/>
      <point x="33" y="55.9431"/>
    </contour>
    <contour>
      <point x="160.667" y="188.667" type="curve" smooth="yes"/>
      <point x="160.667" y="104.247"/>
      <point x="206.803" y="41"/>
      <point x="295.333" y="41" type="curve" smooth="yes"/>
      <point x="376.535" y="41"/>
      <point x="430" y="110.135"/>
      <point x="430" y="189.333" type="curve" smooth="yes"/>
      <point x="430" y="272.852"/>
      <point x="374.439" y="331"/>
      <point x="296" y="331" type="curve" smooth="yes"/>
      <point x="217.559" y="331"/>
      <point x="160.667" y="265.771"/>
    </contour>
    <contour>
      <point x="176.667" y="514.667" type="curve" smooth="yes"/>
      <point x="176.667" y="446.138"/>
      <point x="223.388" y="387.333"/>
      <point x="294.667" y="387.333" type="curve" smooth="yes"/>
      <point x="366.213" y="387.333"/>
      <point x="412" y="446.5"/>
      <point x="412" y="514.667" type="curve" smooth="yes"/>
      <point x="412" y="587.413"/>
      <point x="364" y="638"/>
      <point x="295.333" y="638" type="curve" smooth="yes"/>
      <point x="222.993" y="638"/>
      <point x="176.667" y="588.564"/>
    </contour>
  </outline>
</glyph>
<glyph name="uni0223" format="2">
  <advance width="529"/>
  <unicode hex="0223"/>
  <outline>
    <contour>
      <point x="34" y="193.333" type="curve" smooth="yes"/>
      <point x="34" y="296.219"/>
      <point x="108.609" y="365.214"/>
      <point x="199.333" y="384.333" type="curve"/>
      <point x="122.784" y="396.425"/>
      <point x="57.6667" y="457.539"/>
      <point x="57.6667" y="551.667" type="curve" smooth="yes"/>
      <point x="57.6667" y="668.426"/>
      <point x="146.636" y="738.667"/>
      <point x="265.667" y="738.667" type="curve" smooth="yes"/>
      <point x="385.743" y="738.667"/>
      <point x="472.333" y="665.277"/>
      <point x="472.333" y="552.333" type="curve" smooth="yes"/>
      <point x="472.333" y="460.009"/>
      <point x="406.042" y="398.282"/>
      <point x="330.667" y="385" type="curve"/>
      <point x="419.658" y="364.205"/>
      <point x="496.667" y="294.787"/>
      <point x="496.667" y="193.333" type="curve" smooth="yes"/>
      <point x="496.667" y="74.0654"/>
      <point x="395.241" y="-12.6667"/>
      <point x="265.667" y="-12.6667" type="curve" smooth="yes"/>
      <point x="130.158" y="-12.6667"/>
      <point x="34" y="71.1499"/>
    </contour>
    <contour>
      <point x="152" y="203" type="curve" smooth="yes"/>
      <point x="152" y="114.504"/>
      <point x="177.191" y="41.6667"/>
      <point x="265" y="41.6667" type="curve" smooth="yes"/>
      <point x="348.667" y="41.6667"/>
      <point x="377.333" y="118.333"/>
      <point x="377.333" y="203" type="curve" smooth="yes"/>
      <point x="377.333" y="289.754"/>
      <point x="344.189" y="355.667"/>
      <point x="264.667" y="355.667" type="curve" smooth="yes"/>
      <point x="186.333" y="355.667"/>
      <point x="152" y="287.333"/>
    </contour>
    <contour>
      <point x="171.333" y="554.333" type="curve" smooth="yes"/>
      <point x="171.333" y="479.547"/>
      <point x="194.327" y="413.667"/>
      <point x="264.667" y="413.667" type="curve" smooth="yes"/>
      <point x="333.667" y="413.667"/>
      <point x="357" y="481"/>
      <point x="357" y="553.667" type="curve" smooth="yes"/>
      <point x="357" y="628.082"/>
      <point x="331.271" y="689.333"/>
      <point x="264.333" y="689.333" type="curve" smooth="yes"/>
      <point x="194.333" y="689.333"/>
      <point x="171.333" y="624"/>
    </contour>
  </outline>
</glyph>
<glyph name="uni0236" format="2">
  <advance width="351"/>
  <unicode hex="0236"/>
  <outline>
    <contour>
      <point x="-26.3333" y="-90.6667" type="line"/>
      <point x="2.13221" y="-20.3384"/>
      <point x="43.8915" y="46.905"/>
      <point x="90.6667" y="97.6667" type="curve"/>
      <point x="90.6667" y="429.333" type="line"/>
      <point x="26" y="429.333" type="line"/>
      <point x="26" y="464.667" type="line"/>
      <point x="97" y="501.333" type="line"/>
      <point x="145" y="607.333" type="line"/>
      <point x="197.333" y="607.333" type="line"/>
      <point x="197.333" y="484" type="line"/>
      <point x="337.667" y="484" type="line"/>
      <point x="337.667" y="429.333" type="line"/>
      <point x="197.333" y="429.333" type="line"/>
      <point x="197.333" y="179" type="line"/>
      <point x="226.16" y="195.067"/>
      <point x="248" y="201.333"/>
      <point x="276.333" y="201.333" type="curve" smooth="yes"/>
      <point x="333.298" y="201.333"/>
      <point x="371.333" y="166.452"/>
      <point x="371.333" y="114" type="curve" smooth="yes"/>
      <point x="371.333" y="40.7414"/>
      <point x="310.162" y="-12.6667"/>
      <point x="228" y="-12.6667" type="curve" smooth="yes"/>
      <point x="166.889" y="-12.6667"/>
      <point x="127.861" y="4.29457"/>
      <point x="108.333" y="38.6667" type="curve"/>
      <point x="74.7087" y="-2.80053"/>
      <point x="41.1479" y="-58.8703"/>
      <point x="18.3333" y="-111" type="curve"/>
    </contour>
    <contour>
      <point x="197.333" y="123" type="curve"/>
      <point x="197.333" y="71.195"/>
      <point x="215.367" y="43"/>
      <point x="248.333" y="43" type="curve" smooth="yes"/>
      <point x="282.631" y="43"/>
      <point x="312.333" y="74.2381"/>
      <point x="312.333" y="110" type="curve" smooth="yes"/>
      <point x="312.333" y="136"/>
      <point x="298.381" y="149.333"/>
      <point x="271.333" y="149.333" type="curve" smooth="yes"/>
      <point x="244.476" y="149.333"/>
      <point x="226.611" y="143.074"/>
    </contour>
  </outline>
</glyph>
<glyph name="uni0238" format="2">
  <advance width="862"/>
  <unicode hex="0238"/>
  <outline>
    <contour>
      <point x="32.6667" y="229.667" type="curve" smooth="yes"/>
      <point x="32.6667" y="391.167"/>
      <point x="133.597" y="496"/>
      <point x="289.667" y="496" type="curve" smooth="yes"/>
      <point x="316.5" y="496"/>
      <point x="349.769" y="491.718"/>
      <point x="382.667" y="484" type="curve"/>
      <point x="382.667" y="659.667" type="line"/>
      <point x="307.333" y="659.667" type="line"/>
      <point x="307.333" y="695.333" type="line"/>
      <point x="444.667" y="738" type="line"/>
      <point x="488.333" y="738" type="line"/>
      <point x="488.333" y="456.667" type="line"/>
      <point x="542.089" y="484.268"/>
      <point x="584.865" y="496.667"/>
      <point x="628.667" y="496.667" type="curve" smooth="yes"/>
      <point x="749.862" y="496.667"/>
      <point x="827.667" y="407.241"/>
      <point x="827.667" y="268" type="curve" smooth="yes"/>
      <point x="827.667" y="99.9639"/>
      <point x="720.817" y="0.666667"/>
      <point x="539.333" y="0.666667" type="curve" smooth="yes"/>
      <point x="382.667" y="0.666667" type="line"/>
      <point x="382.667" y="55.3333" type="line"/>
      <point x="327.9" y="11.2778"/>
      <point x="273.759" y="-12"/>
      <point x="226" y="-12" type="curve" smooth="yes"/>
      <point x="110.25" y="-12"/>
      <point x="32.6667" y="84.7293"/>
    </contour>
    <contour>
      <point x="147.333" y="249.333" type="curve" smooth="yes"/>
      <point x="147.333" y="132.483"/>
      <point x="198.413" y="65.3333"/>
      <point x="287.333" y="65.3333" type="curve" smooth="yes"/>
      <point x="318.009" y="65.3333"/>
      <point x="347.781" y="74.2719"/>
      <point x="382" y="95" type="curve"/>
      <point x="382" y="429.333" type="line"/>
      <point x="354.042" y="439.542"/>
      <point x="325.778" y="445.333"/>
      <point x="301.667" y="445.333" type="curve" smooth="yes"/>
      <point x="206.17" y="445.333"/>
      <point x="147.333" y="370.566"/>
    </contour>
    <contour>
      <point x="488.333" y="52" type="line"/>
      <point x="497.553" y="51.1755"/>
      <point x="507.817" y="51"/>
      <point x="528" y="51" type="curve" smooth="yes"/>
      <point x="654.1" y="51"/>
      <point x="711.333" y="111.665"/>
      <point x="711.333" y="245.333" type="curve" smooth="yes"/>
      <point x="711.333" y="363.775"/>
      <point x="657.506" y="430.333"/>
      <point x="561.333" y="430.333" type="curve" smooth="yes"/>
      <point x="536.771" y="430.333"/>
      <point x="513.245" y="426.3"/>
      <point x="488.333" y="417.667" type="curve"/>
    </contour>
  </outline>
</glyph>
<glyph name="uni023A" format="2">
  <advance width="677"/>
  <unicode hex="023A"/>
  <outline>
    <contour>
      <point x="5" y="0" type="line"/>
      <point x="5" y="46.3333" type="line"/>
      <point x="62.3333" y="57" type="line"/>
      <point x="292.333" y="687.667" type="line"/>
      <point x="380.333" y="687.667" type="line"/>
      <point x="609" y="73" type="line" smooth="yes"/>
      <point x="613.578" y="61.2573"/>
      <point x="618.213" y="55.6584"/>
      <point x="630.333" y="53.3333" type="curve" smooth="yes"/>
      <point x="673" y="45.6667" type="line"/>
      <point x="673" y="0" type="line"/>
      <point x="422.333" y="0" type="line"/>
      <point x="422.333" y="46.3333" type="line"/>
      <point x="480.667" y="52" type="line"/>
      <point x="485.694" y="52.6231"/>
      <point x="490.972" y="59.718"/>
      <point x="490.972" y="65.6667" type="curve"/>
      <point x="490.972" y="66.7162"/>
      <point x="490.895" y="68.0614"/>
      <point x="490.333" y="69" type="curve"/>
      <point x="426.333" y="244" type="line"/>
      <point x="201" y="244" type="line"/>
      <point x="138.667" y="72.3333" type="line"/>
      <point x="137.907" y="70.5035"/>
      <point x="137.71" y="69.0515"/>
      <point x="137.71" y="67.3333" type="curve"/>
      <point x="137.71" y="60.3604"/>
      <point x="143.629" y="54.8461"/>
      <point x="150" y="54" type="curve" smooth="yes"/>
      <point x="210.667" y="46.3333" type="line"/>
      <point x="210.667" y="0" type="line"/>
    </contour>
    <contour>
      <point x="77.6667" y="-52.3333" type="line"/>
      <point x="547.667" y="748.667" type="line"/>
      <point x="596.333" y="720.333" type="line"/>
      <point x="125.333" y="-81" type="line"/>
    </contour>
    <contour>
      <point x="219.333" y="295.667" type="line"/>
      <point x="406" y="295.667" type="line"/>
      <point x="312" y="550.333" type="line"/>
    </contour>
  </outline>
</glyph>
<glyph name="uni024A" format="2">
  <advance width="722"/>
  <unicode hex="024A"/>
  <outline>
    <contour>
      <point x="38.3333" y="336" type="curve" smooth="yes"/>
      <point x="38.3333" y="549.308"/>
      <point x="177.394" y="687.667"/>
      <point x="392.333" y="687.667" type="curve" smooth="yes"/>
      <point x="490.311" y="687.667"/>
      <point x="560.319" y="673.674"/>
      <point x="621" y="641.667" type="curve"/>
      <point x="621" y="-33.3333" type="line" smooth="yes"/>
      <point x="621" y="-120.163"/>
      <point x="646.387" y="-171"/>
      <point x="690" y="-174.333" type="curve"/>
      <point x="767.333" y="-79" type="line"/>
      <point x="799.082" y="-80.6667"/>
      <point x="830" y="-115.116"/>
      <point x="830" y="-148" type="curve" smooth="yes"/>
      <point x="830" y="-195.917"/>
      <point x="768.953" y="-230.333"/>
      <point x="683.667" y="-230.333" type="curve" smooth="yes"/>
      <point x="572.197" y="-230.333"/>
      <point x="505.333" y="-156.203"/>
      <point x="505.333" y="-33.3333" type="curve" smooth="yes"/>
      <point x="505.333" y="25" type="line"/>
      <point x="475.05" y="-0.949773"/>
      <point x="437.035" y="-14"/>
      <point x="391.333" y="-14" type="curve" smooth="yes"/>
      <point x="163.065" y="-14"/>
      <point x="38.3333" y="109.437"/>
    </contour>
    <contour>
      <point x="169.333" y="334.667" type="curve" smooth="yes"/>
      <point x="169.333" y="147.937"/>
      <point x="252.984" y="38"/>
      <point x="395.333" y="38" type="curve" smooth="yes"/>
      <point x="433.787" y="38"/>
      <point x="468.432" y="53.0078"/>
      <point x="506" y="86.3333" type="curve"/>
      <point x="506" y="599" type="line"/>
      <point x="480.448" y="624.552"/>
      <point x="453.307" y="635.333"/>
      <point x="414.333" y="635.333" type="curve" smooth="yes"/>
      <point x="258.629" y="635.333"/>
      <point x="169.333" y="525.733"/>
    </contour>
  </outline>
</glyph>
<glyph name="uni0254" format="2">
  <advance width="477"/>
  <unicode hex="0254"/>
  <outline>
    <contour>
      <point x="33.3333" y="381" type="curve"/>
      <point x="33.3333" y="443.667" type="line"/>
      <point x="95.3597" y="479.021"/>
      <point x="150.762" y="495.333"/>
      <point x="210.667" y="495.333" type="curve" smooth="yes"/>
      <point x="351.037" y="495.333"/>
      <point x="444.333" y="396.205"/>
      <point x="444.333" y="246.333" type="curve" smooth="yes"/>
      <point x="444.333" y="91.8149"/>
      <point x="344.747" y="-12.6667"/>
      <point x="197.667" y="-12.6667" type="curve" smooth="yes"/>
      <point x="98.7504" y="-12.6667"/>
      <point x="36.3333" y="27.4675"/>
      <point x="36.3333" y="91.3333" type="curve" smooth="yes"/>
      <point x="36.3333" y="129.13"/>
      <point x="62.1265" y="154.667"/>
      <point x="99.6667" y="154.667" type="curve" smooth="yes"/>
      <point x="122.333" y="154.667"/>
      <point x="136.722" y="150.222"/>
      <point x="155.333" y="137" type="curve"/>
      <point x="155.333" y="41.6667" type="line"/>
      <point x="167.667" y="35.6667"/>
      <point x="177.667" y="33"/>
      <point x="189.667" y="33" type="curve" smooth="yes"/>
      <point x="272.618" y="33"/>
      <point x="327.333" y="110.941"/>
      <point x="327.333" y="229" type="curve" smooth="yes"/>
      <point x="327.333" y="351.318"/>
      <point x="266.404" y="426"/>
      <point x="166.667" y="426" type="curve" smooth="yes"/>
      <point x="123.481" y="426"/>
      <point x="74.0767" y="409.374"/>
    </contour>
  </outline>
</glyph>
<glyph name="uni0255" format="2">
  <advance width="477"/>
  <unicode hex="0255"/>
  <outline>
    <contour>
      <point x="34" y="236.667" type="curve" smooth="yes"/>
      <point x="34" y="391.297"/>
      <point x="133.513" y="496"/>
      <point x="280" y="496" type="curve" smooth="yes"/>
      <point x="377.533" y="496"/>
      <point x="440.37" y="455.357"/>
      <point x="440.37" y="392.667" type="curve" smooth="yes"/>
      <point x="440.37" y="355.643"/>
      <point x="413.655" y="328.333"/>
      <point x="378" y="328.333" type="curve" smooth="yes"/>
      <point x="354.625" y="328.333"/>
      <point x="339.303" y="333.303"/>
      <point x="322.333" y="346" type="curve"/>
      <point x="322.333" y="442.333" type="line"/>
      <point x="313.049" y="448.207"/>
      <point x="300.282" y="451.667"/>
      <point x="288" y="451.667" type="curve" smooth="yes"/>
      <point x="205.807" y="451.667"/>
      <point x="150.333" y="371.083"/>
      <point x="150.333" y="252" type="curve" smooth="yes"/>
      <point x="150.333" y="163.231"/>
      <point x="173.781" y="105.325"/>
      <point x="220.667" y="76" type="curve"/>
      <point x="244.037" y="168.671"/>
      <point x="288.607" y="212"/>
      <point x="360" y="212" type="curve" smooth="yes"/>
      <point x="413.055" y="212"/>
      <point x="452" y="173.495"/>
      <point x="452" y="120.667" type="curve" smooth="yes"/>
      <point x="452" y="43.7226"/>
      <point x="379.663" y="-12.6667"/>
      <point x="281" y="-12.6667" type="curve" smooth="yes"/>
      <point x="271.311" y="-12.6667"/>
      <point x="261.73" y="-11.7952"/>
      <point x="254.667" y="-10.6667" type="curve"/>
      <point x="246.457" y="-54.5555"/>
      <point x="242.333" y="-93.3333"/>
      <point x="242.333" y="-128" type="curve"/>
      <point x="196" y="-128" type="line"/>
      <point x="196" y="-93"/>
      <point x="199.833" y="-51.0833"/>
      <point x="208" y="-1.66667" type="curve"/>
      <point x="101.916" y="27.2351"/>
      <point x="34" y="120.124"/>
    </contour>
    <contour>
      <point x="270.667" y="58.3333" type="curve"/>
      <point x="287.238" y="54.7593"/>
      <point x="295.282" y="54"/>
      <point x="310.667" y="54" type="curve" smooth="yes"/>
      <point x="353.005" y="54"/>
      <point x="388" y="85.4479"/>
      <point x="388" y="123.333" type="curve" smooth="yes"/>
      <point x="388" y="145.07"/>
      <point x="373.283" y="159.667"/>
      <point x="351.333" y="159.667" type="curve" smooth="yes"/>
      <point x="313.019" y="159.667"/>
      <point x="288.763" y="128.96"/>
    </contour>
  </outline>
</glyph>
<glyph name="uni0256" format="2">
  <advance width="595"/>
  <unicode hex="0256"/>
  <outline>
    <contour>
      <point x="32.6667" y="230.333" type="curve" smooth="yes"/>
      <point x="32.6667" y="391.834"/>
      <point x="133.597" y="496.667"/>
      <point x="289.667" y="496.667" type="curve" smooth="yes"/>
      <point x="316.5" y="496.667"/>
      <point x="352.436" y="492.385"/>
      <point x="382.667" y="485.667" type="curve"/>
      <point x="382.667" y="660.333" type="line"/>
      <point x="307.333" y="660.333" type="line"/>
      <point x="307.333" y="696" type="line"/>
      <point x="445.333" y="738.667" type="line"/>
      <point x="489" y="738.667" type="line"/>
      <point x="489" y="-19" type="line" smooth="yes"/>
      <point x="489" y="-112.256"/>
      <point x="503.255" y="-160.569"/>
      <point x="537.667" y="-178.333" type="curve"/>
      <point x="628.667" y="-95" type="line"/>
      <point x="658.493" y="-106.765"/>
      <point x="675.333" y="-129.349"/>
      <point x="675.333" y="-158.667" type="curve" smooth="yes"/>
      <point x="675.333" y="-201.887"/>
      <point x="633.581" y="-228.333"/>
      <point x="565.333" y="-228.333" type="curve" smooth="yes"/>
      <point x="450.345" y="-228.333"/>
      <point x="382.667" y="-150.456"/>
      <point x="382.667" y="-18.3333" type="curve" smooth="yes"/>
      <point x="382.667" y="56" type="line"/>
      <point x="327.547" y="11.6772"/>
      <point x="274.037" y="-11.3333"/>
      <point x="226" y="-11.3333" type="curve" smooth="yes"/>
      <point x="110.062" y="-11.3333"/>
      <point x="32.6667" y="85.1608"/>
    </contour>
    <contour>
      <point x="148" y="248.667" type="curve" smooth="yes"/>
      <point x="148" y="131.817"/>
      <point x="199.08" y="64.6667"/>
      <point x="288" y="64.6667" type="curve" smooth="yes"/>
      <point x="319.009" y="64.6667"/>
      <point x="347.115" y="73.2719"/>
      <point x="382.667" y="94.3333" type="curve"/>
      <point x="382.667" y="429.667" type="line"/>
      <point x="357.042" y="438.875"/>
      <point x="326.445" y="444.667"/>
      <point x="302.333" y="444.667" type="curve" smooth="yes"/>
      <point x="206.837" y="444.667"/>
      <point x="148" y="369.899"/>
    </contour>
  </outline>
</glyph>
<glyph name="uni025D" format="2">
  <advance width="581"/>
  <unicode hex="025D"/>
  <outline>
    <contour>
      <point x="31.6667" y="62.6667" type="curve"/>
      <point x="31.6667" y="127.667" type="line"/>
      <point x="93.7265" y="68.4323"/>
      <point x="149.111" y="42"/>
      <point x="210" y="42" type="curve" smooth="yes"/>
      <point x="273.778" y="42"/>
      <point x="309.667" y="76.6335"/>
      <point x="309.667" y="137.667" type="curve" smooth="yes"/>
      <point x="309.667" y="189.615"/>
      <point x="279.35" y="213"/>
      <point x="211" y="213.667" type="curve" smooth="yes"/>
      <point x="180.667" y="214" type="line"/>
      <point x="180.667" y="258.667" type="line"/>
      <point x="254.487" y="258.667"/>
      <point x="288.667" y="290.691"/>
      <point x="288.667" y="359" type="curve" smooth="yes"/>
      <point x="288.667" y="411.409"/>
      <point x="255.289" y="448.333"/>
      <point x="207" y="448.333" type="curve" smooth="yes"/>
      <point x="186.393" y="448.333"/>
      <point x="162.981" y="439.643"/>
      <point x="150" y="427.667" type="curve"/>
      <point x="150" y="353" type="line"/>
      <point x="138.965" y="337.231"/>
      <point x="118.937" y="328.333"/>
      <point x="94.3333" y="328.333" type="curve" smooth="yes"/>
      <point x="63.3503" y="328.333"/>
      <point x="37" y="357.201"/>
      <point x="37" y="390.667" type="curve" smooth="yes"/>
      <point x="37" y="455.529"/>
      <point x="105.302" y="496"/>
      <point x="215.333" y="496" type="curve" smooth="yes"/>
      <point x="315.851" y="496"/>
      <point x="391.667" y="437.487"/>
      <point x="391.667" y="359.667" type="curve" smooth="yes"/>
      <point x="391.667" y="310.425"/>
      <point x="358.092" y="264.9"/>
      <point x="304.667" y="241.667" type="curve"/>
      <point x="303" y="250.333" type="line"/>
      <point x="376.291" y="234.965"/>
      <point x="416.667" y="194.816"/>
      <point x="416.667" y="136.667" type="curve" smooth="yes"/>
      <point x="416.667" y="38.2611"/>
      <point x="346.299" y="-12.6667"/>
      <point x="209.667" y="-12.6667" type="curve" smooth="yes"/>
      <point x="148.945" y="-12.6667"/>
      <point x="88.3489" y="12.8841"/>
    </contour>
    <contour>
      <point x="329.333" y="392" type="line"/>
      <point x="451.667" y="473.667" type="line"/>
      <point x="484" y="456.333" type="line"/>
      <point x="484" y="371.667" type="line" smooth="yes"/>
      <point x="484" y="341.378"/>
      <point x="487.436" y="307"/>
      <point x="515.667" y="307" type="curve" smooth="yes"/>
      <point x="552.667" y="307"/>
      <point x="559" y="354"/>
      <point x="563.333" y="388" type="curve"/>
      <point x="595.333" y="368.333" type="line"/>
      <point x="590.333" y="319"/>
      <point x="573.333" y="265.667"/>
      <point x="511.333" y="265.667" type="curve" smooth="yes"/>
      <point x="468.667" y="265.667"/>
      <point x="445.333" y="306.333"/>
      <point x="445.333" y="347.667" type="curve" smooth="yes"/>
      <point x="445.333" y="419.667" type="line"/>
      <point x="350.333" y="354.667" type="line"/>
    </contour>
  </outline>
</glyph>
<glyph name="uni0260" format="2">
  <advance width="571"/>
  <unicode hex="0260"/>
  <outline>
    <contour>
      <point x="32" y="229.667" type="curve" smooth="yes"/>
      <point x="32" y="391.571"/>
      <point x="130.073" y="496.667"/>
      <point x="281" y="496.667" type="curve" smooth="yes"/>
      <point x="317.265" y="496.667"/>
      <point x="350.551" y="483.127"/>
      <point x="383" y="455" type="curve"/>
      <point x="383" y="469.667" type="line" smooth="yes"/>
      <point x="383" y="621.375"/>
      <point x="455.393" y="705.333"/>
      <point x="586" y="705.333" type="curve" smooth="yes"/>
      <point x="639.878" y="705.333"/>
      <point x="675.333" y="679.233"/>
      <point x="675.333" y="640" type="curve" smooth="yes"/>
      <point x="675.333" y="615.924"/>
      <point x="653.6" y="590.403"/>
      <point x="625.333" y="582" type="curve"/>
      <point x="531.667" y="657" type="line"/>
      <point x="501.261" y="631.594"/>
      <point x="488" y="599.729"/>
      <point x="488" y="551.333" type="curve" smooth="yes"/>
      <point x="488" y="4" type="line" smooth="yes"/>
      <point x="488" y="-142.425"/>
      <point x="398.306" y="-229.667"/>
      <point x="248" y="-229.667" type="curve" smooth="yes"/>
      <point x="136.01" y="-229.667"/>
      <point x="62" y="-187.261"/>
      <point x="62" y="-123.333" type="curve" smooth="yes"/>
      <point x="62" y="-89.95"/>
      <point x="88.0351" y="-65.6667"/>
      <point x="123.667" y="-65.6667" type="curve" smooth="yes"/>
      <point x="134.547" y="-65.6667"/>
      <point x="146.977" y="-68.2121"/>
      <point x="155" y="-70.6667" type="curve"/>
      <point x="189.333" y="-158" type="line"/>
      <point x="206.459" y="-171.133"/>
      <point x="226.631" y="-178"/>
      <point x="248.667" y="-178" type="curve" smooth="yes"/>
      <point x="330.49" y="-178"/>
      <point x="382.333" y="-106.324"/>
      <point x="382.333" y="5.33333" type="curve" smooth="yes"/>
      <point x="382.333" y="55" type="line"/>
      <point x="325.9" y="9.94451"/>
      <point x="275.092" y="-12"/>
      <point x="226" y="-12" type="curve" smooth="yes"/>
      <point x="110.253" y="-12"/>
      <point x="32" y="85.1649"/>
    </contour>
    <contour>
      <point x="147.667" y="248" type="curve" smooth="yes"/>
      <point x="147.667" y="133.022"/>
      <point x="199.869" y="65"/>
      <point x="287.667" y="65" type="curve" smooth="yes"/>
      <point x="318.262" y="65"/>
      <point x="355.437" y="76.3104"/>
      <point x="382.333" y="94" type="curve"/>
      <point x="382.333" y="399" type="line"/>
      <point x="363.062" y="423.174"/>
      <point x="323.505" y="443.333"/>
      <point x="293.667" y="443.333" type="curve" smooth="yes"/>
      <point x="200.759" y="443.333"/>
      <point x="147.667" y="372.569"/>
    </contour>
  </outline>
</glyph>
<glyph name="uni0262" format="2">
  <advance width="569"/>
  <unicode hex="0262"/>
  <outline>
    <contour>
      <point x="33.3333" y="243.667" type="curve" smooth="yes"/>
      <point x="33.3333" y="398.104"/>
      <point x="146.119" y="496"/>
      <point x="324.333" y="496" type="curve" smooth="yes"/>
      <point x="374.841" y="496"/>
      <point x="438.217" y="486.401"/>
      <point x="493.333" y="470.667" type="curve"/>
      <point x="493.333" y="344.333" type="line"/>
      <point x="430.667" y="344.333" type="line"/>
      <point x="417" y="415.667" type="line" smooth="yes"/>
      <point x="415.173" y="424.247"/>
      <point x="404.443" y="431.291"/>
      <point x="383" y="436.667" type="curve"/>
      <point x="367.917" y="441.575"/>
      <point x="350.889" y="444"/>
      <point x="332.333" y="444" type="curve" smooth="yes"/>
      <point x="214.645" y="444"/>
      <point x="145" y="370.725"/>
      <point x="145" y="247.333" type="curve" smooth="yes"/>
      <point x="145" y="118.296"/>
      <point x="216.597" y="43"/>
      <point x="338.667" y="43" type="curve" smooth="yes"/>
      <point x="358.115" y="43"/>
      <point x="373.595" y="45.2178"/>
      <point x="394" y="50.3333" type="curve"/>
      <point x="394" y="182" type="line" smooth="yes"/>
      <point x="394" y="188.423"/>
      <point x="388.919" y="193.275"/>
      <point x="381.667" y="194" type="curve" smooth="yes"/>
      <point x="323.667" y="200.667" type="line"/>
      <point x="323.667" y="242.333" type="line"/>
      <point x="550.333" y="242.333" type="line"/>
      <point x="550.333" y="200.667" type="line"/>
      <point x="504" y="194" type="line" smooth="yes"/>
      <point x="497.855" y="192.961"/>
      <point x="493" y="187.853"/>
      <point x="493" y="182" type="curve" smooth="yes"/>
      <point x="493" y="20.3333" type="line"/>
      <point x="432.79" y="-1.23221"/>
      <point x="373.882" y="-12"/>
      <point x="315.333" y="-12" type="curve" smooth="yes"/>
      <point x="148.133" y="-12"/>
      <point x="33.3333" y="91.9335"/>
    </contour>
  </outline>
</glyph>
<glyph name="uni0265" format="2">
  <advance width="591"/>
  <unicode hex="0265"/>
  <outline>
    <contour>
      <point x="24" y="441.667" type="line"/>
      <point x="24" y="483.333" type="line"/>
      <point x="256.667" y="483.333" type="line"/>
      <point x="256.667" y="441.667" type="line"/>
      <point x="218.667" y="438.667" type="line" smooth="yes"/>
      <point x="206.457" y="437.733"/>
      <point x="196.667" y="428.236"/>
      <point x="196.667" y="417" type="curve" smooth="yes"/>
      <point x="196.667" y="166.333" type="line" smooth="yes"/>
      <point x="196.667" y="101.667"/>
      <point x="229" y="67.3333"/>
      <point x="290.667" y="67.3333" type="curve" smooth="yes"/>
      <point x="327.598" y="67.3333"/>
      <point x="365.243" y="75.8601"/>
      <point x="393.333" y="91" type="curve"/>
      <point x="393.333" y="417" type="line" smooth="yes"/>
      <point x="393.333" y="428.599"/>
      <point x="384.419" y="437.793"/>
      <point x="372.667" y="438.667" type="curve" smooth="yes"/>
      <point x="332.333" y="441.667" type="line"/>
      <point x="332.333" y="483.333" type="line"/>
      <point x="567" y="483.333" type="line"/>
      <point x="567" y="441.667" type="line"/>
      <point x="521.333" y="438.667" type="line" smooth="yes"/>
      <point x="509.393" y="437.837"/>
      <point x="500" y="428.443"/>
      <point x="500" y="417" type="curve" smooth="yes"/>
      <point x="500" y="-152" type="line"/>
      <point x="573.667" y="-152" type="line"/>
      <point x="573.667" y="-187.667" type="line"/>
      <point x="437.333" y="-229.667" type="line"/>
      <point x="393.333" y="-229.667" type="line"/>
      <point x="393.333" y="50" type="line"/>
      <point x="334.802" y="9.37338"/>
      <point x="276.519" y="-12"/>
      <point x="226.333" y="-12" type="curve" smooth="yes"/>
      <point x="140.38" y="-12"/>
      <point x="90" y="44.3579"/>
      <point x="90" y="141" type="curve" smooth="yes"/>
      <point x="90" y="417" type="line" smooth="yes"/>
      <point x="90" y="428.261"/>
      <point x="80.1777" y="437.788"/>
      <point x="68" y="438.667" type="curve" smooth="yes"/>
    </contour>
  </outline>
</glyph>
